<?xml version="1.0" encoding="utf-8"?>
<!-- Generator: Adobe Illustrator 24.1.2, SVG Export Plug-In . SVG Version: 6.00 Build 0)  -->
<svg version="1.1" id="Layer_1" xmlns="http://www.w3.org/2000/svg" xmlns:xlink="http://www.w3.org/1999/xlink" x="0px" y="0px"
	 viewBox="0 0 228 214" style="enable-background:new 0 0 228 214;" xml:space="preserve">
<style type="text/css">
	.st0{fill-rule:evenodd;clip-rule:evenodd;fill:#C574E8;}
	.st1{fill-rule:evenodd;clip-rule:evenodd;fill:#D3AAFF;}
	.st2{fill-rule:evenodd;clip-rule:evenodd;fill:#FFFFFF;filter:url(#Adobe_OpacityMaskFilter);}
	.st3{mask:url(#path-2-inside-1_1_);fill:#C574E8;}
	.st4{fill:none;stroke:#C574E8;stroke-width:2;}
</style>
<path class="st0" d="M45.5,48.8L157,82.5l1.6,2.6l4.8,2v5.2l-1.4,0.6c0.9,0.4,2.2,1,4,1.8c2.8,1.3,5.5,3.8,6.7,4.9
	c6.9,4.2,24.5,14,41.2,20.5c4.3,1.7,7.3,3.1,9.4,4.5c2,1.3,3.4,2.6,3.9,3.9c0.3,0.7,0.4,1.4,0.2,2.1c-0.2,0.7-0.6,1.2-1,1.6
	c-0.8,0.8-2,1.2-3,1.5c-6.4,2.5-15.4,3.7-25.2,4.1c-9.9,0.4-20.6,0.1-30.6-0.5c-10-0.6-19.1-1.5-25.7-2.1h0c2.9,0.8,5.8,1.5,7.8,2
	l0.8,0.2l0.2,0.8c0.3,1.2,1.1,2.5,2.5,3.8c1.3,1.3,3.1,2.5,5.1,3.7c3.9,2.3,8.4,4,11.3,5l1,0.3v9.9l-11.2,7.4l-0.7-0.3l0,0l0,0l0,0
	c0,0-0.1,0-0.1,0c0,0-0.1,0-0.1-0.1c-0.1,0-0.2-0.1-0.3-0.1c-0.4-0.2-1-0.4-1.7-0.6c-1.5-0.5-3.5-1.1-5.8-1.5
	c-2.3-0.5-4.7-0.8-7.1-0.7c-2.3,0.1-4.4,0.6-6.1,1.6c-3.3,2-4.7,6.5-5.2,10.8c-0.2,2.1-0.3,4.1-0.2,5.6c0,0.7,0.1,1.3,0.1,1.7
	c0,0.2,0,0.4,0,0.5l0,0.1l0,0.1l0,0v0l0.1,0.8l-12.1,8l-2.6-0.8L86,213c-0.2,0.1-0.5,0.1-0.7-0.2c-0.1-0.2-0.1-0.5,0.2-0.7
	l30.7-19.3l-7.8-2.4l-31,19.1c-0.2,0.1-0.5,0.1-0.7-0.2c-0.1-0.2-0.1-0.5,0.2-0.7l30.2-18.6l-4.2-1.3l-0.3-0.3l0,0l0,0l0,0l0,0
	l-0.1-0.1c-0.1-0.1-0.3-0.3-0.5-0.6c-0.3-0.3-0.6-0.7-1-1.2L61.8,210c-0.2,0.1-0.5,0.1-0.7-0.2s-0.1-0.5,0.2-0.7l39-23.3l-0.1-0.1
	c-1.2-1.2-2.7-2.8-4.5-4.5l-35.6,21.5c-0.2,0.1-0.5,0.1-0.7-0.2c-0.1-0.2-0.1-0.5,0.2-0.7L95,180.5c-0.4-0.4-0.8-0.8-1.3-1.2
	c-1.2-1.1-2.5-2.2-3.8-3.3l-32.3,20.2c-0.2,0.1-0.5,0.1-0.7-0.2c-0.1-0.2-0.1-0.5,0.2-0.7l32-20c-1.7-1.4-3.5-2.7-5.4-3.9L56.2,188
	c-0.2,0.1-0.5,0.1-0.7-0.2s-0.1-0.5,0.2-0.7l27-16.2c-2.4-1.4-4.8-2.7-7.2-3.5l-28,17.1c-0.2,0.1-0.5,0.1-0.7-0.2
	c-0.1-0.2-0.1-0.5,0.2-0.7L74.3,167c-2.6-0.8-5.7-1.2-8.9-1.4L35,183.2c-0.2,0.1-0.5,0.1-0.7-0.2c-0.1-0.2-0.1-0.5,0.2-0.7l29-16.9
	c-4.3-0.2-8.8,0.1-12.9,0.5l-33.8,19.4c-0.2,0.1-0.5,0.1-0.7-0.2c-0.1-0.2-0.1-0.5,0.2-0.7l31.8-18.3c-3.4,0.4-6.3,0.8-8.5,1.2
	c-1.3,0.2-2.3,0.4-3,0.6c-0.4,0.1-0.6,0.1-0.8,0.2l-0.1,0l-0.1,0l-0.1,0l0,0h0l-0.3,0.1l-2.7-0.8L0.9,185.4
	c-0.2,0.1-0.5,0.1-0.7-0.2c-0.1-0.2-0.1-0.5,0.2-0.7L31.2,167l-7.8-2.4l-13,7.3c-0.2,0.1-0.5,0.1-0.7-0.2c-0.1-0.2-0.1-0.5,0.2-0.7
	l12.2-6.8l-3.8-1.2v-12l23.6-14.2l0.2,0c4-0.8,7.1-3.5,8.8-7.6c1.7-4.2,1.9-9.9,0.2-16.6c-1.7-6.5-6.7-12.5-13.3-17.6
	c-6.5-5-14.4-9.1-21.6-11.7L15.3,83v-2L8,78.5v-7.7L45.5,48.8z M129.3,184.7c0-0.4-0.1-1-0.1-1.7c-0.1-1.5,0-3.6,0.2-5.8l-8.5,5l0,0
	l-0.2,8.2L129.3,184.7z M135.9,164.1c-3.5,2.2-5.2,6.1-6,9.9c-0.1-0.5-0.3-1.1-0.3-1.7c-0.2-1.4-0.1-3.1,0.3-4.9
	c0.7-3.5,2.6-7.3,6.3-9.8c3.6-2.5,8.2-3.1,12.5-2.7c4,0.4,7.8,1.5,10.1,2.6v7.5c-0.4-0.1-0.9-0.3-1.5-0.5c-1.5-0.5-3.7-1.1-6.1-1.6
	c-2.4-0.5-5.1-0.8-7.7-0.7C140.7,162.2,138.1,162.7,135.9,164.1z M167.8,159.3l-7.7,5.1v-6.9l7.7-4.2V159.3z M156.8,147.9
	c3.2,1.9,6.8,3.4,9.7,4.5l-7.2,3.9c-2.4-1.1-6.4-2.3-10.6-2.7c-4.4-0.4-9.4,0.2-13.4,2.9c-4,2.8-6.1,6.8-6.8,10.6
	c-0.4,1.9-0.5,3.7-0.3,5.3c0.1,1.2,0.4,2.4,0.9,3.2l-9,5.3c-8.7-12-9.3-21.1-7.1-27.8c2.3-7,7.8-11.7,11.5-14.6l0.5-0.4v-27.5
	l22.4-11.8c-2,1.1-4,2.4-5.9,3.8c-6.3,4.6-11.7,10.8-11.7,19.2V133c0,0.4,0.3,0.7,0.6,0.7c0,0.1,0.1,0.1,0.1,0.2
	c0.2,0.3,0.5,0.4,0.6,0.5c0.2,0.1,0.4,0.2,0.7,0.4c0.5,0.2,1.1,0.5,1.8,0.7c1.4,0.5,3.1,1,5,1.6c3.4,1,7.1,2,9.7,2.6
	c0.6,1.6,1.7,3,3,4.3C152.8,145.4,154.8,146.7,156.8,147.9z M131.5,131.6c0,0-0.2,0-0.4,0.1v-9.8c0-7.7,5-13.6,11.1-18.1
	c4.8-3.5,10.1-6.1,14.3-8.1c0.9-0.4,1.8-0.8,2.5-1.2v0.1l0.8,0.4c0.5,0.2,2.2,1,5,2.3c1.3,0.6,2.7,1.6,3.7,2.4
	c-0.3,0.2-0.6,0.3-1,0.5c-3.2,1.6-7.6,3.8-11.5,6.8c-4.7,3.6-8.7,8.5-8.7,14.9v11.2c-1.9-0.2-3.7-0.4-5.4-0.5
	c-0.6-0.1-1.2-0.1-1.8-0.2c-2.5-0.2-4.5-0.4-6-0.6c-0.9-0.1-1.6-0.1-2.1-0.1C132,131.5,131.8,131.5,131.5,131.6L131.5,131.6z
	 M159.1,92.7v0.2c-0.9,0.5-1.9,0.9-3,1.5l0,0l0,0v0l0,0c-0.9,0.4-1.8,0.9-2.8,1.4L159.1,92.7z M160.7,88.9v1.4L125,109.1v-2.8
	l32.5-18.7L160.7,88.9z M155.3,84.8l0.4,0.6l-32.4,18.7L12.6,71.3l33.3-19.6L155.3,84.8z M10.7,76.6v-2.9l111.6,33.1v3.2L15.7,78.3
	l0,0L10.7,76.6z M18,81.2v-0.8l104.3,30.9v25.6c-3.8,3-9.4,8-11.8,15.5c-2.5,7.4-1.7,17,6.5,28.9l-12.6-4c-0.4-7.5-6.6-17.7-23.8-24
	c-8.8-3.2-18.1-3.9-26.1-3.2c-7.8,0.7-14.5,2.9-18.6,5.5L21.9,152l20.9-12.5c4.9-1.1,8.6-4.4,10.5-9.2c2-4.9,2.2-11.2,0.3-18.3
	c-1.9-7.3-7.5-13.8-14.2-19C32.9,87.9,25.1,83.9,18,81.2z M21,161.1v-7.9l13.6,3.5v8.5L21,161.1z M36,156.7v8.6l0.2,0
	c0.7-0.1,1.8-0.3,3.1-0.6c2.6-0.4,6.2-1,10.3-1.4c8.1-0.8,18.2-1.1,25.7,1.1c7.5,2.3,14.9,7.9,20.3,12.9c2.7,2.5,5,4.9,6.6,6.6
	c0.3,0.3,0.6,0.6,0.8,0.9V178h0l0-0.2c-0.1-6.8-5.7-16.9-23-23.2c-8.6-3.1-17.7-3.8-25.5-3.1c-7.9,0.8-14.5,2.9-18.4,5.5L36,156.7z
	 M104.3,178.7v7.6l0.1,0.1l13.6,4.1l0.2-7.5L104.3,178.7z M168.3,101.4c0.5-0.3,1-0.5,1.5-0.8c0.5,0.4,0.8,0.8,1.1,1.1l0.1,0.1
	l0.2,0.1c6.9,4.2,24.8,14.2,41.8,20.8c4.2,1.6,7,3,8.9,4.2c1.9,1.2,2.7,2.1,2.9,2.6c0.1,0.2,0.1,0.3,0.1,0.3c0,0-0.1,0.2-0.2,0.3
	c-0.4,0.3-1,0.6-1.9,0.8l-0.1,0l-0.1,0c-6,2.4-14.6,3.5-24.4,4c-9.7,0.4-20.4,0.1-30.3-0.5c-6.9-0.4-13.3-1-18.9-1.5v-11.3
	c0-5.8,3.6-10.3,8.2-13.8C160.8,105.1,165.1,103,168.3,101.4L168.3,101.4L168.3,101.4z"/>
<path class="st1" d="M43.7,159.6l69-145.5l12.7-11.4l4.2,14.4l-61,160.1l-10.2-7.2l-15.6,41l-9-6.3l18.5-39L43.7,159.6z"/>
<defs>
	<filter id="Adobe_OpacityMaskFilter" filterUnits="userSpaceOnUse" x="29.9" y="-2.7" width="102.8" height="218.3">
		<feColorMatrix  type="matrix" values="1 0 0 0 0  0 1 0 0 0  0 0 1 0 0  0 0 0 1 0"/>
	</filter>
</defs>
<mask maskUnits="userSpaceOnUse" x="29.9" y="-2.7" width="102.8" height="218.3" id="path-2-inside-1_1_">
	<path class="st2" d="M43.7,159.6l69-145.5l12.7-11.4l4.2,14.4l-61,160.1l-10.2-7.2l-15.6,41l-9-6.3l18.5-39L43.7,159.6z"/>
</mask>
<path class="st3" d="M112.7,14.1l-2-2.2l-0.4,0.4l-0.3,0.5L112.7,14.1z M43.7,159.6l-2.7-1.3l-1.1,2.3l2.1,1.5L43.7,159.6z
	 M125.4,2.7l2.9-0.8L127-2.7l-3.6,3.2L125.4,2.7z M129.6,17l2.8,1.1l0.4-0.9l-0.3-1L129.6,17z M68.5,177.1l-1.7,2.5l3.2,2.2l1.4-3.6
	L68.5,177.1z M58.3,169.9l1.7-2.5l-3.2-2.2l-1.4,3.6L58.3,169.9z M42.7,210.9l-1.7,2.5l3.2,2.2l1.4-3.6L42.7,210.9z M33.7,204.6
	l-2.7-1.3l-1.1,2.3L32,207L33.7,204.6z M52.2,165.6l2.7,1.3l1.1-2.3l-2.1-1.5L52.2,165.6z M110,12.8L41,158.4l5.4,2.6l69-145.5
	L110,12.8z M123.4,0.5l-12.7,11.4l4,4.5l12.7-11.4L123.4,0.5z M132.4,16.2l-4.2-14.4l-5.8,1.7l4.2,14.4L132.4,16.2z M71.3,178.2
	l61-160.1l-5.6-2.1l-61,160.1L71.3,178.2z M56.6,172.4l10.2,7.2l3.5-4.9L60,167.4L56.6,172.4z M45.5,211.9l15.6-41l-5.6-2.1
	l-15.6,41L45.5,211.9z M32,207l9,6.3l3.5-4.9l-9-6.3L32,207z M49.5,164.3l-18.5,39l5.4,2.6l18.5-39L49.5,164.3z M42,162.1l8.5,6
	l3.5-4.9l-8.5-6L42,162.1z"/>
<path class="st4" d="M48,155.6l22.3,14.2"/>
<path class="st4" d="M58.1,161.6l58-133.8"/>
</svg>
