<?xml version="1.0" encoding="utf-8"?>
<!-- Generator: Adobe Illustrator 24.1.2, SVG Export Plug-In . SVG Version: 6.00 Build 0)  -->
<svg version="1.1" id="Layer_1" xmlns="http://www.w3.org/2000/svg" xmlns:xlink="http://www.w3.org/1999/xlink" x="0px" y="0px"
	 viewBox="0 0 171 206" style="enable-background:new 0 0 171 206;" xml:space="preserve">
<style type="text/css">
	.st0{fill:#D3AAFF;}
	.st1{fill:#C574E8;}
</style>
<path class="st0" d="M124.5,79.9c1.3,0,2.4-1.1,2.4-2.4c0-1.3-1.1-2.4-2.4-2.4c-1.3,0-2.4,1.1-2.4,2.4
	C122.1,78.8,123.2,79.9,124.5,79.9z M124.5,75.8c0.9,0,1.7,0.8,1.7,1.7c0,0.9-0.8,1.7-1.7,1.7s-1.7-0.8-1.7-1.7
	C122.8,76.6,123.5,75.8,124.5,75.8z"/>
<path class="st0" d="M54.8,105.7h7.5c0.2,0,0.3-0.1,0.3-0.2L63,104c0-0.1,0-0.2-0.1-0.3c-0.1-0.1-0.2-0.1-0.3-0.1h-7.5
	c-0.2,0-0.3,0.1-0.3,0.2l-0.4,1.5c0,0.1,0,0.2,0.1,0.3C54.6,105.7,54.7,105.7,54.8,105.7z M55.4,104.2h6.8l-0.2,0.8h-6.8L55.4,104.2
	z"/>
<path class="st0" d="M54.1,108.4h7.5c0.2,0,0.3-0.1,0.3-0.2l0.4-1.5c0-0.1,0-0.2-0.1-0.3c-0.1-0.1-0.2-0.1-0.3-0.1h-7.5
	c-0.2,0-0.3,0.1-0.3,0.2l-0.4,1.5c0,0.1,0,0.2,0.1,0.3C53.9,108.4,54,108.4,54.1,108.4z M54.7,106.9h6.8l-0.2,0.8h-6.8L54.7,106.9z"
	/>
<path class="st0" d="M61.1,110.9l0.4-1.5c0-0.1,0-0.2-0.1-0.3c-0.1-0.1-0.2-0.1-0.3-0.1h-7.5c-0.2,0-0.3,0.1-0.3,0.2l-0.4,1.5
	c0,0.1,0,0.2,0.1,0.3c0.1,0.1,0.2,0.1,0.3,0.1h7.5C61,111.2,61.1,111,61.1,110.9z M60.6,110.5h-6.8l0.2-0.8h6.8L60.6,110.5z"/>
<path class="st0" d="M108.5,150.8H65.9c-0.2,0-0.3,0.1-0.3,0.3v46.7c0,0.2,0.1,0.3,0.3,0.3h42.6c0.2,0,0.3-0.1,0.3-0.3v-46.7
	C108.8,151,108.7,150.8,108.5,150.8z M108.1,197.6H66.2v-46.1h42L108.1,197.6L108.1,197.6z"/>
<path class="st0" d="M101.5,109H72.8c-0.2,0-0.3,0.1-0.3,0.3l-4.7,31.6c0,0.1,0,0.2,0.1,0.3c0.1,0.1,0.2,0.1,0.3,0.1h38.1
	c0.1,0,0.2,0,0.3-0.1c0.1-0.1,0.1-0.2,0.1-0.3l-4.7-31.6C101.8,109.1,101.7,109,101.5,109z M68.5,140.6l4.6-30.9h28.1l4.6,30.9H68.5
	L68.5,140.6z"/>
<path class="st0" d="M35,150.9l-22.1,1.3c-0.2,0-0.3,0.2-0.3,0.3v43.9c0,0.2,0.1,0.3,0.3,0.3l22.1,1c0.1,0,0.2,0,0.2-0.1
	c0.1-0.1,0.1-0.1,0.1-0.2v-46.2c0-0.1,0-0.2-0.1-0.2C35.2,150.9,35.1,150.9,35,150.9z M34.7,197.1l-21.4-1v-43.3l21.4-1.3V197.1z"/>
<path class="st0" d="M137.9,197.8l22.1-1c0.2,0,0.3-0.2,0.3-0.3v-44c0-0.2-0.1-0.3-0.3-0.3l-22.1-1.3c-0.1,0-0.2,0-0.2,0.1
	c-0.1,0.1-0.1,0.2-0.1,0.2v46.3c0,0.1,0,0.2,0.1,0.2C137.7,197.8,137.8,197.8,137.9,197.8z M138.2,151.6l21.4,1.3v43.3l-21.4,1
	V151.6z"/>
<path class="st0" d="M116.7,78.5c1.3,0,2.4-1.1,2.4-2.4c0-1.3-1.1-2.4-2.4-2.4c-1.3,0-2.4,1.1-2.4,2.4
	C114.3,77.4,115.4,78.5,116.7,78.5z M116.7,74.4c0.9,0,1.7,0.8,1.7,1.7c0,0.9-0.8,1.7-1.7,1.7c-0.9,0-1.7-0.8-1.7-1.7
	C115,75.1,115.8,74.4,116.7,74.4z"/>
<path class="st0" d="M103.4,160.7h1.5c0.2,0,0.3-0.1,0.3-0.3V154c0-0.2-0.1-0.3-0.3-0.3h-1.5c-0.2,0-0.3,0.1-0.3,0.3v6.4
	C103.1,160.5,103.2,160.7,103.4,160.7z M103.8,154.3h0.8v5.8h-0.8V154.3z"/>
<path class="st0" d="M99.5,160.7h1.5c0.2,0,0.3-0.1,0.3-0.3V154c0-0.2-0.1-0.3-0.3-0.3h-1.5c-0.2,0-0.3,0.1-0.3,0.3v6.4
	C99.2,160.5,99.4,160.7,99.5,160.7z M99.9,154.3h0.8v5.8h-0.8V154.3z"/>
<path class="st0" d="M95.6,160.7h1.5c0.2,0,0.3-0.1,0.3-0.3V154c0-0.2-0.1-0.3-0.3-0.3h-1.5c-0.2,0-0.3,0.1-0.3,0.3v6.4
	C95.3,160.5,95.4,160.7,95.6,160.7z M95.9,154.3h0.8v5.8h-0.8V154.3z"/>
<path class="st1" d="M170.8,144.4l-31.6-42c-0.2-0.3-0.5-0.4-0.8-0.4h-17l-0.6-2.2c-0.1-0.3-0.3-0.5-0.6-0.5l-11.6-0.4
	c0,0-0.1,0-0.1,0c0,0,0,0-0.1,0c0,0-0.1,0-0.1,0c0,0,0,0,0,0c0,0-0.1,0-0.1,0.1l-4,3.2c-1.9-0.1-3.8-0.1-5.8-0.1l6.2-9.6
	c5-0.3,9.7-0.8,13.9-1.3c6.7-0.8,11.5-1.7,14.2-2.7l0,0.1l0.3-0.1l0.6-0.3c0.2-0.1,0.5-0.2,0.8-0.4c1.1-0.7,1.1-1.3,1.1-1.7v0v0
	V75.1c0-0.7-0.3-1.4-2.3-2.3c-2.5-1-7.2-2-14-2.8l25.1-38.5c0.2-0.2,0.2-0.5,0.1-0.8c-0.1-0.3-0.2-0.5-0.5-0.6l-56-30
	C87.6,0,87.5,0,87.3,0c-0.2,0-0.3,0-0.5,0.1l-56,30c-0.2,0.1-0.4,0.4-0.5,0.6c-0.1,0.3,0,0.6,0.1,0.8l24.7,37.9
	c-1.3,0.1-2.5,0.3-3.7,0.4c-7,0.9-11.7,1.8-14.3,2.9c-2,0.8-2.2,1.6-2.2,2.3v4.1c-0.8,0.5-1.6,1-2.3,1.7c-1.9,1.9-2.6,4.4-2.2,7.4
	c0,0.2,0.2,0.8,0.5,2.1c1.2,4.2,2.2,8.1,2.9,11.6h-1.3c-0.3,0-0.6,0.2-0.8,0.4l-4.1,5.5c-0.6-0.5-1.5-1.2-2.2-1.4
	c-0.5-0.1-1,0-1.5,0.3c-0.7,0.5-2.3,3.7-3.3,6.9c-0.5,1.5-1,3.2-1.2,5L0.2,144.4C0.1,144.6,0,144.8,0,145v54.3c0,0.6,0.4,1,1,1h4.8
	v0.2c0,0.6,0.2,0.9,1.6,1.3c1.5,0.4,4.4,0.7,9.2,0.9c5.5,0.3,13,0.6,22.4,0.8v1.9c0,0.2,0.1,0.3,0.2,0.5c0.1,0.1,0.3,0.2,0.5,0.2
	h17.4c0,0,0.1,0,0.1,0h0c0,0,0.1,0,0.1,0l4.4-2.1h0.3c7.1,0.1,15,0.1,23.2,0.1c9.7,0,18.8,0,26.9-0.1h0.3l4.5,2.2c0,0,0.1,0,0.1,0h0
	c0,0,0.1,0,0.1,0h17.4c0.2,0,0.3-0.1,0.5-0.2c0.1-0.1,0.2-0.3,0.2-0.5v-1.9c7.7-0.2,14-0.4,18.7-0.7c4.8-0.3,7.7-0.6,9.2-0.9
	c1.3-0.3,1.6-0.7,1.6-1.3v-0.2h5.2c0.6,0,1-0.4,1-1V145C171,144.8,170.9,144.6,170.8,144.4z M164.6,147.5l-0.4-0.2
	c-0.1,0-0.3-0.1-0.7-0.3l-29.7-40.8c-0.3-0.6-1.2-1.5-5.8-2.2h9.9l31.1,41.4v53h-4.2v-50.6v-0.2L164.6,147.5z M132,107.1l28.6,39.4
	c-3.8-0.6-11.5-1.3-26.8-1.8l-11.6-39.5C130,105.9,131.7,106.8,132,107.1z M162.8,148.9v51c-1.4,0.3-6.8,1.1-27.4,1.6l-0.3-52.7
	c0-0.1,0-0.1,0-0.2l-0.5-1.9C154.9,147.4,161.1,148.5,162.8,148.9z M85.3,144c-8,0-15.6,0-22.6,0.1l7.9-40.1
	c4.5-0.1,9.4-0.1,14.6-0.1c6.8,0,13,0.1,18.5,0.2l7.9,40C103.6,144,94.8,144,85.3,144z M86.3,68c-0.4,0-0.7,0-1.1,0
	c-9.3,0-19.2,0.5-27.9,1.3L32.7,31.4L86.3,2.7V68z M88.3,68V2.7l53.6,28.8l-25,38.4C108.1,68.8,97.7,68.1,88.3,68z M40.8,78.7
	c0.2,0.4,0.7,0.7,1.2,0.7c0.7,0,1.4-0.6,1.4-1.4s-0.6-1.4-1.4-1.4c-0.4,0-0.7,0.1-1,0.4c-0.1,0.1-0.2,0.2-0.3,0.4
	c-1,0.1-2.4,0.3-3.8,0.8v-3.1c0.4-0.5,3.8-2,15.3-3.4C62,70.7,74.1,70,85.2,70c10.3,0,22.3,0.7,32.1,1.8c12,1.4,15.7,2.9,16.1,3.4
	v8.6l-0.5-0.2l-0.3-0.1l0,0.1c-2.7-1-7.5-1.9-14.2-2.7c-10-1.2-22.4-1.9-33.2-1.9c-11.1,0-23.6,0.7-33.5,1.9
	c-6.6,0.8-11.4,1.7-14,2.7v0l-0.3,0.1l-0.3,0.1c0,0-0.1,0-0.1,0.1v-4.2C38.4,79.1,39.8,78.8,40.8,78.7z M42.1,78.6
	c0.2,0,0.3-0.1,0.5-0.2c-0.1,0.2-0.3,0.3-0.6,0.3c-0.1,0-0.3,0-0.4-0.1C41.9,78.6,42.1,78.6,42.1,78.6z M41.8,77.4
	c0.1,0,0.1,0,0.2,0c0.1,0,0.2,0,0.2,0c0,0-0.1,0-0.1,0C42.1,77.4,42,77.4,41.8,77.4z M108.9,85.8c3.4-0.3,6.6-0.6,9.6-1
	c1.4-0.2,2.7-0.3,3.9-0.5c4.5,0.7,8,1.5,10,2.2c-1.6,0.6-5.5,1.7-14.7,2.8c-3.6,0.4-7.5,0.8-11.6,1.1L108.9,85.8z M110.3,83.7
	l0.4-0.6c1.1,0.1,2.2,0.2,3.3,0.3C112.8,83.5,111.5,83.6,110.3,83.7z M48.1,84.3c1.2,0.2,2.4,0.3,3.7,0.5c4.2,0.5,9,1,14.1,1.3
	l3,4.6c-5.8-0.3-11.4-0.8-16.3-1.4c-9.1-1.1-12.9-2.2-14.4-2.7C40.1,85.8,43.6,85,48.1,84.3z M56.4,83.4c2.3-0.2,4.8-0.4,7.3-0.6
	l0.8,1.3C61.8,83.9,59,83.6,56.4,83.4z M85.2,82c0.4,0,0.7,0,1.1,0v19.9c-0.4,0-0.7,0-1.1,0c-2.2,0-4.4,0-6.6,0L66,82.6
	C72.2,82.2,78.7,82,85.2,82z M88.3,102V82.1c6.9,0.1,13.8,0.3,20.1,0.8L95.9,102C93.5,102,90.9,102,88.3,102z M32.3,90
	c-0.3-0.9-0.5-1.7-0.5-1.9c-0.3-2.7,0.3-4.9,1.9-6.5c0.4-0.4,0.9-0.8,1.4-1.1V86v0v0c0,0.7,0.3,1.4,2.2,2.2l0.3,0.1l0.3,0.1l0,0
	c2.7,1,7.4,1.9,14,2.7c5.5,0.7,11.9,1.2,18.6,1.5l6,9.2c-2.1,0-4.2,0.1-6.1,0.1L66.4,99c0,0,0,0,0,0c0,0,0,0-0.1,0
	c-0.1-0.1-0.2-0.1-0.3-0.1c0,0-0.1,0-0.1,0l-11.6,0.4c-0.3,0-0.5,0.2-0.6,0.5l-0.6,2.2H35.3C34.3,97,33,92.6,32.3,90z M33,125.2
	c-1.3,1.6-3,2.4-5.2,2.4c-1.5,0.1-2.8-0.1-3.8-0.6l11.4-15.7C35.9,117.9,35.1,122.6,33,125.2z M19.9,124.6c0.4,1,1,1.8,1.6,2.4
	L7.1,147c-0.5,0.1-0.7,0.2-0.7,0.3L6,147.5l-0.2,0.1v0.2v50.6H2v-53l17.4-23.2C19.5,123,19.7,123.8,19.9,124.6z M21.4,124.7
	c-0.6-1.2-0.8-2.7-0.7-4.2l12.4-16.5h1.2c0.3,1.6,0.5,3,0.7,4.4l-12.7,17.6C22,125.6,21.7,125.2,21.4,124.7z M40.4,104.3
	c-2.5,0.5-3.6,1-3.8,1.9l-0.4,0.6c-0.1-1-0.3-1.9-0.5-2.8h6.8C41.7,104.1,41,104.2,40.4,104.3z M39.3,148.5c0,0.1,0,0.1,0,0.2
	L39,201.5c-23.7-0.5-29.7-1.4-31.2-1.7v-51c1.8-0.4,8.7-1.6,32.1-2.3L39.3,148.5z M40.5,144.5c-17.7,0.5-26.4,1.3-30.6,2l13.3-18.4
	c1.3,0.6,2.7,0.8,4,0.8c0.2,0,0.4,0,0.5,0c2.6-0.1,4.7-1.1,6.2-2.9c2.9-3.5,3.2-9.8,2.5-16.2l1.9-2.6c0.2-0.1,0.7-0.4,2.2-0.8
	c2.4-0.5,6.4-1,11.5-1.4L40.5,144.5z M24.8,107.8c0.2-0.1,0.3-0.1,0.4-0.1c0.3,0,1.3,0.8,1.6,1.2l-5.6,7.5
	C22.3,112.1,24.3,108.3,24.8,107.8z M40.3,204.7l0.3-55.9l14.1-48.2l10.3-0.4l-9.6,47.3c0,0,0,0.1,0,0.1l1,57.1L40.3,204.7
	L40.3,204.7z M57.7,204.3l-1-56.6l9.6-47l3.1,2.6l-9,45.3c0,0,0,0.1,0,0.1l1,53.9L57.7,204.3z M111.6,201.8
	c-7.9,0.1-16.8,0.1-26.3,0.1c-8,0-15.6,0-22.5-0.1l-1-53.1l0.5-2.6c7.1-0.1,14.8-0.1,23-0.1c9.6,0,18.6,0.1,26.8,0.2l0.5,2.5
	L111.6,201.8z M116.7,204.3l-3.8-1.8l1-53.9c0,0,0-0.1,0-0.1l-9-45.3l3.1-2.6l9.6,47L116.7,204.3z M118,204.7l1-57c0,0,0-0.1,0-0.1
	l-9.6-47.3l10.3,0.4l14.1,48.2l0.3,55.9L118,204.7L118,204.7z"/>
</svg>
