<?xml version="1.0" encoding="utf-8"?>
<!-- Generator: Adobe Illustrator 24.1.2, SVG Export Plug-In . SVG Version: 6.00 Build 0)  -->
<svg version="1.1" id="Layer_1" xmlns="http://www.w3.org/2000/svg" xmlns:xlink="http://www.w3.org/1999/xlink" x="0px" y="0px"
	 viewBox="0 0 188 244" style="enable-background:new 0 0 188 244;" xml:space="preserve">
<style type="text/css">
	.st0{fill:#C574E8;}
	.st1{fill:#651AB7;}
</style>
<path class="st0" d="M86,231c0,0-3,3.7-8.7,2.9c-7.9-3.4-13.2-0.2-13.2-0.2s-4.4,0.2-6-0.8c-2,1.3-8,1.8-8,1.8l8.2-0.7
	c0,0,2.2,1.8,6.2,1c8.4-2.7,7.4-0.3,12.4,0.3c5,0.7,9.2-2.7,9.2-2.7s3.7,5.5,15.1,1C89.5,236.4,86,231,86,231z"/>
<path class="st1" d="M47.8,240.4c10.2,3,13.1-2.3,13.1-2.3s-7.4,4.4-13.1,1.3c-3.4,2.4-13.2,0.3-13.2,0.3S40.1,242.1,47.8,240.4z"/>
<path class="st0" d="M111.5,240c-3.5,1.2-14.4-0.2-14.4-0.2s5.7,1.7,14.6,1.5c8.5,1.7,12.9-1.3,12.9-1.3s4.5,2.3,11.2,0.8
	c-8.5-0.3-11.6-2.2-11.6-2.2S121.9,243.1,111.5,240z"/>
<path class="st0" d="M164.8,228.1c5.9,0.2,10.2-1.2,18.9-0.7c-4-1.7-17.8,0-17.8,0s-2.5-2-5.9-2c-7.2,5.2-15.9,1.8-18.1,3.2
	c-2.2,1.3-5.7,1.7-5.7,1.7s4.5,1.5,6.7-1.2c10.6,1.5,17.6-2.7,17.6-2.7S162.3,225.5,164.8,228.1z"/>
<path class="st1" d="M175.1,240.2c-2.5,4.2-10.9,2.5-10.9,2.5s4.7,3.5,11.2-1.2c6,2,12.1,0.3,12.1,0.3S179.3,242.4,175.1,240.2z"/>
<path class="st1" d="M157.8,233.3c-2,2.4-9.9,2.5-9.9,2.5c4.5,1.3,10.2-1.2,10.2-1.2s3.2,2.8,11.1-0.2
	C162.8,235.8,159.9,233.8,157.8,233.3z"/>
<path class="st0" d="M184.5,221.3l-0.2,0c-5.2,0.2-8.6-0.6-9.3-2l-0.3-0.6l-0.5,0.4c-2.8,2.3-6.3,1.7-6.3,1.7
	c-0.1,0-5.9-0.8-8.6-3.5l-0.4-0.4l-0.4,0.4c-1.8,2-6.2,2.1-8,1.4c-0.3-0.1-0.6-0.3-0.7-0.6c-0.3-0.6,0-1.4,0.1-1.8
	c0.3-0.9,0.6-1.5,1.1-1.7c0.3-0.1,0.7-0.1,1.1,0.2l1.2,0.6l-0.4-1.2c-0.5-1.4-1.1-2.2-1.8-2.6c-1-0.4-2,0-3.1,0.6
	c-0.3,0.1-0.6,0.3-0.9,0.4c-0.3,0.1-0.7,0.1-0.9-0.1c-0.2-0.3-0.4-1.5,1.5-5.5c0.4-1,1-1.5,1.8-1.7c1.9-0.4,4.2,1.4,4.2,1.4l1.2,1
	l-0.4-1.5c0-0.1-0.9-3.6-3.6-5c-1.4-0.7-2.9-0.8-4.7-0.3c1.3-3.2,3.4-9.1,4.6-16.3c2.2-13.9-0.5-25.9-7.8-34.9
	c0.6-3.4-1.2-6.7-2.1-8.2l15.3-34.6l-2.7-1.6l-18.9,25.6l-1.3-1.1h-0.6c-1.8-4.5-9.3-22.4-21.3-34c-0.3-2.2-1.6-9.7-6.3-16.7
	c2.5-0.1,4.3-1.4,4.3-3.2c0-1.9-2-3.2-4.8-3.2c-0.6,0-1.1,0.1-1.6,0.2c-0.5-3.4-2.1-11.4-6-16.3c1.4-0.5,2.3-1.6,2.3-2.9
	c0-1.9-1.9-3.3-4.5-3.3c-0.3,0-0.6,0-0.9,0.1c0.2-3.8-1-7.4-1.9-9.7c2.1-0.3,3.5-1.5,3.5-3c0-1.8-1.9-3.1-4.6-3.1
	c-0.9,0-1.7,0.1-2.4,0.4c-1.9-1.5-3.2-2.4-4.1-3c0.6-0.9,0.9-2,0.9-3.2c0-3.1-2.2-5.6-4.9-5.6c-2.7,0-4.9,2.5-4.9,5.5
	c0,0.5,0.1,1.1,0.2,1.6C75,29.6,74,29,72.9,29c-1.7,0-3.2,1.6-3.2,3.6c0,0.7,0.2,1.4,0.5,1.9c0,0.1-0.1,0.2-0.1,0.2
	c-0.3,0-0.7-0.1-1.1-0.1c-2.8,0-4.5,1-4.5,2.5c0,0.8,0.5,1.5,1.4,1.9c-0.7,0.7-1.3,1.3-1.6,1.4l-1,0.1c-0.7-0.2-1.5-0.3-2.4-0.3
	c-1,0-2,0.2-2.7,0.5c-1.8,0.7-1.9,1.8-1.9,2.3c0,1.6,1.9,2.7,4.7,2.6c0.4,0,0.8,0,1.1-0.1c-0.3,3.1-1.2,8.4-3.2,10.8
	c-0.6-0.2-1.4-0.3-2.1-0.3c-2.9,0-4.8,1.1-4.8,2.9S54,62,56.9,62c0.5,0,0.9,0,1.3-0.1c0.6,4.8,0.5,9-0.2,12.5
	c-1.5,0.6-1.7,1.6-1.7,2.2c0,0.4,0.1,0.9,0.6,1.4c-0.9,2.2-2,3.2-2.3,3.5h0c-0.5-0.1-1.1-0.1-1.6-0.1c-3.1,0-5.1,1.1-5.1,2.9
	s2,2.9,5.1,2.9c0.6,0,1.2,0,1.7-0.1c0.4,2.6,1.2,8.6,0,12.8c-2.5,0.6-3.9,1.8-3.9,3.4c0,0.8,0.4,2.1,2.6,3c-0.2,0.5-0.4,0.9-0.5,1.1
	c-0.3,0-0.8,0-1,0l-0.2,0l-0.8,0.1c-0.8-0.3-1.8-0.4-2.9-0.4c-3.4,0-5.7,1.4-5.7,3.3s2.3,3.3,5.7,3.3c0.8,0,1.5-0.1,2.2-0.2
	c-0.2,4.4-0.9,10.3-2.2,12.7c-2-0.3-3.9-0.1-5,0.1l-0.3,0l0,0c-0.8-0.3-1.7-0.4-2.7-0.4c-3.1,0-5.2,1.3-5.2,3.2s2.2,3.2,5.2,3.2
	c0.5,0,0.9,0,1.3-0.1c0,3.3-0.1,6.1-0.3,7.3c-0.8-0.3-1.8-0.5-2.8-0.5c-3.2,0-5.5,1.5-5.5,3.6c0,2.1,2.3,3.6,5.5,3.6
	c0.4,0,0.9,0,1.3-0.1c-1.5,8.7-4.2,21.1-6.5,23.9c-1.1-0.7-2.6-1-4-1c-3.1,0-5.2,1.3-5.2,3.1c0,1.8,2.1,3.1,5.2,3.1
	c0.7,0,1.4-0.1,2-0.2c0.7,5.1,2.9,22.3,3.5,28.3c-0.4,0.1-0.7,0.3-0.9,0.4c-0.8,0.5-1.1,1.4-1.1,1.9c-0.1,0.5-1.7,11.9,3.7,19.4
	c-0.3,0.6-1.7,2.1-6.5,1.8c-6.4-0.4-13.9-3.1-13.9-3.1l-0.4,1c0.2,0.2,5.9,3.8,14.4,4c5.2,0,7.1-1.2,7.7-2c0.1,0.1,0.3,0.1,0.4,0.2
	c0.2,0.2,0.3,0.3,0.5,0.5l0.3,0.2c2.4,1.3,4.1,1.5,6.2,1.5c0.3,0,0.7,0,1.1,0c3.7-0.1,5.8-1.2,6.9-2.1c1.6,0.6,5,1.5,8.8,1.5
	c3.8,0,6.9-1.2,8.4-2c1.1,0.7,3.3,1.7,5.8,1.4c0.6,0,3.1-0.2,4.9-1.6c1,0.4,1.9,0.3,2,0.3l0.4-0.1l0.2-0.1c0.2-0.1,1.1-0.2,3.3,0.2
	c2.3,0.4,4.9,0.2,7.1-0.5c1-0.3,1.9-0.6,2.5-1.1c0.6-0.4,0.9-0.9,1.2-1.5c0.1-0.2,0.3-0.5,0.4-0.8c0.5-1.3-0.1-2.7-1.4-3.7
	c-0.1-0.1-0.2-0.2-0.3-0.3c-0.4-0.3-0.8-0.4-1.2-0.5c-0.2-0.1-0.3-0.1-0.5-0.2c0.2,0,0.4,0,0.5,0c1.5,0.5,3.9,1.2,6.2,1.1
	c0.8,0,1.5-0.1,2.2-0.5c0.2-0.1,0.4-0.2,0.5-0.3c0.9-0.5,2.1-1.6,2.4-3.5c0.2-1,0-1.8,0-1.9c0,0,0-0.1-0.1-0.2
	c-0.2-0.7-0.7-1.3-1.3-1.9c-0.1-0.1-0.1-0.1-0.2-0.2c0,0,0,0,0,0c-0.3-0.3-0.7-0.5-1.1-0.7c-0.5-0.2-1.1-0.4-1.8-0.4
	c-0.5-0.1-1-0.1-1.5,0c0.5-0.3,0.9-0.5,1.3-0.6c0.4-0.1,0.8-0.1,0.9-0.1c0,0,0,0,0,0c0.4,0,1.5,0.1,2.4,0.5c0.1,0.1,0.3,0.2,0.6,0.3
	c0.7,0.4,1.1,0.7,1.4,0.8c0.2,0.1,0.5,0.2,0.7,0.2c1.2,0.6,2.2,0.7,3.1,0.2c0.6-0.3,1-0.8,1.3-1.4c0.4-0.6,0.7-1.5,0.7-2.9
	c-0.1-2.4-1.6-4.4-3.2-5.8c0.3,0.1,0.6,0.2,0.9,0.3c1.4,0.7,2.4,1.7,3.2,3c0.6,1.3,1.1,3,1.3,5.6c0.1,1.6,0.4,2.8,0.9,3.9
	c0.5,1.3,1.3,2.4,2.3,3.3c1.4,1.2,3.1,1.9,5,1.8c1.4,1,2.6,0.7,3.3,0.3c1.1-0.6,5.6-3.6,5.6-6.8c0-1.3,0-2.9,0.7-3.8
	c-0.4,1.7-0.2,2.9,0.1,3.6c0.2,0.6,0.5,1,0.9,1.3c0.1,0.1,0.1,0.1,0.1,0.2l0.1,0.1c0,0,1.1,0.8,2.5,0.5c0.4-0.1,0.7-0.2,1.1-0.4
	c0.7-0.3,1.4-0.9,2.1-1.8c0.3-0.5,0.6-1.1,1-1.8c0.9-1.8,2.1-4.4,4.6-6l0.3-0.2l0.1-0.3c0.5-0.3,1.1-0.6,1.7-0.8
	c1.4-0.5,2.6-0.5,3.6,0c0.5,0.3,0.9,0.7,1.2,1c-0.8-0.2-1.8-0.4-2.9-0.1c-1.3,0.3-2.3,1.2-3,2.5c-1.3,2.3-2.6,5.4-1.4,7.2
	c0.5,0.9,1.5,1.2,2.9,1.2l0.2-0.1c1.3-0.7,2.1-1,2.6-1.1c-0.5,0.4-1.2,1-1.5,1.7c-0.2,0.4-0.7,2.4-0.7,3.1c0.1,1.4,0.8,2.2,2.1,2.5
	c0.2,0.1,4.4,1.6,8.9-1.1c3.5,2.3,8.6,3.3,8.9,3.3c0.6,0,5.2,0.3,7.1-1.5c3.2,2.6,9.8,1.1,10.1,1.1L184.5,221.3z M52.8,85
	c-1.3,0-2.4-0.3-2.4-0.7c0-0.4,1.1-0.7,2.4-0.7c1.3,0,2.4,0.3,2.4,0.7C55.2,84.7,54.1,85,52.8,85z M28.9,172.7
	c-1.4,0-2.5-0.3-2.5-0.7s1.1-0.7,2.5-0.7c1.4,0,2.5,0.3,2.5,0.7S30.3,172.7,28.9,172.7z M143.2,154c0,0,1.6,2.9,2.4,4.3
	C142.7,156.7,143.2,154,143.2,154z M150.2,113.8L134,149.3c0,0-0.8,1.3-1.6,1.6c-0.7,0.3-1.9,0.6-3.6,0.6c-3.6,0.2-1.1-4.4-1.1-4.4
	L150.2,113.8z M137,171.1c-3.5,10.1-3.6,13.6-3.6,13.6s3.3-6.8,7.5-5.1c4.2,1.7,1.3,8,1.3,8s-1.8,3.6-4.2,2.6
	c-2.7-1.3-1.1-4.5,1.2-5.8c-2.6,0.2-4.3,3.4-4.3,3.4l-7.4,16.1c0,0,0.3-24.3-14.8-22.3c6.4,1.3,6.1,5.4,6.1,5.4s-0.3,4.4-6.7,1.5
	c-4.4-2.7-3.5-6.2-3.5-6.2c1.6-5.2,6-5.8,6-5.8c7.7-0.3,14.1,8.1,14.1,8.1s0.9-5.3-2.6-10.9c-0.3-0.5-1.6-2.7-1.8-3.4
	c-4.6-11.6,1-14.8,1-14.8s-5.9,0.9-6.8-1.6c0,0-1.7-5.7,8-6.4c-3.8,5.5,2.6,5.2,2.6,5.2s3.9,0.2,5.8-1.8c1-1.7,1.6-3.8,1.6-3.8
	s2.6,1.5,2.4,3.9c-0.2,2.4-5.6,3.9-5.6,3.9S140.5,160.9,137,171.1z M39.4,204.8l2.2-3.9l7.5-2.6c0,0-1.4,3.8-2.8,5.8
	c-2.6,0.5-4.9,0.7-6.6,0.8C39.5,204.8,39.4,204.8,39.4,204.8z M51.6,136.4c2.1-0.2,3.9-0.9,4.6-1.6c0,0,1.2-0.4,0.8,2.7
	c-1.8-0.2-4-0.6-12.5,2.4l2-3.9l0.2-0.1C47.6,136.5,49.5,136.7,51.6,136.4z M48.6,135c0-0.4,1.3-0.9,3.1-1c1.7-0.1,3.2,0.1,3.2,0.5
	c0,0.4-1.3,0.9-3.1,1C50.1,135.6,48.6,135.4,48.6,135z M61.3,107.5c0,0,0.7,0,0.8,0.1c0,0.3,0.1,2.1,0.1,2.1s-4.7-0.7-6-0.7
	L61.3,107.5z M54.7,108.6c0,0,1.1-1.5,1.6-3l0.1-0.3c0.6,0.1,1.3,0.1,2,0.1c1.3,0,2.5-0.1,3.5-0.4l0.1,0.2l0.1,0.9L54.7,108.6z
	 M63.2,105.2l-0.3-0.5c0.7-0.3,1.1-0.6,1.3-1l0.5,0.3c4.1-0.2,15.6,0,15.6,0s-2.6,15.5-5.9,21.5c-7.8,1.1-17.8,7.3-17.8,7.3
	S64.4,119.4,63.2,105.2z M66.7,77.5c0,0,10.1-0.8,15.8-0.5c1.5,5-2,26.2-2,26.2s-11.5-0.3-15.8-0.5l-0.5,0.3
	c-0.1-0.4-0.6-0.8-1.2-1.1l0.3-0.3C72,85,66.7,77.5,66.7,77.5z M67.4,82.5c-1.2,0-7.5-0.2-7.5-0.2S64.3,81,65,81c0.7,0,1.9,0,1.9,0
	S67.5,82,67.4,82.5z M66.4,76.8c5.8-2.5,15.4-3.6,15.4-3.6s0.6,0.6,0.7,3C77.4,75.5,66.4,76.8,66.4,76.8z M83.7,75.6
	c0,0,9.7,28.3,6.9,42.9C83.2,121,73.6,132,73.6,132C87.2,99.2,83.7,75.6,83.7,75.6z M72.8,134.7l14.6-0.8c0,0-7.7,23.6-11.1,33.7
	c-8.2,1.5-22.6,8-22.6,8L72.8,134.7z M72,133.8H57.3c1.9-2.1,14.8-7.3,17-7C73.8,128.2,72,133.8,72,133.8z M73.4,133.6
	c0,0,7.8-9.3,16.8-14.2c0,0-0.8,9.9-3,13.3C83.4,133.1,73.4,133.6,73.4,133.6z M93.1,166.5c-7.7,7.9-16.9,21.6-25.6,27.4
	c2.7-7.4,9.5-25.3,9.5-25.3s7.8-3.2,18.1-4.5C94.4,164.9,93.7,165.7,93.1,166.5z M64.5,191.9l2.7-7.5l3.2-1.1l-2.8,7.4L64.5,191.9z
	 M67.3,191.7c0,0-1.3,3.2-1.5,3.7c-0.3,0.5-3.6,2.4-3.6,2.4l1.9-4.9L67.3,191.7z M67.4,183.4l2.5-6.9l3.2-1.1l-2.5,7L67.4,183.4z
	 M70.4,175.4l2-5.6l3.4-1l-2.2,5.6L70.4,175.4z M69.2,175.7l-5.8,2l2.1-5.5l5.8-2L69.2,175.7z M69,176.8l-2.6,6.9l-5.6,2l2.2-6.9
	L69,176.8z M66.1,184.8l-2.8,7.6l-5.4,1.9l2.6-7.6L66.1,184.8z M63,193.4l-2.1,5.2c0,0-4.6,2.4-5.7,2.9c1.1-2.6,2.3-6.1,2.3-6.1
	L63,193.4z M64.5,172.5l-2,5.4l-5.1,1.6l2.4-5.2L64.5,172.5z M62,179.1l-2.2,7l-5.9,2l3.1-7.3L62,179.1z M59.4,187.1l-2.7,7.5
	l-6.1,2.1l3-7.5L59.4,187.1z M56.3,195.7l-2.4,6l-5.4,1.8c-0.3,0.1-0.5,0.1-0.8,0.2l2.6-6L56.3,195.7z M77.3,167.3
	c3.1-6.7,11.2-33.6,11.2-33.6l10.8-0.6l-3,29.6C96.3,162.7,80.3,165.9,77.3,167.3z M89.2,132.6c0,0,4-5.4,10.1-8.3v7.8L89.2,132.6z
	 M88.8,131.5c6.9-17.1,1.2-42.9-2.6-52.4c0,0,15.4,27.5,13.2,44C95.3,124.6,92.1,127.7,88.8,131.5z M57.3,138.5c0.2,1.3,0,2.8,0,2.8
	s-8.4-1.1-12-0.7C45.3,140.7,54.8,137.8,57.3,138.5z M57.7,135.1l14-0.4l-19.3,41.8C52.3,176.5,61.4,149,57.7,135.1z M53.1,177.2
	l5.6-2.5l-2.3,5.1l-5.5,1.8L53.1,177.2z M55.9,181.1l-3.1,7.3l-5.5,1.6l3.2-7.2L55.9,181.1z M52.7,189.4l-3.3,7.7l-7.3,2.6l4.9-8.6
	L52.7,189.4z M38.1,206.9c6.1,0,23.4-1.5,37.8-17.4c1.6-1.7,11.2-12.8,20.9-24.3c11.8-11.7,22.2-18.6,30.5-19.9
	c-0.2,0.2-0.4,0.4-0.6,0.6c-9.5,1.2-9.3,6.5-9.3,6.5s-0.9,4.4,5.5,4c-1.2,1.3-1.2,2.6-1.2,2.6c-2.8,0.3-10.6,6.6-19.6,14.2
	c-0.9,0.8-4.4,3.8-5.1,4.5c-8.4,7.7-12,13-24.3,21.1c-0.6,0.4-3.3,2.1-4,2.4c-14.3,7.5-33.7,6-33.7,6s-0.4,0.1-0.1-1.1
	c0.3-0.7,1.1-0.4,1.1-0.4l-0.1,1C35.9,206.8,36.7,206.9,38.1,206.9z M136.7,146l1.8-3c0,0,2.3,2.4,1,5.4
	C139.4,147.2,136.7,146,136.7,146z M134.2,134.7l-5.8,8.5v0c-0.2,0-0.3,0-0.5,0.1c-2.3,0.2-12.3,1.6-25.6,14.1
	c-1.5,1.3-3,2.7-4.6,4.2c1.3-9.6,2.4-24.9,2.4-24.9l3.4-3.2l28.3-0.7L134.2,134.7z M105.4,132.5c0,0,2.2-3,10.5-3.7
	c8.5-0.6,12.7,2.9,12.7,2.9L105.4,132.5z M130.4,131.3c-16.5-10.3-30.3,3.6-30.3,3.6s6.9-24.3-14.3-59.5
	C85.8,75.4,115,95.4,130.4,131.3z M85.8,73.5c9.3-0.4,13.6,2.9,13.6,2.9s-8.1,0.3-10.5,0C88.2,75.8,85.8,73.5,85.8,73.5z
	 M108.9,95.9c-7.3-9.9-19-18.6-19-18.6h10.3C100.2,77.3,108.6,89.7,108.9,95.9z M104.5,75.2c1.2,0,2.1,0.3,2.1,0.8
	c0,0.4-0.9,0.7-2.1,0.7c-1.2,0-2.1-0.3-2.1-0.7C102.4,75.6,103.4,75.2,104.5,75.2z M94.6,53c1.3,0,2,0.6,2,0.7c0,0.1-0.7,0.7-2,0.7
	c-1.3,0-2-0.6-2-0.7C92.7,53.6,93.3,53,94.6,53z M100.5,75.4c0,0-15.8-8.1-34.2,0.5c6-11.3,5.2-22.1,5.2-22.1l18.9,0.1
	C90.4,53.9,99,60.7,100.5,75.4z M70.1,58.5l-7.5-0.4c0,0,5.6-2.3,7.6-2.7C70.6,56.5,70.1,58.5,70.1,58.5z M71.2,53.1
	c0,0,1.3-2.6,9.4-2.6c8.1,0,9.9,2.4,9.9,2.4L71.2,53.1z M91,36.9c1,0,1.8,0.4,1.8,0.8c0,0.4-0.8,0.8-1.8,0.8c-1,0-1.8-0.4-1.8-0.8
	C89.1,37.3,89.9,36.9,91,36.9z M90.7,51.8C80.4,46.2,69.2,52,69.2,52s3.7-5.8,4.4-14.3C80.7,38,86.6,38,86.6,38S91.7,43,90.7,51.8z
	 M85.5,36.9l-5-0.3l0-3.3C80.9,33.6,85.5,36.9,85.5,36.9z M80.2,26c1.3,0,2.4,1.3,2.4,3c0,1.6-1.1,3-2.4,3c-1.3,0-2.4-1.3-2.4-3
	C77.9,27.3,78.9,26,80.2,26z M76.2,32.1c0,0-0.1,0.1-0.1,0.1c0-0.1,0-0.3-0.1-0.4C76.1,31.9,76.1,32,76.2,32.1z M79.3,33.4l-0.2,3.3
	h-4.3C74.9,36.7,78.8,33.7,79.3,33.4z M72.9,31.5c0.3,0,0.6,0.4,0.6,1s-0.3,1-0.6,1c-0.3,0-0.6-0.4-0.6-1S72.6,31.5,72.9,31.5z
	 M72.8,34.9c0,0,0.3,0.6,0.6,1.2c-0.7,0.5-0.7,0.7-0.7,0.7h-1.4L72.8,34.9z M68.6,36.7c0.5,0,0.9,0.1,1.2,0.2
	c0.4,0.1,0.7,0.2,0.7,0.4c0,0.3-0.7,0.5-1.5,0.5c-0.5,0-0.9-0.1-1.2-0.2c-0.4-0.1-0.6-0.2-0.6-0.4C67.1,36.9,67.8,36.7,68.6,36.7z
	 M70.3,38.7c0.7-0.4,1.8-0.1,1.8-0.1L72,41.7c0,0-4.8,0.2-4.9,0.1C67.1,41.8,69.7,39.6,70.3,38.7z M64.7,43.8c0,0,1.1-0.6,1.5-1
	c0.5-0.2,5.4-0.1,5.4-0.1s-2.4,8.7-3.9,9.1c-1.5,0.4-4.1,0.6-4.1,0.6S65.3,45.7,64.7,43.8z M60.9,43.8c-1.1,0-2.1-0.3-2.1-0.6
	s0.9-0.6,2.1-0.6c1.1,0,2.1,0.3,2.1,0.6C63,43.5,62.1,43.8,60.9,43.8z M63.5,53.3c0,0,5,0.2,6,1c-1.1,0.3-8,3.1-8,3.1L63.5,53.3z
	 M60.9,59.6c0,0,6.4-0.6,9.1,0c-0.2,6.4-5.1,15.9-5.1,15.9l-0.2,0.4c-0.7-0.3-1.8-0.5-3.1-0.5c-0.5,0-0.9,0-1.4,0.1l0-0.1
	C62.9,66.2,60.9,59.6,60.9,59.6z M61.6,76c1.3,0,2.4,0.3,2.4,0.6c0,0.3-1.1,0.6-2.4,0.6c-1.3,0-2.4-0.3-2.4-0.6
	C59.2,76.3,60.3,76,61.6,76z M56.8,60c-1.2,0-2.2-0.3-2.2-0.8c0-0.4,1-0.8,2.2-0.8c1.2,0,2.2,0.3,2.2,0.8C59,59.6,58,60,56.8,60z
	 M59.7,78l0.1-0.4c0.5,0.1,1.1,0.1,1.8,0.1c1.6,0,3-0.3,3.5-0.8l0.6,0.5c0.5,0.2,0.7,2.4,0.7,2.4s-1.1,0-2,0.1c-0.9,0.1-7,2.3-7,2.3
	S58.5,80.3,59.7,78z M57.2,83.7l10.2-0.4c0,0,0.5,8.3-5.2,18l-0.2,0.2c-1-0.3-2.3-0.5-3.6-0.5c-0.6,0-1.2,0-1.8,0.1l-0.1,0
	C61.6,91.8,57.2,83.7,57.2,83.7z M58.3,101.9c2.4,0,4.3,0.6,4.3,1.3c0,0.7-1.9,1.3-4.3,1.3c-2.4,0-4.3-0.6-4.3-1.3
	C53.9,102.5,55.9,101.9,58.3,101.9z M48.2,111.3c-1.7,0-3.2-0.4-3.2-0.8c0-0.4,1.4-0.8,3.2-0.8c1.7,0,3.2,0.4,3.2,0.8
	C51.4,110.9,50,111.3,48.2,111.3z M53.7,109.9c0,0,8.4,0.1,8.4,0.5c0,0.4-3.9,20.6-7.1,22.6h-0.5c-0.9-0.1-2-0.1-3.2,0
	c-1.3,0.1-2.4,0.4-3.3,0.8l-0.8,0.4C47.2,134.3,52.1,128.2,53.7,109.9z M43.9,129.2c0.4-0.8,4.4-0.2,4.4-0.2s-2.8,8.2-4.8,10.6
	C44.3,136.6,43.9,129.2,43.9,129.2z M57.1,142.4C54.3,177.7,43.8,195,43.8,195s8.9-25-1.1-52.9C42.7,142.1,45.4,140.6,57.1,142.4z
	 M39.8,129.9c-1.2,0-2.2-0.3-2.2-0.7c0-0.4,1-0.7,2.2-0.7c1.2,0,2.2,0.3,2.2,0.7C42.1,129.5,41.1,129.9,39.8,129.9z M38.2,143.6
	c-1.6,0-2.9-0.4-2.9-0.9c0-0.5,1.3-0.9,2.9-0.9c1.6,0,2.9,0.4,2.9,0.9C41.2,143.2,39.8,143.6,38.2,143.6z M42.7,145.4
	c0,0,4.3,16.6,2.9,23.1c-3.7,0.1-11,3.4-11,3.4S39.1,165.3,42.7,145.4z M45.7,170.5c-0.3,13.1-3.3,24.7-3.3,24.7s-8.5-19.4-8.7-21.9
	C33.7,173.3,43.3,169.9,45.7,170.5z M33.4,175.2c0,0,8,20.9,8.5,22.2c-2.6,3.5-3.6,7.4-3.6,7.4l-1.1-0.1L33.4,175.2z M109.9,207
	c0,0-0.3,3.2-4.4,0.2c-5.4-2.5-7.9,0.9-7.9,0.9s-2.7,3-1.5,5.7c2.1-1.9,4-1.9,4-1.9s3.4-0.3,3.2,2.5c-0.3,3.4-6.4,1.9-6.4,1.9
	s-4.9-2.7-8.3,2.5c-0.8,2.5,0.9,3.6,0.9,3.6s1.5-2.8,3.7-2.1c1.8,1,1.5,2.1,1.5,2.1s-0.1,3.1-8.8,2c0,0-2.9-1.2-3.6,0
	c-0.8-0.3-0.9-0.3-2.4-1.1c-3.8,4.1-9.1,1.1-9.1,1.1s13.6-5.9,34.4-22.8C108.9,202.8,109.9,207,109.9,207z M107.3,198.5
	c-3.8,0.7-3.6,2-3.6,2s1.1-0.2,1.2,0.2c0.1,0.5-32.6,25.4-41.5,25.4c0,0-5.8,1-11.3-1.9c-4.9,4.7-12.1,1.6-12.1,1.6s-6-4.5-5.6-17.3
	c0,0,11.6,0.7,22.1-1.5c4.4-0.9,16.8-3.8,36.4-24c11.8-10.5,23.4-21.3,28.4-22.5c0,0-7.6,6.5-9.1,9c5.9-6,8.7-6.9,8.7-6.9l0.2,2.1
	c0,0-5,2-7.5,5.7c3.5-3,7.7-4.6,7.7-4.6l0.3,1.6c0,0-6.7,3.7-8,5.4c5.4-3.4,8.4-4.5,8.4-4.5s0.8,2.2,1.3,3.4
	c-1.8,0.7-4.7,3.4-4.7,3.4l5-2.1c0,0,4.1,6.1,4.1,9.2c-5.7-6.4-11.6-8.6-16.5-5.5c-3.8,2.4-4,5.6-3.7,7.7c0.1,0.6,0.6,2.3,1,2.8
	c1.9,2.4,7.6,5.6,10.9,1c1.2-3.1-1.6-4.8-1.6-4.8s5.1,2.8,5.8,6.4C123.8,189.6,116.2,190.5,107.3,198.5z M121.3,216.2
	c-5.4-2.3-4.6-8.6-4.6-8.6s-0.4-9.1-7.5-9.3c0,0,5.6-5,13.4-7.5c1.8-0.3,2.1,0.9,2.1,0.9s2,9.2,1.3,13.3
	C126.1,205.1,123.6,213,121.3,216.2z M137.4,208.7c-1.2,3.4-2.6,2.7-2.6,2.7s-1.8-0.8,1.3-6.4c-9,0.1-6.4,5.6-7.2,7.9
	c-0.8,2.3-4.7,4.1-4.7,4.1s-0.5-0.5-1.7-0.8c0.3-0.1,11.1-23.1,11.1-23.1s6.7,3.8,6.5,11.5C139.2,206.3,138.2,207.7,137.4,208.7z
	 M142.6,202.2c0,0-1.2,0.7-1.7,1.8c-0.7-4.4-2.8-10.2-6.8-11.6c0.1-2.4,1.8-4.5,1.8-4.5s-0.2,5.1,4.5,3.4c0.3-0.1,1.6-1.3,1.9-1.7
	c5.8-9.1-0.9-11.1-0.9-11.1s-3.6-1.3-6.5,2.7c1.4-3.9,3.5-10.4,3.5-10.4l7.7,5.8l-7.5-6.8l0.3-3.1l8.2,6.3l-8.1-7.5l-0.4-2.9l7.2,5
	l-7.5-6.4l-1.3-3l7,4.5l-8-7c0,0,4.4-0.5,4.4-4.4c1.1,0.9,2,2.3,2,2.3s-1.2,4.8,3.8,6.2C146.1,159.5,153.3,179.2,142.6,202.2z"/>
</svg>
