<?xml version="1.0" encoding="utf-8"?>
<!-- Generator: Adobe Illustrator 24.1.2, SVG Export Plug-In . SVG Version: 6.00 Build 0)  -->
<svg version="1.1" id="Layer_1" xmlns="http://www.w3.org/2000/svg" xmlns:xlink="http://www.w3.org/1999/xlink" x="0px" y="0px"
	 viewBox="0 0 193.7 223" style="enable-background:new 0 0 193.7 223;" xml:space="preserve">
<style type="text/css">
	.st0{fill:#644099;}
	.st1{fill:#C574E8;}
	.st2{fill:#C574E8;stroke:#C574E8;stroke-miterlimit:10;}
	.st3{fill:none;stroke:#C574E8;stroke-miterlimit:10;}
	.st4{fill:none;stroke:#C574E8;stroke-width:2;stroke-miterlimit:10;}
</style>
<path class="st0" d="M-124.4-37c1.3,0,1.3-2,0-2S-125.7-37-124.4-37L-124.4-37z"/>
<g>
	<path class="st1" d="M34.4,7.6h19.8c14.4,0,28.9,0,43.3,0s28.9,0,43.3,0c6.5,0,13.1,0,19.7,0c10.7,0.1,20.7,6.2,25.4,15.9
		c2.2,4.4,2.8,9.2,2.8,14.1V63c0,14.5,0,29,0,43.5v76.8c0,1.8,0,3.6,0,5.4c0,9.8-5.2,19.1-13.6,24.2c-5,3-10.4,4.1-16.1,4.1H63.3
		c-9.2,0-18.4,0-27.6,0c-6.1,0-11.9-1.3-17.1-4.8c-7.8-5.2-12.4-14.1-12.5-23.5c0-6.2,0-12.5,0-18.7c0-13.5,0-27,0-40.6V82.8
		c0-12.1,0-24.2,0-36.3v-9.2c0-5.2,0.8-10.1,3.3-14.8C14.3,13.4,24,7.7,34.4,7.6c1.3,0,1.3-2,0-2C23.7,5.7,13.6,11.4,8.2,20.8
		c-2.9,5-4,10.6-4,16.3v146.3c0,1.8,0,3.5,0,5.3c0,9.9,4.9,19.1,12.9,24.8c5.4,3.8,11.8,5.4,18.3,5.4h123.7c6.1,0,12-1.3,17.2-4.5
		c8.8-5.5,14.3-15.3,14.3-25.7c0-5.9,0-11.7,0-17.6c0-13.5,0-27,0-40.5s0-31.4,0-47.2c0-12.2,0-24.5,0-36.7v-9.4
		c0-5.3-0.8-10.4-3.2-15.1c-4.8-9.5-14.5-15.8-25-16.5c-2.3-0.2-4.6-0.1-6.9-0.1H121c-15.6,0-31.1,0-46.7,0H34.4
		C33.1,5.6,33.1,7.6,34.4,7.6L34.4,7.6z"/>
	<path class="st1" d="M97.9,153.7c-8-9.3-15.6-18.9-22.8-28.8s-14-19.9-20.4-30.2c-3.6-5.8-7-11.6-10.4-17.5
		c-0.3-0.6-1.2-0.1-0.9,0.5c6,10.6,12.4,21.1,19.2,31.2s13.9,19.9,21.4,29.5c4.3,5.4,8.7,10.8,13.2,16
		C97.6,154.9,98.3,154.2,97.9,153.7L97.9,153.7L97.9,153.7z"/>
	<path class="st1" d="M44.4,77.3c6.6-4.7,13.5-9.2,20.4-13.5s14-8.3,21.3-12c2-1,4-2.1,6-3.1c0.9-0.4,1.8-0.9,2.6-1.4
		c0.9-0.5,2-0.9,3-1.4c0.6-0.3,0.1-1.1-0.5-0.9c-0.9,0.4-1.7,0.7-2.6,1.2s-1.5,1-2.4,1.4c-1.8,0.8-3.5,1.7-5.2,2.6
		c-3.7,1.9-7.3,3.8-10.9,5.8c-7.1,4-14.1,8.2-20.9,12.6c-3.9,2.5-7.7,5.1-11.5,7.8C43.4,76.8,43.9,77.7,44.4,77.3L44.4,77.3
		L44.4,77.3z"/>
	<g>
		<g>
			<polygon class="st2" points="158,80 97.6,190.6 36.6,80 97.2,168.1 			"/>
			<path class="st2" d="M158,80l-60.8,88.1C117.6,138.6,137.4,108.7,158,80z"/>
			<path class="st2" d="M142.2,72.6c2.2,1.6,4.4,3.2,6.6,4.9c-14.6,27.1-31.8,52.8-51.3,76.6V46.4l0.1-0.9c0.9,0.4,1.8,0.9,2.7,1.4
				c0.6,0.3,1.2,0.7,1.8,1.1c0.5,0.4,1.1,0.6,1.7,0.9c1.2,0.6,2.4,1.3,3.6,1.9c2.4,1.3,4.8,2.7,7.1,4c2.4,1.4,4.7,2.8,7.1,4.2
				c2.3,1.4,4.7,2.9,7,4.4c2.3,1.5,4.6,3,6.9,4.5C137.7,69.4,140,71,142.2,72.6L142.2,72.6z"/>
			<path class="st2" d="M83.8,148.4c4.5,6.6,8.9,13.2,13.4,19.8L36.6,80C52.7,102.5,68.3,125.5,83.8,148.4L83.8,148.4z"/>
		</g>
		<g>
			<path class="st2" d="M97.6,154.1c19.5-23.8,36.7-49.5,51.3-76.6"/>
			<path class="st2" d="M148.8,77.4c-2.2-1.6-4.4-3.3-6.6-4.9c-2.2-1.6-4.5-3.1-6.7-4.7c-2.3-1.5-4.5-3.1-6.9-4.5
				c-2.3-1.5-4.6-2.9-7-4.4c-2.3-1.4-4.7-2.8-7.1-4.2c-2.4-1.4-4.8-2.7-7.1-4c-1.2-0.7-2.4-1.3-3.6-1.9c-0.5-0.3-1.2-0.6-1.7-0.9
				c-0.5-0.4-1.2-0.7-1.8-1.1c-0.9-0.5-1.8-0.9-2.7-1.4"/>
			<path class="st2" d="M97.6,154.1V46.4"/>
			<path class="st2" d="M36.6,80c16.1,22.5,31.6,45.4,47.2,68.3c4.5,6.6,8.9,13.2,13.4,19.8"/>
			<path class="st2" d="M158,80c-20.6,28.7-40.5,58.6-60.8,88.1"/>
			<line class="st2" x1="36.6" y1="80" x2="97.6" y2="190.6"/>
			<line class="st2" x1="97.6" y1="190.6" x2="158" y2="80"/>
		</g>
	</g>
	<path class="st1" d="M163.3,202.9h-17.4c-6.1,0-12.1,0-18.2,0H45.8c-3.6,0-7.3,0-10.9,0c-0.8,0-1.6,0-2.5,0c-2.6,0-5.1-0.7-7.3-2.3
		c-3-2.2-4.7-5.8-4.8-9.5c0-0.5,0-1.1,0-1.6v-8.6c0-4.8,0-9.7,0-14.5v-18.8c0-7.1,0-14.3,0-21.4s0-14.9,0-22.4c0-7.2,0-14.5,0-21.7
		c0-6.5,0-13.1,0-19.6s0-10.5,0-15.7V36.5c0-2.2-0.1-4.5,0.5-6.6c1.5-4.9,6.1-8.2,11.2-8.3c0.4,0,0.9,0,1.3,0h9.1
		c5.3,0,10.6,0,15.9,0c6.7,0,13.4,0,20.1,0c7.4,0,14.8,0,22.2,0s14.6,0,21.9,0c6.4,0,12.8,0,19.2,0c4.8,0,9.5,0,14.3,0
		c2.3,0,4.6,0,6.9,0c6.6,0,12,5.1,12,11.8c0,1.8,0,3.5,0,5.3v151.9c0,1.3-0.1,2.6-0.5,3.9C173,199.4,168.4,202.8,163.3,202.9
		c-0.6,0-0.6,1,0,1c5,0,9.6-3,11.6-7.5c0.8-1.8,1.1-3.7,1.1-5.6V67.2c0-5.7,0-11.3,0-17V38.4c0-1.7,0-3.3,0-5
		c0-7.1-5.8-12.7-12.9-12.8c-2.2,0-4.4,0-6.6,0c-4.7,0-9.5,0-14.2,0c-6.4,0-12.8,0-19.3,0c-7.4,0-14.8,0-22.2,0s-15,0-22.4,0H33.2
		c-0.6,0-1.1,0-1.7,0c-4.9,0.2-9.4,3.3-11.2,7.9c-1,2.5-1,5.1-1,7.7v10.1c0,5.2,0,10.4,0,15.7s0,13.2,0,19.7c0,7.3,0,14.6,0,21.9
		s0,15.1,0,22.7v21.6c0,6.3,0,12.6,0,18.9v23c0,0.5,0,1,0,1.5c0,3.9,1.8,7.7,4.9,10.1c2.3,1.8,5.1,2.6,8,2.7c0.8,0,1.5,0,2.3,0
		h111.6c4.2,0,8.4,0,12.6,0h4.5C163.9,203.9,163.9,202.9,163.3,202.9L163.3,202.9z"/>
	<path class="st3" d="M45.7,33.5c-0.6-1-13.5,1.4-14.4,9.2c-0.7,6.5,7.4,12,8.5,11.2c0.9-0.6-3.1-5-2-10.6
		C39.1,37,46.1,34.3,45.7,33.5L45.7,33.5z"/>
	<path class="st1" d="M151.6,40.1c1.4-0.1,2.7,0,4.1,0.1c0.6,0,1.3,0.1,1.9,0.1s1.3,0,2,0.1c1.2,0.2,2.4,0.6,3.6,0.9l4,1.1l-0.1-0.5
		l-5.5,4.1c-0.2,0.2-0.5,0.3-0.7,0.5s-0.1,0.4-0.1,0.7l0.2,3.9l0.2,3.3l0.4-0.2l-5.8-3.9c-0.2-0.1-0.5-0.4-0.7-0.5s-0.5,0.1-0.7,0.2
		l-3.7,1.4l-3.1,1.2l0.3,0.3l2-6.6c0.1-0.2,0.2-0.5,0.2-0.8c0-0.3-0.2-0.5-0.4-0.7l-2.5-3.1l-2.1-2.5l-0.2,0.4l6.9-0.2
		c0.3,0,0.6,0.1,0.9,0c0.2-0.1,0.3-0.3,0.5-0.5l2.2-3.3l1.8-2.8l-0.5-0.1l2.6,7.2c0.1,0.3,0.6,0.2,0.5-0.1l-2.6-7.2
		c-0.1-0.2-0.3-0.3-0.5-0.1l-4.3,6.4l0.2-0.1l-7.8,0.2c-0.2,0-0.3,0.3-0.2,0.4l4.9,6l-0.1-0.2l-2.2,7.4c0,0.2,0.1,0.4,0.3,0.3
		l6.4-2.4c0.3-0.1,0.7-0.2,0.9-0.3c-0.1,0.1-0.2-0.1-0.1,0c0.1,0.1,0.3,0.2,0.4,0.3l3.3,2.2l2.6,1.8c0.1,0.1,0.4,0,0.4-0.2l-0.4-6.7
		c0-0.1,0-0.9,0-0.9c0.2,0-0.3,0.3,0,0.1c0.1-0.1,0.3-0.2,0.4-0.3l3.2-2.4l2.5-1.9c0.2-0.1,0.2-0.4-0.1-0.5l-4-1.1
		c-1.3-0.3-2.5-0.8-3.8-1c-1.2-0.2-2.4-0.1-3.6-0.2c-1.5-0.1-2.9-0.2-4.4-0.1C151.3,39.6,151.3,40.1,151.6,40.1L151.6,40.1
		L151.6,40.1z"/>
	<path class="st1" d="M148.9,44.7c0.5,1.1,1.4,1.9,2.3,2.7c0.5,0.4,1,0.8,1.5,1.2c0.5,0.4,1,0.9,1.6,1.2c0.5,0.2,0.9-0.1,1.3-0.3
		c0.6-0.3,1.3-0.7,1.9-1c1.3-0.7,2.6-1.5,3.9-2.2c0.3-0.2,0-0.6-0.3-0.4c-1,0.6-2.1,1.3-3.2,1.8c-0.5,0.3-1.1,0.6-1.6,0.9
		c-0.5,0.3-1.4,1-2,0.8c-0.2-0.1-0.5-0.4-0.7-0.5l-0.8-0.6c-0.5-0.4-1-0.8-1.5-1.1c-0.8-0.7-1.6-1.4-2-2.4
		C149.2,44.1,148.7,44.4,148.9,44.7L148.9,44.7L148.9,44.7z"/>
	<polygon class="st3" points="30.1,188.9 48.1,188.9 39.1,169.8 	"/>
	<polygon class="st3" points="147.2,174.3 165,174.3 156.1,193.1 	"/>
	<path class="st1" d="M150.2,45.4c0.4-2,1.7-3.6,2.3-5.5c0.2-0.6-0.8-0.9-1-0.3c-0.6,1.9-1.9,3.5-2.3,5.5
		C149.1,45.8,150.1,46.1,150.2,45.4L150.2,45.4z"/>
	<path class="st1" d="M151.8,40.1c2.5,0.2,5,0.2,7.5,0.1c0.6,0,0.6-1,0-1c-2.5,0.1-5,0-7.5-0.1C151.1,39,151.1,40,151.8,40.1
		L151.8,40.1z"/>
	<path class="st1" d="M149.4,45.4l3,2.7l1.5,1.3c0.4,0.3,0.8,0.8,1.3,0.7c0.5-0.1,0.9-0.6,1.3-0.9c0.5-0.3,1-0.7,1.5-1
		c1.1-0.6,2.2-1.2,3.3-1.7c0.6-0.3,0.1-1.1-0.5-0.9c-2,0.9-3.9,2-5.7,3.3c0,0-0.2,0.1-0.2,0.1c0.1,0-0.2-0.2-0.2-0.2l-0.7-0.6
		l-1.3-1.2l-2.7-2.5C149.6,44.3,148.9,45,149.4,45.4L149.4,45.4L149.4,45.4z"/>
	<path class="st1" d="M161.4,46.4c0-1.1-0.3-2.1-0.6-3.1l-1-3.2c-0.2-0.6-1.1-0.4-1,0.3l0.9,3.1c0.3,1,0.6,1.9,0.6,3
		C160.4,47,161.4,47,161.4,46.4L161.4,46.4L161.4,46.4z"/>
	<path class="st1" d="M159.8,39.8c-0.8-2.1-1.6-4.2-2.3-6.3c-0.2-0.6-1.2-0.3-1,0.3c0.7,2.1,1.4,4.2,2.3,6.3
		c0.1,0.3,0.3,0.4,0.6,0.3C159.7,40.4,159.9,40.1,159.8,39.8L159.8,39.8L159.8,39.8z"/>
	<path class="st1" d="M152.5,39.8l4.9-6c0.2-0.2,0.2-0.5,0-0.7c-0.2-0.2-0.5-0.2-0.7,0l-4.9,6c-0.2,0.2-0.2,0.5,0,0.7
		C151.9,39.9,152.3,40,152.5,39.8L152.5,39.8z"/>
	<path class="st1" d="M159.6,40.3c2.3,0.9,4.6,1.7,7,2.4c0.6,0.2,0.9-0.8,0.3-1c-2.4-0.7-4.7-1.4-7-2.4
		C159.2,39.1,159,40.1,159.6,40.3L159.6,40.3z"/>
	<path class="st1" d="M161.3,47c1.8-1.5,3.6-2.9,5.5-4.2c0.5-0.4,0-1.2-0.5-0.9c-2,1.3-3.9,2.8-5.7,4.3c-0.2,0.2-0.2,0.5,0,0.7
		C160.8,47.2,161.1,47.2,161.3,47L161.3,47L161.3,47z"/>
	<path class="st1" d="M160.4,46.7c0.3,2.4,0.5,4.8,0.5,7.2c0,0.6,1,0.7,1,0c0-2.5-0.2-5-0.5-7.4c0-0.3-0.4-0.4-0.6-0.3
		C160.5,46.2,160.4,46.4,160.4,46.7L160.4,46.7L160.4,46.7z"/>
	<path class="st1" d="M152.1,39.1c-2.1,0.2-4.3,0.2-6.4,0.1c-0.6,0-0.6,1,0,1c2.1,0.1,4.3,0.1,6.4-0.1C152.7,40,152.7,39,152.1,39.1
		L152.1,39.1z"/>
	<path class="st1" d="M150.4,45c-1.6-1.6-3-3.4-4.2-5.3c-0.3-0.6-1.2-0.1-0.9,0.5c1.2,2,2.7,3.9,4.4,5.5
		C150.1,46.1,150.8,45.4,150.4,45L150.4,45L150.4,45z"/>
	<path class="st1" d="M155,49.4c-2.4,1-4.7,2-7.2,2.8l0.6,0.6c0.5-2.6,1.2-5.1,2.1-7.6c0.2-0.6-0.8-0.9-1-0.3
		c-0.9,2.5-1.5,5-2.1,7.6c-0.1,0.3,0.2,0.7,0.6,0.6c2.5-0.8,5-1.8,7.4-2.9C156.1,50,155.6,49.1,155,49.4L155,49.4L155,49.4z"/>
	<path class="st1" d="M155,50.4c0.5,0.3,1,0.7,1.4,1.1c0.5,0.4,1,0.9,1.5,1.3c1,0.8,2.1,1.5,3.3,2.1c0.6,0.3,1.1-0.6,0.5-0.9
		c-1.2-0.6-2.3-1.2-3.3-2c-0.5-0.4-1-0.8-1.4-1.2s-0.9-0.9-1.5-1.1c-0.3-0.1-0.5-0.1-0.7,0.2C154.7,49.9,154.8,50.3,155,50.4
		L155,50.4L155,50.4z"/>
	<circle class="st4" cx="39.3" cy="42.7" r="15.3"/>
	<circle class="st4" cx="155.5" cy="44.1" r="15.3"/>
	<circle class="st4" cx="39.1" cy="181.1" r="15.3"/>
	<circle class="st4" cx="156.2" cy="181.7" r="15.3"/>
	<path class="st1" d="M78.3,43.4c-0.4-1-0.7-2.2-0.4-3.3c0.3-0.9,1-1.6,2-1.8c2-0.5,3.7,1,4.3,2.8s0.1,3.7-0.9,5.3
		c-1.2,1.7-3,2.7-5.1,3c-4.4,0.6-8.3-2-11-5.2c-2.9-3.4-4.5-7.7-7.3-11.2c-2.9-3.7-6.4-6.8-10.5-9.2v0.9c3.3-1.6,7.4,0,10.6,1.3
		c3.5,1.4,6.8,3.2,9.8,5.4c0.4,0.3,1-0.3,0.7-0.7c-1.1-1.6-2.5-3-4.1-4.1v0.9c1.5-1.1,3.6,0.6,4.9,1.4c1.7,1.1,3.3,2.3,4.9,3.7
		c0.4,0.4,1-0.1,0.8-0.6l-1.6-3.3l-0.6,0.7c3.3,1.2,5.8,4.3,6.2,7.8c0.1,0.6,1.1,0.6,1,0c-0.5-4-3.2-7.4-7-8.8
		c-0.4-0.2-0.7,0.4-0.6,0.7l1.6,3.3l0.8-0.6c-1.8-1.5-3.7-2.9-5.7-4.2c-1.5-0.9-3.6-2.3-5.3-1c-0.3,0.2-0.3,0.6,0,0.9
		c1.5,1,2.7,2.3,3.8,3.8l0.7-0.7c-3.2-2.3-6.8-4.2-10.5-5.7c-3.4-1.3-7.5-2.7-11-1c-0.4,0.2-0.3,0.7,0,0.9c4.2,2.4,7.8,5.7,10.7,9.6
		s4.7,8.8,8.4,12.3c3.3,3.2,8.2,5.1,12.6,3.2c3.7-1.6,6.2-6.4,4-10.1c-1.1-1.9-3.4-3-5.5-2.1c-2.5,1-2.6,3.8-1.7,6.1
		C77.6,44.3,78.5,44,78.3,43.4L78.3,43.4L78.3,43.4z"/>
	<path class="st1" d="M78.1,43c-0.6-1.6-0.7-3.7,1.3-4.1c1.7-0.4,3.1,0.9,3.5,2.4c1,3.4-2.1,6.4-5.3,6.7c-3.7,0.4-6.9-1.8-9-4.6
		c-2.3-2.9-3.7-6.4-6-9.3c-2.3-2.9-5.4-5.6-8.7-7.6v0.9c2.8-1.3,6.2,0,8.9,1.1c2.9,1.2,5.7,2.7,8.2,4.5c0.4,0.3,1-0.3,0.7-0.7
		c-1-1.4-2.1-2.5-3.5-3.5v0.9c1.2-0.9,3,0.5,4,1.2c1.4,0.9,2.8,1.9,4.1,3c0.4,0.4,1-0.1,0.8-0.6l-1.4-2.8l-0.6,0.7
		c2.8,1,4.8,3.7,5.2,6.6c0.1,0.6,1,0.4,1-0.3c-0.4-3.3-2.8-6.2-5.9-7.3c-0.4-0.2-0.7,0.4-0.6,0.7l1.4,2.8l0.8-0.6
		c-1.5-1.3-3.1-2.5-4.8-3.6c-1.3-0.8-3-1.9-4.5-0.8c-0.3,0.2-0.3,0.6,0,0.9c1.2,0.9,2.3,1.9,3.1,3.1l0.7-0.7c-2.7-2-5.7-3.6-8.8-4.8
		c-2.9-1.1-6.3-2.2-9.2-0.8c-0.4,0.2-0.3,0.7,0,0.9c3.5,2.1,6.6,4.8,9,8.1c2.4,3.3,4,7.5,7.1,10.4c2.9,2.6,7.1,4.1,10.8,2.4
		c3.1-1.4,5-5.6,3-8.6c-1-1.6-3-2.4-4.7-1.6c-2.1,0.9-2.1,3.3-1.4,5.2C77.4,43.8,78.4,43.5,78.1,43L78.1,43L78.1,43z"/>
	<path class="st1" d="M51.1,25.2l2.5,1.4l0.4-0.9c-1.2-0.3-2.4-0.8-3.5-1.4l-0.3,0.9c1.1,0.1,2.1,0.3,3.1,0.8c0.5,0.3,1-0.3,0.6-0.8
		c-0.4-0.6-1-1-1.6-1.3c-0.4-0.2-1,0.2-0.7,0.7c0.6,0.9,1.4,1.5,2.4,1.8c0.4,0.2,0.8-0.4,0.6-0.7c-0.4-0.8-1-1.5-1.8-2l-0.4,0.9
		c1,0.3,1.9,0.8,2.7,1.4l0.2-0.8c-0.3,0.1-0.5,0.1-0.7-0.1c-0.3-0.2-0.8,0.1-0.8,0.4c0.1,0.9,1.3,1.3,1.8,0.4c0.6-1-0.5-1.8-1.3-2.1
		l-0.3,1c1.3,0.5,2.5,0.8,3.9,1.1l0.1-1l-2.7,0.2l0.3,0.9c1.3-0.6,2.9-0.4,4,0.4l0.5-0.8l-2.4-0.4l-0.1,1c2,0.3,3.8,1.2,5.6,2.1
		l5.8,2.9c0.5,0.2,0.9-0.2,0.7-0.7c-0.6-1.3-1.4-2.4-2.2-3.5L67,27.9c0.3,0,0.6,0,0.9,0.1c0.1,0,0.6,0.2,0.6,0.3l0-0.4l0,0.1
		l0.3-0.2H69l0.4,0.4l0-0.1l-0.6,0.6c1,0.3,1.9,0.6,2.8,1.2c0.6,0.3,1-0.5,0.5-0.9c-0.8-0.6-1.7-1.1-2.6-1.5
		c-0.6-0.3-1.1,0.5-0.5,0.9l4.9,3.1c0.5,0.3,1-0.4,0.6-0.8c-1.2-1.1-2.6-1.9-4.1-2.5c-0.5-0.2-0.9,0.7-0.4,0.9
		c1.6,0.7,3,1.7,4.4,2.7c0.5,0.4,1,0.6,1.6,0.2c0.6-0.4,0.6-1.1,0.6-1.8l-0.8,0.4c1.8,1,3.3,2.4,4.4,4.1c0.4,0.5,1.2,0,0.9-0.5
		c-1.2-1.8-2.8-3.4-4.8-4.5c-0.3-0.2-0.8,0.1-0.8,0.4c0,0.2,0.1,0.7,0,0.9c-0.3,0.2-0.7-0.3-0.9-0.4c-0.4-0.3-0.8-0.6-1.2-0.8
		c-0.9-0.6-1.9-1.2-2.9-1.6L70,29.1c1.4,0.5,2.6,1.2,3.7,2.2l0.6-0.8l-4.9-3.1l-0.5,0.9c0.9,0.4,1.8,0.9,2.6,1.5l0.5-0.9
		c-0.9-0.6-1.9-1-3-1.3c-0.3-0.1-0.8,0.2-0.6,0.6c0.3,0.8,1.4,0.5,1.2-0.3c-0.2-0.9-1.8-1.1-2.5-1.1c-0.5,0-0.6,0.5-0.4,0.9
		c0.8,1,1.5,2.1,2.1,3.3l0.7-0.7c-2.1-1-4.1-2.1-6.2-3.1c-1.8-0.9-3.6-1.8-5.6-2c-0.6-0.1-0.7,0.9-0.1,1l2.4,0.4
		c0.4,0.1,0.9-0.5,0.5-0.8c-1.5-1.2-3.5-1.4-5.3-0.6c-0.4,0.2-0.2,1,0.3,0.9l2.7-0.2c0.5,0,0.7-0.9,0.1-1c-1.3-0.3-2.6-0.6-3.9-1.1
		c-0.6-0.2-0.9,0.7-0.3,1c0.3,0.1,0.8,0.3,0.8,0.7l-0.8,0.4c0.4,0.3,1,0.4,1.5,0.2c0.3-0.1,0.5-0.6,0.2-0.8c-1-0.8-2-1.3-3.1-1.7
		c-0.6-0.2-0.9,0.6-0.4,0.9c0.6,0.4,1.1,0.9,1.5,1.6l0.6-0.7c-0.7-0.3-1.4-0.8-1.8-1.4l-0.7,0.7c0.6,0.3,1,0.6,1.4,1.1l0.6-0.8
		c-1.1-0.5-2.3-0.8-3.6-0.9c-0.5,0-0.7,0.7-0.3,0.9c1.1,0.7,2.4,1.2,3.7,1.5c0.5,0.1,0.9-0.6,0.4-0.9l-2.5-1.4
		C51,23.9,50.5,24.8,51.1,25.2L51.1,25.2L51.1,25.2z"/>
	<path class="st1" d="M117.6,44c0.8-2,0.9-4.5-1.1-5.8c-1.7-1.1-3.8-0.7-5.2,0.6c-3.3,3.1-1.6,8.2,1.7,10.5
		c3.9,2.7,9.2,1.4,12.7-1.3c4-3.1,5.9-7.8,8.6-12c3-4.5,7-8.3,11.7-11c0.3-0.2,0.3-0.7,0-0.9c-3.5-1.7-7.6-0.3-11,1
		c-3.7,1.4-7.3,3.3-10.5,5.7l0.7,0.7c1-1.4,2.3-2.7,3.8-3.8c0.2-0.2,0.4-0.6,0.1-0.8c-1.7-1.3-3.7-0.1-5.3,0.9c-2,1.3-4,2.7-5.8,4.3
		l0.8,0.6l1.6-3.3c0.2-0.3-0.1-0.9-0.6-0.7c-3.8,1.4-6.5,4.8-7,8.8c-0.1,0.6,0.9,0.6,1,0c0.5-3.5,2.9-6.6,6.2-7.8l-0.6-0.7l-1.6,3.3
		c-0.3,0.5,0.4,1,0.8,0.6c1.5-1.3,3.1-2.5,4.8-3.6c1.1-0.7,3.5-2.6,4.9-1.6l0.1-0.8c-1.6,1.1-3,2.5-4.1,4.1c-0.3,0.4,0.3,1,0.7,0.7
		c3-2.2,6.3-4,9.8-5.4c3.2-1.3,7.3-2.9,10.6-1.3v-0.9c-3.6,2.1-6.9,4.8-9.6,8c-1.4,1.6-2.5,3.3-3.6,5.2c-1.2,2-2.3,4.1-3.6,5.9
		c-2.4,3.4-6,6.4-10.3,6.5c-2.1,0.1-4.2-0.5-5.7-2c-1.4-1.3-2.3-3.1-2.2-5c0.1-2.1,1.6-4.3,3.9-4.3c1,0,2,0.5,2.4,1.4
		c0.6,1.2,0.3,2.6-0.2,3.8C116.4,44.3,117.4,44.6,117.6,44L117.6,44L117.6,44z"/>
	<path class="st1" d="M117.8,43.5c0.6-1.7,0.8-3.8-0.9-4.9c-1.4-0.9-3.2-0.7-4.4,0.3c-2.9,2.4-1.7,6.8,1,8.9
		c3.2,2.5,7.8,1.6,10.9-0.8c3.4-2.6,5.1-6.5,7.3-10c2.5-3.9,5.9-7.1,9.9-9.4c0.3-0.2,0.3-0.7,0-0.9c-3-1.4-6.4-0.3-9.2,0.8
		c-3.1,1.2-6.1,2.8-8.9,4.8l0.7,0.7c0.9-1.2,1.9-2.3,3.1-3.1c0.3-0.2,0.3-0.6,0-0.9c-1.4-1.1-3.2,0.1-4.5,0.8
		c-1.7,1.1-3.3,2.3-4.8,3.6l0.8,0.6l1.4-2.8c0.2-0.3-0.1-0.9-0.6-0.7c-3.2,1.2-5.5,4.1-5.9,7.4c-0.1,0.6,0.9,0.6,1,0
		c0.4-2.9,2.4-5.5,5.2-6.5l-0.6-0.7l-1.4,2.8c-0.3,0.5,0.4,1,0.8,0.6c1.3-1.1,2.6-2.1,4.1-3c1-0.7,2.8-2.1,4-1.2v-0.9
		c-1.4,1-2.5,2.1-3.5,3.5c-0.3,0.4,0.3,1,0.7,0.7c2.5-1.8,5.3-3.4,8.2-4.5c2.7-1.1,6.1-2.4,8.9-1.1v-0.9c-3,1.7-5.7,4-7.9,6.6
		c-1.1,1.3-2.1,2.8-3,4.3c-1,1.7-1.9,3.4-3,4.9c-2,2.9-4.9,5.4-8.5,5.7c-1.7,0.1-3.5-0.3-4.9-1.5c-1.2-1-2-2.5-2-4.1
		c0-1.7,1.2-3.7,3.1-3.7c0.8,0,1.7,0.4,2.1,1.1c0.5,1,0.2,2.2-0.1,3.1C116.6,43.9,117.5,44.1,117.8,43.5L117.8,43.5L117.8,43.5z"/>
	<path class="st1" d="M143.4,24.6l-2.5,1.4c-0.5,0.3-0.2,1,0.4,0.9c1.3-0.3,2.6-0.8,3.7-1.5c0.4-0.2,0.3-1-0.3-0.9
		c-1.3,0.1-2.5,0.4-3.6,0.9l0.6,0.8c0.4-0.5,0.9-0.9,1.4-1.1l-0.7-0.7c-0.5,0.6-1.1,1.1-1.8,1.4l0.6,0.7c0.4-0.7,0.8-1.2,1.5-1.6
		c0.5-0.3,0.2-1.1-0.4-0.9c-1.1,0.4-2.2,1-3.1,1.7c-0.3,0.3-0.1,0.7,0.2,0.8c0.5,0.2,1,0.1,1.5-0.2l-0.8-0.4c0-0.4,0.5-0.6,0.8-0.7
		c0.6-0.2,0.4-1.2-0.3-1c-1.3,0.5-2.5,0.8-3.9,1.1c-0.6,0.1-0.4,0.9,0.1,1l2.7,0.2c0.5,0,0.7-0.7,0.3-0.9c-1.7-0.8-3.7-0.6-5.1,0.5
		c-0.4,0.3-0.2,1,0.4,0.9l2.4-0.4c0.5-0.1,0.4-1.1-0.1-1c-2,0.3-3.8,1.1-5.6,2c-2.1,1-4.1,2.1-6.2,3.1l0.7,0.7
		c0.6-1.2,1.3-2.3,2.1-3.3c0.3-0.3,0.1-0.8-0.4-0.8c-0.8,0-2.3,0.2-2.5,1.1c-0.2,0.8,0.9,1.1,1.2,0.3c0.1-0.4-0.3-0.7-0.6-0.6
		c-1.1,0.3-2.1,0.7-3,1.3l0.5,0.9c0.8-0.6,1.7-1.1,2.6-1.5l-0.5-0.9l-4.9,3.1l0.6,0.8c1.1-1,2.3-1.7,3.7-2.2l-0.4-0.9
		c-1,0.5-2,1-2.9,1.6c-0.4,0.3-0.9,0.6-1.3,0.9c-0.2,0.1-0.6,0.6-0.8,0.4c-0.2-0.2-0.1-0.7,0-0.9c0-0.4-0.5-0.6-0.8-0.4
		c-1.9,1.1-3.5,2.6-4.8,4.5c-0.4,0.5,0.5,1,0.9,0.5c1.1-1.7,2.6-3.1,4.4-4.1l-0.8-0.4c-0.1,0.6,0,1.3,0.5,1.8
		c0.6,0.4,1.1,0.2,1.6-0.2c1.4-1.1,2.8-2,4.4-2.7c0.5-0.2,0.1-1.1-0.4-0.9c-1.5,0.5-2.9,1.3-4.1,2.5c-0.4,0.4,0.1,1.1,0.6,0.8
		l4.9-3.1c0.6-0.3,0.1-1.1-0.5-0.9c-0.9,0.4-1.8,0.9-2.6,1.5c-0.5,0.4-0.1,1.2,0.5,0.9c0.9-0.5,1.8-0.9,2.8-1.2l-0.6-0.6l0,0.1
		L126,28h0.1l0.3,0.2l0-0.1l0,0.4c0-0.1,0.5-0.3,0.6-0.3c0.3-0.1,0.6-0.1,0.9-0.1l-0.4-0.8c-0.9,1.1-1.6,2.2-2.2,3.5
		c-0.2,0.5,0.2,0.9,0.7,0.7l5.8-2.9c1.8-0.9,3.6-1.8,5.6-2.1l-0.1-1l-2.4,0.4l0.4,0.9c1.2-0.9,2.8-1.2,4.1-0.5l0.3-0.9l-2.7-0.2
		l0.1,1c1.3-0.3,2.6-0.6,3.9-1.1l-0.3-1c-0.8,0.3-1.9,1.1-1.3,2.1c0.5,0.8,1.7,0.5,1.8-0.4c0-0.4-0.5-0.7-0.8-0.4
		c-0.2,0.2-0.4,0.2-0.7,0.1l0.2,0.8c0.8-0.6,1.7-1.1,2.7-1.4l-0.4-0.9c-0.8,0.5-1.4,1.2-1.8,2c-0.2,0.3,0.1,0.9,0.6,0.7
		c1-0.4,1.8-1,2.4-1.8c0.3-0.4-0.3-0.9-0.7-0.7c-0.6,0.3-1.2,0.7-1.6,1.3c-0.4,0.4,0.1,1,0.6,0.8c1-0.5,2-0.7,3.1-0.8l-0.3-0.9
		c-1.1,0.7-2.2,1.1-3.5,1.4l0.4,0.9l2.5-1.4C144.4,25.1,143.9,24.2,143.4,24.6L143.4,24.6L143.4,24.6z"/>
	<path class="st1" d="M89.5,185.7c-2.7,1.1-5.7,0-8.3-1.1s-4.9-2.3-7-3.9s-4-3.5-5.5-5.8s-2.6-4.6-3.6-7.1c-1.1-2.4-2-4.9-3.2-7.2
		s-2.5-4.6-4-6.7c-2.9-4.3-6.4-8.2-10.3-11.5c-2.2-1.9-4.6-3.9-7.3-5.1c-2.4-1-5.4-1-7.3,1l0.8,0.5c0.6-3.8,2.5-7.4,5.2-10.2
		s6.6-4.7,10.7-5.3c2.4-0.3,4.8-0.2,7.1,0.4c0.6,0.2,0.9-0.8,0.3-1c-4.2-1.1-8.8-0.7-12.8,1.1s-7,4.6-9.1,8.2c-1.2,2-2,4.2-2.3,6.5
		c-0.1,0.5,0.5,0.9,0.8,0.5c1.9-1.9,4.9-1.5,7-0.4c2.3,1.2,4.5,3,6.4,4.7c3.9,3.4,7.3,7.3,10.2,11.6c1.5,2.2,2.8,4.4,3.9,6.8
		s2.1,4.8,3.2,7.1c2.1,4.8,4.6,9.2,8.9,12.4c2.3,1.8,5,3.1,7.7,4.3s5.9,2.3,8.8,1.1C90.3,186.4,90.1,185.5,89.5,185.7L89.5,185.7
		L89.5,185.7z"/>
	<path class="st1" d="M40.3,138c-6.5,2.7-9.9,9.3-12.4,15.5c-0.2,0.5,0.5,0.8,0.8,0.5c3-2.5,7.2-3.2,11-2.7c2.1,0.3,4.1,0.8,6.1,1.5
		c1.9,0.6,3.7,1.4,5.3,2.5c5.8,4.1,7.2,11.7,10.8,17.4c2,3.1,4.6,5.8,8.2,6.9c0.6,0.2,0.9-0.8,0.3-1c-7-2.1-9.4-10.1-12.3-16
		c-1.6-3.1-3.5-6.2-6.4-8.2c-1.6-1.1-3.4-1.9-5.3-2.5c-2-0.7-4.1-1.3-6.2-1.6c-4.3-0.6-8.8,0.1-12.2,2.9l0.8,0.5
		c2.5-5.9,5.7-12.3,11.9-14.9C41.4,138.7,40.9,137.8,40.3,138L40.3,138L40.3,138z"/>
	<path class="st1" d="M90.1,185c-2.7,1.1-5.7,0-8.3-1.1s-4.9-2.3-7-3.9s-4-3.5-5.5-5.8s-2.6-4.6-3.6-7.1s-2-4.9-3.2-7.2
		s-2.5-4.6-4-6.7c-2.9-4.3-6.4-8.2-10.3-11.5c-2.2-1.9-4.6-3.9-7.3-5.1c-2.4-1-5.4-1-7.3,1l0.8,0.5c0.6-3.8,2.5-7.4,5.2-10.2
		s6.6-4.7,10.7-5.3c2.4-0.3,4.8-0.2,7.1,0.4c0.6,0.2,0.9-0.8,0.3-1c-4.2-1.1-8.8-0.7-12.8,1.1s-7,4.6-9.1,8.2c-1.2,2-2,4.2-2.3,6.5
		c-0.1,0.5,0.5,0.9,0.8,0.5c1.9-1.9,4.9-1.5,7-0.4c2.3,1.2,4.5,3,6.4,4.7c3.9,3.4,7.3,7.3,10.2,11.6c1.5,2.2,2.8,4.4,3.9,6.8
		s2.1,4.8,3.2,7.1c2.1,4.8,4.6,9.2,8.9,12.4c2.3,1.8,5,3.1,7.7,4.3s5.9,2.3,8.8,1.1C90.9,185.8,90.7,184.8,90.1,185L90.1,185
		L90.1,185z"/>
	<path class="st1" d="M39.1,139.7c-6.5,2.7-9.9,9.3-12.4,15.5c-0.2,0.5,0.5,0.8,0.8,0.5c3-2.5,7.2-3.2,11-2.7
		c2.1,0.3,4.1,0.8,6.1,1.5c1.9,0.6,3.7,1.4,5.3,2.5c5.8,4.1,7.2,11.7,10.8,17.4c2,3.1,4.6,5.8,8.2,6.9c0.6,0.2,0.9-0.8,0.3-1
		c-7-2.1-9.4-10.1-12.3-16c-1.6-3.1-3.5-6.2-6.4-8.2c-1.6-1.1-3.4-1.9-5.3-2.5c-2-0.7-4.1-1.3-6.2-1.6c-4.3-0.6-8.8,0.1-12.2,2.9
		l0.8,0.5c2.5-5.9,5.7-12.3,11.9-14.9C40.2,140.3,39.7,139.4,39.1,139.7L39.1,139.7L39.1,139.7z"/>
	<path class="st1" d="M39.5,140.6l2.5-1.1c0.2-0.1,0.3-0.5,0.2-0.7c-0.2-0.3-0.4-0.3-0.7-0.2l-2.5,1.1c-0.2,0.1-0.3,0.5-0.2,0.7
		C39,140.7,39.2,140.7,39.5,140.6L39.5,140.6z"/>
	<path class="st1" d="M104.9,186.7c2.6,1.1,5.4,0.3,7.9-0.7s4.8-2.1,7-3.5s4.1-3.1,5.7-5.1s2.8-4.3,3.9-6.6s2.1-4.8,3.2-7.2
		s2.3-4.6,3.6-6.8c2.8-4.4,6.1-8.4,9.9-12c2.1-2,4.4-3.9,6.9-5.4s5.8-2.4,8-0.2c0.4,0.4,0.9,0,0.8-0.5c-0.7-4.1-2.7-7.9-5.6-10.8
		s-7-4.9-11.2-5.4c-2.5-0.3-5-0.2-7.4,0.4c-0.6,0.2-0.4,1.1,0.3,1c4-1,8.4-0.6,12.2,1s6.6,4.4,8.6,7.8c1.1,1.9,1.8,4,2.2,6.2
		l0.8-0.5c-1.6-1.7-4.2-2-6.4-1.3c-2.5,0.8-4.7,2.5-6.7,4.1c-4.1,3.3-7.7,7.1-10.8,11.3s-5.5,8.9-7.5,13.7s-4.2,9.8-8.3,13.3
		c-2.3,2-4.9,3.5-7.7,4.7s-6.2,2.7-9.2,1.5C104.6,185.5,104.4,186.4,104.9,186.7L104.9,186.7L104.9,186.7z"/>
	<path class="st1" d="M153.8,138.9c6.3,2.6,9.5,8.9,11.9,14.9l0.8-0.5c-3-2.5-6.9-3.4-10.6-3.1c-2.1,0.1-4.2,0.6-6.2,1.2
		c-1.9,0.6-3.8,1.3-5.5,2.2c-6.5,3.7-8.2,11.3-11.7,17.4c-1.9,3.3-4.5,6.5-8.3,7.6c-0.6,0.2-0.4,1.1,0.3,1c6.7-2,9.5-9.1,12.2-14.9
		c1.5-3.1,3.1-6.3,5.8-8.6c1.5-1.3,3.2-2.2,5-2.9c1.9-0.7,3.8-1.3,5.8-1.7c4.3-0.9,9.2-0.5,12.7,2.4c0.3,0.3,1,0,0.8-0.5
		c-2.5-6.2-5.9-12.8-12.4-15.5C153.8,137.8,153.3,138.7,153.8,138.9L153.8,138.9L153.8,138.9z"/>
	<path class="st1" d="M104.3,186c2.6,1.1,5.4,0.3,7.9-0.7s4.8-2.1,7-3.5s4.1-3.1,5.7-5.1s2.8-4.3,3.9-6.6s2.1-4.8,3.2-7.2
		s2.3-4.6,3.6-6.8c2.8-4.4,6.1-8.4,9.9-12c2.1-2,4.4-3.9,6.9-5.4s5.8-2.4,8-0.2c0.4,0.4,0.9,0,0.8-0.5c-0.7-4.1-2.7-7.9-5.6-10.8
		s-7-4.9-11.2-5.4c-2.5-0.3-5-0.2-7.4,0.4c-0.6,0.2-0.4,1.1,0.3,1c4-1,8.4-0.6,12.2,1s6.6,4.4,8.6,7.8c1.1,1.9,1.8,4,2.2,6.2
		l0.8-0.5c-1.6-1.7-4.2-2-6.4-1.3c-2.5,0.8-4.7,2.5-6.7,4.1c-4.1,3.3-7.7,7.1-10.8,11.3s-5.5,8.9-7.5,13.7s-4.2,9.8-8.3,13.3
		c-2.3,2-4.9,3.5-7.7,4.7s-6.2,2.7-9.2,1.5C104,184.8,103.8,185.8,104.3,186L104.3,186L104.3,186z"/>
	<path class="st1" d="M155.1,140.5c6.3,2.6,9.5,8.9,11.9,14.9l0.8-0.5c-3-2.5-6.9-3.4-10.6-3.1c-2.1,0.1-4.2,0.6-6.2,1.2
		c-1.9,0.6-3.8,1.3-5.5,2.2c-6.5,3.7-8.2,11.3-11.7,17.4c-1.9,3.3-4.5,6.5-8.3,7.6c-0.6,0.2-0.4,1.1,0.3,1c6.7-2,9.5-9.1,12.2-14.9
		c1.5-3.1,3.1-6.3,5.8-8.6c1.5-1.3,3.2-2.2,5-2.9c1.9-0.7,3.8-1.3,5.8-1.7c4.3-0.9,9.2-0.5,12.7,2.4c0.3,0.3,1,0,0.8-0.5
		c-2.5-6.2-5.9-12.8-12.4-15.5C155,139.4,154.5,140.3,155.1,140.5L155.1,140.5L155.1,140.5z"/>
	<path class="st1" d="M155.7,139.7l-2.5-1.1c-0.2-0.1-0.5-0.1-0.7,0.2c-0.1,0.2-0.1,0.6,0.2,0.7l2.5,1.1c0.2,0.1,0.5,0.1,0.7-0.2
		C156,140.2,156,139.9,155.7,139.7L155.7,139.7z"/>
	<path class="st1" d="M55.2,119.1c-1.4-3.9-4.7-6.9-8.7-8c-2.5-0.6-5-0.2-7.6-0.4c-2.2-0.1-4.2-0.9-6-2.2c-1.9-1.4-3.5-3.4-4.2-5.6
		c-0.2-0.5-0.8-0.5-1,0c-1.5,4.5-0.3,9.3,1.8,13.4c1,2,2.2,4,3.5,5.8c1.2,1.7,2.6,3.2,4.4,4.2c0.6,0.3,1.1-0.6,0.5-0.9
		c-1.8-0.9-3.1-2.4-4.2-4.1c-1.2-1.7-2.3-3.5-3.3-5.4c-2-3.9-3.2-8.5-1.8-12.9h-1c1.4,3.9,4.6,6.9,8.5,8.1c2.5,0.7,5,0.4,7.5,0.5
		c2.2,0.1,4.3,0.8,6.2,2c2,1.4,3.5,3.3,4.4,5.6C54.4,120,55.4,119.7,55.2,119.1L55.2,119.1L55.2,119.1z"/>
	<path class="st1" d="M141.1,119.4c1.4-4,5.2-7.1,9.5-7.5c2.6-0.3,5.2,0.2,7.8-0.3c2-0.4,3.9-1.4,5.4-2.7c1.8-1.5,3.1-3.4,3.9-5.6
		h-1c1.4,4.3,0.2,8.9-1.8,12.9c-1,1.9-2.1,3.7-3.3,5.4c-1.1,1.6-2.4,3.1-4.2,4.1c-0.6,0.3-0.1,1.2,0.5,0.9c1.8-0.9,3.2-2.4,4.3-4.1
		c1.3-1.9,2.6-3.9,3.6-5.9c2.1-4.1,3.3-8.9,1.8-13.4c-0.2-0.5-0.8-0.5-1,0c-1.4,4-5,7-9.2,7.7c-2.6,0.4-5.2-0.2-7.8,0.3
		c-2,0.4-3.9,1.3-5.5,2.6c-1.8,1.4-3.2,3.4-4,5.6C140,119.7,140.9,120,141.1,119.4L141.1,119.4L141.1,119.4z"/>
	<path class="st1" d="M36,108.8c0.9-2.7-0.6-5.4-2.3-7.4s-4-3.9-6.7-3.9v1c4.5-0.5,9,0.4,12.9,2.8c3.5,2.1,6.3,5.3,8,9
		c0.3,0.6,1.1,0.1,0.9-0.5c-2.8-6.3-8.7-10.9-15.5-12.1c-2-0.4-4.1-0.4-6.2-0.2c-0.6,0.1-0.7,1,0,1c2.4,0,4.4,1.7,5.9,3.5
		s3,4.2,2.2,6.6C34.9,109.2,35.8,109.4,36,108.8L36,108.8L36,108.8z"/>
	<path class="st1" d="M97.6,45.9L97.6,45.9l0.1,0l0,0l0.1,0l0,0L98,46l0,0l0.1,0.1l0,0l0.1,0.1v0l0,0.1v0l0,0.1c0,0,0-0.1,0-0.1
		s0-0.1,0-0.1c0-0.1,0-0.1,0-0.2c0-0.1-0.1-0.1-0.1-0.2l-0.1-0.1c-0.1,0-0.1-0.1-0.2-0.1c0,0-0.1,0-0.1,0c-0.1,0-0.1,0-0.2,0.1
		l-0.1,0.1c-0.1,0.1-0.1,0.1-0.1,0.2l-0.1,0.2h1l0,0.1c0-0.1,0-0.2,0-0.2c0-0.1,0-0.1,0-0.2c0-0.1-0.1-0.1-0.1-0.2l-0.1-0.1
		c-0.1,0-0.1-0.1-0.2-0.1c0,0-0.1,0-0.1,0c-0.1,0-0.1,0-0.2,0.1l-0.1,0.1c-0.1,0.1-0.1,0.1-0.1,0.2s0,0.2,0,0.3c0,0,0,0.1,0,0.1
		c0,0.1,0,0.1,0,0.2c0,0.1,0.1,0.1,0.1,0.2c0,0.1,0.1,0.1,0.2,0.1c0.1,0,0.1,0,0.2,0l0.1,0c0.1,0,0.2-0.1,0.2-0.1l0.1-0.1
		c0-0.1,0.1-0.2,0.1-0.3c0,0,0-0.1,0-0.1l0,0.1c0,0,0-0.1,0-0.1l-1-0.1c0,0.1,0,0.3,0,0.4l0,0.1c0,0.1,0.1,0.1,0.1,0.1
		c0,0,0.1,0.1,0.1,0.1c0.1,0,0.1,0,0.2,0l0.1,0l0.1-0.1c0.1,0,0.1-0.1,0.1-0.1c0-0.1,0.1-0.1,0.1-0.2l0.1-0.2l-1-0.1
		c0,0.1,0,0.1,0,0.2l0,0c0,0,0,0.1,0,0.1l0,0v0l0,0.1l0,0c0,0.1,0.1,0.2,0.2,0.2l0.1,0c0,0,0,0,0.1,0l0,0l0.1,0c0,0,0.1,0,0.1,0
		c0.1,0,0.1-0.1,0.2-0.1c0,0,0.1-0.1,0.1-0.1c0-0.1,0-0.1,0.1-0.2c0-0.1,0-0.1,0-0.2l0-0.1c0-0.1-0.1-0.1-0.2-0.2l-0.1-0.1
		C97.8,45.9,97.7,45.9,97.6,45.9L97.6,45.9L97.6,45.9z"/>
	<path class="st0" d="M97.6,46c0.6,0,0.6-1,0-1S97,46,97.6,46L97.6,46z"/>
	<path class="st1" d="M97.7,46c0.6,0,0.6-1,0-1S97.1,46,97.7,46L97.7,46z"/>
	<path class="st1" d="M148.8,77.9c0.6,0,0.6-1,0-1S148.1,77.9,148.8,77.9L148.8,77.9z"/>
	<path class="st1" d="M48.4,129.9c3.6-1.8,8.1-0.4,11,2c3.3,2.8,5.3,6.7,7.3,10.5c0.3,0.6,1.2,0.1,0.9-0.5c-3.1-6-7-12.9-14.4-13.8
		c-1.8-0.2-3.6,0.1-5.2,0.9C47.3,129.3,47.8,130.1,48.4,129.9L48.4,129.9z"/>
	<path class="st1" d="M34.1,148.7c3.9-2.6,8.9-3.2,13.3-1.5c0.6,0.2,0.9-0.7,0.3-1c-4.6-1.8-10-1.2-14,1.6
		C33,148.2,33.5,149.1,34.1,148.7L34.1,148.7L34.1,148.7z"/>
	<path class="st1" d="M34.3,148.5c1.2-2,3.1-3.6,5.3-4.6c0.5-0.2,1.1-0.4,1.7-0.5c0.8-0.2,1.3,0.2,1.9,0.7l1.8,1.3l0.9,0.6
		c0.1,0.1,1,0.6,1,0.7l0.9-0.3c-0.4-0.9-1.3-1.3-2.1-1.5c-0.9-0.3-2.1-0.4-2.5-1.4l-0.6,0.7c0.3,0.1,0.6,0.3,0.6,0.7l0.6-0.5
		c-0.8-0.2-1.5-0.7-1.9-1.4l-0.4,0.8c0.4,0,0.7,0.4,1.2,0.1c0.3-0.1,0.5-0.5,0.4-0.8c-0.3-1.1-2-0.1-2.6,0.1
		c-1.1,0.4-2.3,0.7-3.4,1.2c-0.9,0.4-1.6,0.9-1.9,1.9c-0.1,0.4,0.4,0.8,0.7,0.6c1.9-0.9,3.9-1.9,6-2.3l-0.4-0.9l-3.4,1.6
		c-0.5,0.2-0.2,0.9,0.3,0.9c1.5,0.1,2.9-0.2,4.3-0.7c0.5-0.2,0.5-0.9-0.1-1l-0.9-0.1v1c0.5,0,0.9,0.1,1.3,0.3l-0.3-0.7
		c0.2,0,0.2-0.1,0.1-0.1c0-0.1-0.1-0.1-0.1-0.2c0-0.1-0.1-0.2-0.1-0.3c-0.2-0.2-0.4-0.4-0.6-0.4c-0.6-0.1-1.4,0.1-2,0.2
		c-1.5,0.3-2.9,0.8-4.2,1.6c-0.6,0.3-0.1,1.2,0.5,0.9c1.4-0.8,3-1.3,4.6-1.6c0.4-0.1,0.8-0.2,1,0.1c0.2,0.2,0.2,0.5,0.5,0.6
		c0.4,0.2,0.9,0.2,1.2-0.3c0.2-0.3,0-0.6-0.3-0.7c-0.5-0.2-1-0.3-1.6-0.3c-0.6,0-0.6,0.9,0,1l0.9,0.1l-0.1-1c-1.3,0.5-2.6,0.7-4,0.7
		l0.3,0.9l3.4-1.6c0.5-0.3,0.1-1-0.4-0.9c-2.2,0.4-4.2,1.4-6.2,2.4l0.7,0.6c0.3-1,1.6-1.3,2.5-1.6l1.8-0.6l0.9-0.3
		c0.2-0.1,0.8-0.4,0.9-0.3l-0.2-0.3c0.2-0.2,0.2-0.3,0.1-0.4c-0.1,0-0.1-0.1-0.2-0.1c-0.1-0.1-0.3-0.1-0.4-0.1
		c-0.4,0-0.7,0.4-0.4,0.8c0.6,0.9,1.5,1.5,2.5,1.9c0.3,0.1,0.7-0.2,0.6-0.5c-0.1-0.8-0.6-1.4-1.4-1.6c-0.5-0.1-0.7,0.4-0.6,0.7
		c0.4,0.9,1.2,1.3,2.1,1.6c0.9,0.3,2.1,0.4,2.5,1.4c0.2,0.4,1,0.2,0.9-0.3c0-0.8-0.9-1.1-1.4-1.5l-2.3-1.7c-0.6-0.5-1.3-1.1-2.1-1.3
		c-0.7-0.1-1.4,0.2-2,0.4c-2.7,0.9-5,2.8-6.5,5.3C33.1,148.5,34,149,34.3,148.5L34.3,148.5L34.3,148.5z"/>
	<path class="st1" d="M47.6,129.9c4.4,6.4,11.1,11.1,18.7,13c0.6,0.2,0.9-0.8,0.3-1c-7.3-1.9-13.8-6.4-18.1-12.6
		C48.2,128.8,47.3,129.3,47.6,129.9L47.6,129.9L47.6,129.9z"/>
	<path class="st1" d="M54.6,135.7c-1.4-1.8-0.8-4.4,1.2-5.5c0.6-0.3,0.1-1.2-0.5-0.9c-1.2,0.6-2.1,1.8-2.3,3.1c-0.3,1.4,0.1,2.9,1,4
		c0.2,0.2,0.5,0.2,0.7,0C54.9,136.2,54.8,135.9,54.6,135.7L54.6,135.7L54.6,135.7z"/>
	<path class="st1" d="M57.8,138.9c1.5,0.4,2.9-0.6,3.6-1.8s1-2.5,0.8-3.8c0-0.3-0.4-0.4-0.6-0.4c-0.3,0.1-0.4,0.4-0.4,0.6
		c0.2,1,0,2.1-0.6,2.9s-1.5,1.7-2.6,1.4C57.4,137.8,57.1,138.8,57.8,138.9L57.8,138.9L57.8,138.9z"/>
	<path class="st1" d="M58.2,130.2c-1.7,0.5-2.3,2.3-2.3,3.8c0,0.2,0,0.4,0,0.6c0,0.2,0,0.5,0,0.7c0.1,0.5,0.7,0.6,1.1,0.5
		c0.8-0.2,1.5-0.9,2-1.5c0.6-0.7,1-1.5,1.3-2.3c0.2-0.6-0.8-0.9-1-0.3c-0.2,0.7-0.6,1.3-1,1.9c-0.2,0.3-0.5,0.6-0.8,0.8
		c-0.1,0.1-0.3,0.2-0.4,0.3c-0.1,0-0.2,0.1-0.2,0.1c0,0-0.1,0-0.1,0c0,0,0,0,0,0l0.2,0.2v0c0,0,0-0.1,0-0.2c0-0.1,0-0.2,0-0.4
		c0-0.2,0-0.5,0-0.7c0-0.5,0.1-0.9,0.3-1.4c0.2-0.6,0.7-1.2,1.3-1.4S58.8,130,58.2,130.2L58.2,130.2L58.2,130.2z"/>
	<path class="st1" d="M57,130.3l-0.5-0.4l-0.6,0.8c0.1,0.1,0.3,0.1,0.4,0.1c0,0,0.1,0.1,0.2,0c0.1,0,0.1,0,0-0.2
		c0-0.2,0-0.3-0.1-0.2c-0.2,0-0.5,0.3-0.6,0.5c-0.3,0.4,0.3,1,0.7,0.7c0.3-0.2,0.5-0.4,0.8-0.5l-0.5-0.9c-0.7,0.4-1.3,0.9-1.7,1.5
		h0.9c0-0.1-0.2-0.3-0.2-0.4c0,0.1,0.2-0.1,0.2-0.1c0.2-0.2,0.3-0.5,0.4-0.7c0.2-0.5-0.5-0.8-0.8-0.5c-1.3,1.3-1.8,3.1-1.4,4.9
		l0.9-0.4c-0.4-0.5-0.3-1.2-0.1-1.8l-1-0.1c-0.1,1.3,0.2,2.6,0.9,3.7l0.9-0.5c-0.1-0.3-0.3-0.5-0.3-0.8l-0.5,0.6
		c0.8-0.1,0.8-1,0.8-1.6c0-0.2,0-2.1,0.3-2l-0.4-0.6c-0.5,1.3-0.7,2.8-0.5,4.2c0.1,0.6,0.2,1.3,0.7,1.8c0.4,0.4,1,0.6,1.6,0.8
		s0.8-0.6,0.4-0.9c-0.6-0.4-1-0.9-1.3-1.5l-0.6,0.7c1.2,0.4,2.6-0.2,3.2-1.3c0.2-0.4-0.1-0.9-0.6-0.7s-0.8,0.5-0.9,0.9
		c-0.1,0.4,0.5,0.9,0.8,0.5c0.6-0.7,1.2-1.5,1.6-2.4c0-0.1,0.1-0.1,0.1-0.2c0.1-0.1,0-0.1-0.3,0.1c0,0,0.1,0.1,0.2,0.1
		c0.1,0.1,0.3,0.3,0.3,0.4c0.2,0.4,0.1,0.9-0.1,1.3c-0.3,0.8-0.8,1.4-1.5,1.8c-0.2,0.1-0.4,0.1-0.6,0.2c-0.1,0.1-0.1,0,0,0.1
		c0-0.1,0-0.2-0.1-0.3c-0.1-0.4-0.5-0.6-0.9-0.8c-0.5-0.2-0.8,0.6-0.4,0.9c0.9,0.6,2.2,0,2.4-1h-1c0,0.1,0,0.4-0.1,0.4l0.4-0.1
		c0.1,0.1,0.1,0,0-0.1c0-0.1-0.1-0.1-0.1-0.2c0-0.2,0-0.3,0-0.5l-0.8,0.4l0.7,0.5c0.2,0.2,0.5,0,0.7-0.2l1-1.4l-0.9-0.1
		c0.1,0.5-0.1,0.9-0.5,1.1l0.7,0.3c-0.1-0.5,0.1-1.1,0.5-1.4l-0.8-0.1c0.1,0.3,0.1,0.6,0,0.9l1,0.1c0-0.7,0.1-1.3,0.3-1.9l-0.9,0.1
		c0.2,0.2,0.2,0.4,0.2,0.7l0.8-0.4c-0.1,0-0.1-0.1-0.1-0.1c-0.2-0.4-1-0.2-0.9,0.3c0,0.5,0.6,0.9,1.1,0.6c0.5-0.3,0-1.2-0.5-0.9
		l0.4,0.3l-0.9,0.3c0.1,0.2,0.3,0.4,0.5,0.5c0.4,0.2,0.7-0.1,0.8-0.4c0.1-0.4-0.1-0.9-0.3-1.2s-0.8-0.3-0.9,0.1
		c-0.3,0.7-0.4,1.4-0.4,2.2c0,0.6,0.8,0.7,1,0.1c0.2-0.6,0.1-1.2-0.1-1.7c-0.1-0.3-0.6-0.3-0.8-0.1c-0.6,0.6-0.9,1.5-0.7,2.4
		c0.1,0.3,0.5,0.4,0.7,0.3c0.8-0.4,1.2-1.4,1-2.2c-0.1-0.4-0.7-0.5-0.9-0.1l-1,1.4l0.7-0.2l-0.7-0.5c-0.3-0.2-0.7,0.1-0.8,0.4
		c-0.1,0.6,0.2,1.7,0.9,1.8c0.8,0.1,1-1.1,0.9-1.6c-0.1-0.5-0.9-0.5-1,0c-0.1,0.4-0.6,0.6-1,0.4l-0.4,0.9c0.3,0.1,0.3,0.2,0.4,0.5
		s0.3,0.5,0.6,0.5c0.5,0.1,1.1-0.2,1.5-0.4c1-0.6,1.7-1.6,2-2.7s-0.2-2.4-1.3-2.7c-0.6-0.1-0.9,0.6-1.1,1c-0.4,0.6-0.8,1.1-1.2,1.7
		l0.8,0.5c0-0.1,0-0.2,0.2-0.2l-0.6-0.7c-0.4,0.7-1.3,1.1-2,0.8c-0.4-0.1-0.8,0.4-0.6,0.7c0.4,0.8,1,1.4,1.7,1.9l0.4-0.9
		c-0.4-0.1-0.9-0.3-1.2-0.6c-0.3-0.4-0.3-1-0.4-1.5c-0.1-1.2,0.1-2.3,0.5-3.4c0.1-0.2-0.1-0.6-0.4-0.6c-0.8-0.1-1.4,0.5-1.5,1.3
		c0,0.4,0,0.8-0.1,1.3l0,0.8c0,0.1,0,0.2,0,0.3c0,0.3,0,0,0.3,0c-0.3,0-0.6,0.3-0.5,0.6c0.1,0.4,0.2,0.7,0.4,1
		c0.3,0.6,1.2,0.1,0.9-0.5c-0.6-1-0.9-2.1-0.8-3.2c0-0.6-0.9-0.7-1-0.1c-0.2,0.9-0.3,1.8,0.3,2.6c0.3,0.4,1,0.2,0.9-0.4
		c-0.3-1.4,0.2-2.9,1.2-3.9l-0.8-0.5c-0.1,0.4-0.5,0.5-0.6,0.9s0.1,0.8,0.3,1.1s0.7,0.3,0.9,0c0.3-0.5,0.8-0.9,1.3-1.2
		c0.6-0.3,0.1-1.1-0.5-0.9c-0.3,0.1-0.6,0.3-0.8,0.5l0.7,0.7c-0.1,0.1,0.1-0.1,0.2-0.1c0.1,0,0.1-0.1,0.2-0.1
		c0.2-0.1,0.3-0.4,0.3-0.6s-0.1-0.5-0.3-0.6c-0.2-0.1-0.4-0.1-0.6-0.2c-0.5-0.3-1,0.4-0.6,0.8l0.5,0.4
		C56.7,131.4,57.4,130.7,57,130.3L57,130.3L57,130.3z"/>
	<path class="st1" d="M59.7,135.5L59.7,135.5l0-0.1C59.7,135.3,59.7,135.4,59.7,135.5l0-0.1C59.7,135.3,59.7,135.4,59.7,135.5l0-0.1
		C59.7,135.4,59.7,135.4,59.7,135.5l0-0.1L59.7,135.5C59.7,135.4,59.7,135.5,59.7,135.5c-0.1,0.2-0.1,0.2-0.1,0.3
		c0,0.1,0,0.1,0.1,0.2c0,0.1,0.1,0.1,0.1,0.1l0.1,0.1c0.1,0,0.2,0,0.3,0l0.1-0.1c0.1,0,0.1-0.1,0.2-0.2c0-0.1,0-0.1,0.1-0.2
		c0,0,0,0,0-0.1c0-0.1,0-0.1,0-0.2c0,0,0,0,0-0.1s0,0,0-0.1c0-0.1,0-0.1,0-0.2c0-0.1,0-0.2-0.1-0.2c0-0.1-0.1-0.1-0.1-0.1
		c0,0-0.1-0.1-0.2-0.1c-0.1,0-0.1,0-0.2,0c-0.1,0-0.1,0-0.2,0.1l-0.1,0.1c-0.1,0.1-0.1,0.1-0.1,0.2l0,0.1
		C59.6,135.3,59.7,135.4,59.7,135.5L59.7,135.5L59.7,135.5z"/>
	<path class="st1" d="M54.2,131.2l-0.4,0.7c-0.1,0.1-0.1,0.3,0,0.4c0,0.1,0,0.1,0.1,0.2c0,0.1,0.1,0.1,0.1,0.1
		c0.1,0.1,0.3,0.1,0.4,0.1s0.2-0.1,0.3-0.2l0.4-0.7c0.1-0.1,0.1-0.3,0-0.4c0-0.1,0-0.1-0.1-0.2c0-0.1-0.1-0.1-0.1-0.1
		c-0.1-0.1-0.3-0.1-0.4-0.1S54.3,131.1,54.2,131.2L54.2,131.2z"/>
	<path class="st1" d="M61.6,147.6c2.8,1.9,5,4.6,6.4,7.7c0.7,1.5,1.2,3.2,1.4,4.8c0.3,1.9,0.2,3.9,0.5,5.9c0.5,3.4,2.1,6.4,5,8.3
		c1.2,0.8,2.7,1.4,4.2,1.3s2.6-1.1,2.8-2.6c0.2-1.8-0.3-3.8-1.5-5.1s-3.1-2-4.8-1.5c-0.6,0.2-0.4,1.1,0.3,1c1.5-0.5,3.2,0.2,4.1,1.5
		c0.8,1.2,1.3,3.1,0.8,4.5s-2.2,1.4-3.4,1c-1.4-0.4-2.6-1.4-3.6-2.4s-1.8-2.4-2.3-3.8c-0.6-1.7-0.7-3.5-0.8-5.3
		c-0.2-3.1-0.7-6.1-2.1-8.9s-3.7-5.5-6.4-7.3C61.6,146.4,61.1,147.3,61.6,147.6L61.6,147.6L61.6,147.6z"/>
	<path class="st1" d="M126.8,166.3c-2.9-1.4-6.3-1.1-9.2,0.3c-3.2,1.5-5.6,4.2-7.4,7.2c-1.1,1.8-2.1,3.6-3,5.4
		c-0.3,0.6,0.6,1.1,0.9,0.5c1.9-3.8,4-7.7,7.3-10.5c3-2.5,7.4-3.8,11-2C126.9,167.4,127.4,166.6,126.8,166.3L126.8,166.3
		L126.8,166.3z"/>
	<path class="st1" d="M126.1,166.7c-4.3,6.2-10.8,10.7-18.1,12.6c-0.6,0.2-0.4,1.1,0.3,1c7.6-1.9,14.3-6.6,18.7-13
		C127.4,166.7,126.5,166.2,126.1,166.7L126.1,166.7L126.1,166.7z"/>
	<path class="st1" d="M120.7,173.7c0.9-1.1,1.3-2.6,1-4c-0.3-1.3-1.2-2.5-2.3-3.1c-0.6-0.3-1.1,0.6-0.5,0.9c2,1.1,2.6,3.7,1.1,5.5
		c-0.2,0.2-0.2,0.5,0,0.7C120.2,173.9,120.6,174,120.7,173.7L120.7,173.7L120.7,173.7z"/>
	<path class="st1" d="M116.6,175.3c-1,0.3-2.1-0.6-2.6-1.4s-0.8-1.9-0.6-2.9c0-0.3-0.1-0.5-0.4-0.6c-0.3-0.1-0.6,0.1-0.6,0.4
		c-0.3,1.3,0,2.7,0.8,3.8s2.2,2.1,3.6,1.8C117.5,176.1,117.3,175.1,116.6,175.3L116.6,175.3L116.6,175.3z"/>
	<path class="st1" d="M116.2,168.5c0.6,0.2,1.1,0.8,1.3,1.4c0.1,0.4,0.2,0.9,0.3,1.3c0,0.2,0,0.5,0,0.7c0,0.1,0,0.2,0,0.4
		c0,0.1,0,0.1,0,0.2c0,0.1,0,0,0,0l0.2-0.2c0.1,0,0.1,0,0,0c0,0-0.1,0-0.1,0c-0.1,0-0.2-0.1-0.3-0.1c-0.1-0.1-0.3-0.2-0.4-0.3
		c-0.3-0.2-0.6-0.5-0.8-0.8c-0.5-0.6-0.8-1.2-1-1.9c-0.2-0.6-1.2-0.4-1,0.3c0.2,0.7,0.6,1.4,1.1,2.1s1.1,1.3,1.8,1.6
		c0.4,0.2,1,0.4,1.3-0.1c0.3-0.3,0.2-0.9,0.2-1.3c0-0.9-0.1-1.8-0.5-2.6s-1-1.4-1.8-1.6C115.9,167.3,115.6,168.3,116.2,168.5
		L116.2,168.5L116.2,168.5z"/>
	<path class="st1" d="M118.4,168.3l0.5-0.4c0.4-0.4-0.1-1.1-0.6-0.8c-0.2,0.1-0.4,0.1-0.5,0.2c-0.2,0.1-0.4,0.4-0.4,0.6
		c0,0.2,0.1,0.4,0.3,0.6c0.1,0.1,0.1,0.1,0.2,0.1c0,0,0.2,0.2,0.2,0.1l0.7-0.7c-0.3-0.2-0.5-0.4-0.8-0.5c-0.6-0.3-1.1,0.6-0.5,0.9
		c0.5,0.3,1,0.7,1.3,1.2c0.2,0.3,0.7,0.3,0.9,0s0.4-0.7,0.3-1.1s-0.5-0.5-0.6-0.9l-0.8,0.5c1,1,1.5,2.5,1.2,3.9
		c-0.1,0.6,0.6,0.8,0.9,0.4c0.5-0.8,0.4-1.7,0.3-2.6c-0.1-0.6-1-0.4-1,0.1c0.1,1.1-0.2,2.3-0.8,3.2c-0.3,0.6,0.5,1.1,0.9,0.5
		c0.2-0.3,0.3-0.6,0.4-1c0.1-0.3-0.1-0.6-0.5-0.6l0.3,0.1c0,0,0,0,0-0.1c0-0.1,0-0.3,0-0.4l0-0.7c0-0.4,0-0.9-0.1-1.3
		c-0.1-0.8-0.6-1.4-1.5-1.3c-0.3,0-0.5,0.4-0.4,0.6c0.4,1.1,0.6,2.3,0.5,3.4c0,0.5-0.1,1.1-0.4,1.5c-0.3,0.4-0.8,0.5-1.2,0.6
		l0.4,0.9c0.7-0.5,1.3-1.1,1.7-1.9c0.2-0.4-0.1-0.9-0.6-0.7c-0.8,0.2-1.6-0.1-2-0.8l-0.6,0.7c0.1,0,0.1,0.1,0.2,0.2l0.8-0.5
		c-0.4-0.5-0.8-1.1-1.2-1.7c-0.3-0.4-0.5-1.2-1.1-1c-1.2,0.3-1.6,1.6-1.4,2.7c0.2,1.1,1,2.1,2,2.7c0.4,0.3,1,0.5,1.5,0.4
		c0.3-0.1,0.5-0.2,0.6-0.5c0.1-0.3,0-0.4,0.4-0.6l-0.4-0.9c-0.4,0.2-0.9,0-1-0.4c-0.1-0.5-0.9-0.5-1,0c-0.1,0.6,0.1,1.7,0.9,1.6
		c0.7-0.1,1-1.2,0.9-1.8c0-0.3-0.4-0.7-0.8-0.4l-0.7,0.5l0.7,0.2l-1-1.4c-0.3-0.3-0.8-0.3-0.9,0.1c-0.3,0.9,0.1,1.8,1,2.3
		c0.3,0.1,0.7,0,0.7-0.3c0.2-0.9-0.1-1.8-0.7-2.4c-0.2-0.2-0.6-0.2-0.8,0.1c-0.3,0.6-0.3,1.1-0.1,1.7c0.2,0.5,1,0.4,1-0.1
		c0-0.7-0.1-1.5-0.4-2.2c-0.2-0.4-0.6-0.5-0.9-0.1c-0.3,0.4-0.4,0.9-0.3,1.4c0,0.3,0.5,0.4,0.7,0.3c0.2-0.1,0.4-0.3,0.5-0.5
		l-0.9-0.3l0.4-0.3c-0.5-0.3-1,0.5-0.5,0.9c0.5,0.3,1-0.1,1.1-0.6c0-0.5-0.7-0.7-0.9-0.3c0,0.1,0,0.1-0.1,0.1l0.7,0.3
		c0-0.2,0.1-0.4,0.2-0.6l-0.9-0.1c0.2,0.6,0.4,1.2,0.3,1.9l1-0.1c-0.1-0.3-0.1-0.6,0-0.9l-0.8,0.1c0.4,0.4,0.6,0.9,0.5,1.4l0.7-0.3
		c-0.4-0.2-0.6-0.6-0.5-1.1l-0.9,0.1l1,1.4c0.1,0.2,0.4,0.4,0.7,0.2l0.7-0.5l-0.8-0.4c0,0.2,0,0.3,0,0.5c0,0.1,0,0.2-0.1,0.2
		c-0.1,0.1-0.1,0.1,0,0.1l0.4,0.1c-0.1,0-0.1-0.3-0.1-0.4h-1c0.2,1,1.5,1.6,2.4,1c0.5-0.3,0.2-1.1-0.4-0.9c-0.4,0.1-0.8,0.3-0.9,0.8
		c0,0.1,0,0.2-0.1,0.3c0,0,0.1,0.1-0.1,0s-0.4-0.1-0.5-0.2c-0.7-0.4-1.3-1.1-1.6-1.8c-0.1-0.4-0.3-0.9-0.1-1.3
		c0.1-0.1,0.2-0.3,0.3-0.4c0,0,0.2-0.1,0.2-0.1c0,0-0.4-0.4-0.2,0c0.5,0.9,1.1,1.7,1.7,2.4c0.4,0.4,0.9-0.1,0.8-0.5
		c-0.1-0.5-0.4-0.8-0.9-0.9s-0.8,0.4-0.6,0.7c0.6,1.1,2,1.7,3.2,1.3l-0.6-0.7c-0.3,0.6-0.7,1.1-1.3,1.5c-0.4,0.3-0.2,1.1,0.4,0.9
		s1.2-0.4,1.6-0.8c0.5-0.5,0.6-1.1,0.7-1.8c0.2-1.4,0-2.9-0.5-4.2l-0.4,0.6c0.3-0.1,0.3,1.8,0.3,2c0,0.6,0,1.6,0.8,1.6l-0.5-0.6
		c-0.1,0.3-0.2,0.5-0.3,0.8l0.9,0.5c0.7-1.1,1-2.4,0.9-3.7l-1,0.1c0.1,0.6,0.2,1.3-0.1,1.8l0.9,0.4c0.4-1.8-0.2-3.6-1.5-4.9
		c-0.3-0.3-1,0-0.8,0.5c0.1,0.3,0.2,0.5,0.4,0.7c0,0,0.2,0.2,0.2,0.1c0,0.1-0.1,0.3-0.2,0.4h0.9c-0.4-0.7-1-1.2-1.7-1.5l-0.5,0.9
		c0.3,0.1,0.6,0.3,0.8,0.5c0.4,0.3,1-0.3,0.7-0.7c-0.1-0.2-0.4-0.4-0.6-0.5l-0.1,0l-0.1,0.5c0,0,0.1,0,0.2,0c0.2,0,0.3-0.1,0.4-0.2
		l-0.6-0.8l-0.5,0.4C117.2,168,117.9,168.7,118.4,168.3L118.4,168.3L118.4,168.3z"/>
	<path class="st1" d="M114.1,172.3c0,0.1-0.1,0.1-0.1,0.2c0,0.1,0,0.1,0,0.2c0,0,0,0,0,0.1s0,0,0,0.1c0,0.1,0,0.1,0,0.2
		c0,0,0,0,0,0.1c0,0.1,0,0.1,0.1,0.2c0,0.1,0.1,0.1,0.1,0.1c0,0,0.1,0.1,0.2,0.1c0.1,0,0.1,0,0.2,0c0.1,0,0.1,0,0.2-0.1l0.1-0.1
		c0.1-0.1,0.1-0.1,0.1-0.2l0-0.1c0-0.1,0-0.2-0.1-0.3v0l0,0.1c0,0,0-0.1,0-0.1l0,0.1c0,0,0-0.1,0-0.1l0,0.1c0,0,0-0.1,0-0.1l0,0.1
		l0,0c0-0.1,0-0.1,0.1-0.2s0-0.1,0-0.2c0-0.1,0-0.1-0.1-0.2c0-0.1-0.1-0.1-0.1-0.1l-0.1-0.1c-0.1,0-0.2,0-0.3,0l-0.1,0.1
		C114.2,172.1,114.1,172.2,114.1,172.3L114.1,172.3L114.1,172.3z"/>
	<path class="st1" d="M119.6,169l0.4,0.7c0,0.1,0.1,0.1,0.1,0.1c0,0,0.1,0.1,0.2,0.1c0.1,0,0.1,0,0.2,0c0.1,0,0.1,0,0.2-0.1
		c0.1-0.1,0.2-0.2,0.2-0.3l0-0.1c0-0.1,0-0.2-0.1-0.3l-0.4-0.7c0-0.1-0.1-0.1-0.1-0.1c0,0-0.1-0.1-0.2-0.1c-0.1,0-0.1,0-0.2,0
		c-0.1,0-0.1,0-0.2,0.1c-0.1,0.1-0.2,0.2-0.2,0.3l0,0.1C119.5,168.8,119.5,168.9,119.6,169L119.6,169z"/>
	<path class="st1" d="M124.9,157.1c0.8-3.3,2.6-6.2,5-8.6c1.2-1.2,2.6-2.2,4.1-3c1.6-0.9,3.4-1.5,5.1-2.4c3.1-1.6,5.5-4.1,6.3-7.6
		c0.4-1.4,0.5-3-0.1-4.4s-1.8-2.2-3.3-1.9c-3.5,0.6-6.8,4.9-4.3,8.2c0.4,0.5,1.3,0,0.9-0.5c-1-1.3-0.9-3.1,0.1-4.4
		c0.8-1.2,2.5-2.3,4-2.3s2,1.7,2,2.9c0,1.5-0.4,3.1-1.1,4.4s-1.7,2.6-3,3.5c-1.3,1-2.9,1.6-4.4,2.3c-2.8,1.2-5.4,2.7-7.5,4.9
		c-2.3,2.4-4,5.4-4.8,8.6C123.7,157.5,124.7,157.7,124.9,157.1L124.9,157.1L124.9,157.1z"/>
	<path class="st1" d="M161.3,148.1c-4.1-2.8-9.5-3.4-14-1.6c-0.6,0.2-0.3,1.2,0.3,1c4.4-1.7,9.4-1.2,13.3,1.5
		C161.4,149.3,161.9,148.5,161.3,148.1L161.3,148.1L161.3,148.1z"/>
	<path class="st1" d="M161.4,148.2c-1.5-2.5-3.8-4.3-6.5-5.3c-0.6-0.2-1.3-0.5-2-0.4c-0.8,0.1-1.5,0.8-2.2,1.3l-2.2,1.6
		c-0.6,0.4-1.5,0.8-1.5,1.6c0,0.5,0.7,0.7,0.9,0.3c0.5-1,1.6-1.1,2.5-1.4s1.7-0.7,2.1-1.6c0.2-0.4-0.1-0.9-0.6-0.7
		c-0.8,0.2-1.3,0.8-1.4,1.6c0,0.3,0.4,0.6,0.6,0.5c1.1-0.3,1.9-0.9,2.5-1.9c0.2-0.3-0.1-0.7-0.4-0.8c-0.2,0-0.3,0-0.4,0.1l-0.1,0.1
		c-0.2,0.1-0.2,0.2,0,0.4l-0.2,0.3c0.1-0.1,0.7,0.2,0.8,0.2l0.9,0.3l1.9,0.6c0.9,0.3,2.2,0.6,2.5,1.6l0.7-0.6c-2-1-4-1.9-6.2-2.4
		c-0.5-0.1-0.9,0.7-0.4,0.9l3.4,1.6l0.3-0.9c-1.4,0.1-2.7-0.2-4-0.7l-0.1,1l0.9-0.1c0.6-0.1,0.7-1,0-1c-0.5,0-1.1,0.1-1.6,0.3
		c-0.3,0.1-0.5,0.4-0.3,0.7c0.2,0.4,0.8,0.5,1.2,0.3c0.2-0.1,0.3-0.3,0.5-0.6c0.1-0.2,0.1-0.2,0.3-0.3c0.2,0,0.6,0.1,0.7,0.1
		c1.6,0.2,3.2,0.8,4.6,1.6c0.6,0.3,1.1-0.6,0.5-0.9c-1.3-0.7-2.7-1.3-4.2-1.6c-0.6-0.1-1.4-0.3-2-0.2c-0.3,0-0.5,0.2-0.7,0.4
		c-0.1,0.1-0.1,0.2-0.2,0.3l-0.1,0.1c-0.1,0.1-0.1,0.2,0.1,0.2l-0.3,0.7c0.4-0.2,0.8-0.3,1.3-0.3v-1l-0.9,0.1
		c-0.6,0.1-0.7,0.8-0.1,1c1.4,0.5,2.8,0.8,4.3,0.7c0.5,0,0.7-0.7,0.3-0.9l-3.4-1.6l-0.4,0.9c2.1,0.4,4,1.4,6,2.3
		c0.4,0.2,0.9-0.1,0.7-0.6c-0.3-0.9-1-1.5-1.8-1.8c-1.1-0.5-2.3-0.8-3.4-1.2c-0.6-0.2-2.2-1.1-2.6-0.1c-0.1,0.3,0,0.7,0.3,0.9
		c0.2,0.1,0.4,0.1,0.6,0.1c0.2,0,0.4-0.2,0.6-0.2l-0.4-0.8c-0.5,0.7-1.1,1.1-1.9,1.4l0.6,0.5c0-0.4,0.3-0.6,0.6-0.7l-0.6-0.7
		c-0.4,1-1.6,1.1-2.5,1.4s-1.7,0.7-2.1,1.6l0.9,0.3c0-0.1,0.8-0.5,0.9-0.6l0.9-0.6l1.8-1.3c0.6-0.4,1.1-0.9,1.9-0.8
		c0.6,0.1,1.2,0.3,1.8,0.6c2.2,0.9,4.1,2.6,5.3,4.6C160.8,149.3,161.7,148.8,161.4,148.2L161.4,148.2L161.4,148.2z"/>
	<path class="st1" d="M144.7,118.6c0-0.5,0.8-0.9,1.1-1.1c0.7-0.4,1.5-0.7,2.4-0.9c1.9-0.5,3.7-0.7,5.6-0.7s3.8-0.1,5.6-0.7
		c1.5-0.5,3-1.4,3.8-2.7h-0.9c1.1,1.9-0.5,4-1.8,5.3c-1.3,1.2-2.8,2.4-4.5,2.9c-2.8,0.9-6.2,0.4-8.9-0.6
		C146.5,119.9,144.8,119.3,144.7,118.6c-0.1-0.6-1.1-0.7-1,0c0.1,1.1,1.3,1.7,2.1,2.1c1.5,0.7,3.2,1.1,4.9,1.3
		c1.8,0.2,3.7,0.2,5.4-0.3c2-0.6,3.8-1.9,5.2-3.3c1.7-1.6,3.2-4.1,1.9-6.4c-0.2-0.3-0.7-0.3-0.9,0c-0.9,1.5-2.9,2.2-4.5,2.6
		c-1,0.3-2.1,0.4-3.1,0.4c-0.9,0-1.7-0.1-2.6-0.1c-2,0.1-3.9,0.5-5.7,1.2c-1,0.4-2.7,1.1-2.7,2.4
		C143.7,119.2,144.7,119.2,144.7,118.6L144.7,118.6z"/>
	<path class="st1" d="M162,113.4c-0.5,1.6-1,3.1-2,4.4c-1,1.2-2.4,2-3.8,2.4c-1.6,0.5-3.3,0.5-5,0.1s-3.1-1.3-4.8-1.6
		c-0.5-0.1-0.9,0.6-0.4,0.9c1.2,0.6,2.4,1,3.7,1.4v-1c-0.5,0.1-0.9,0.1-1.4-0.1l-0.3,0.9c0.9,0,1.7,0.1,2.5,0.4l-0.1-0.9
		c-0.3,0.2-0.8,0-1.1-0.1c-0.5-0.1-0.9-0.3-1.4-0.5c-0.6-0.3-1.5-0.7-1.7-1.4c0-0.2-0.4-0.4-0.6-0.4c-1.1,0.4-1.1,1.7,0,2.1
		c0.5,0.2,0.9-0.7,0.4-0.9c-0.6-0.3,0-0.8,0.4-1c0.6-0.3,1.2-0.4,1.9-0.5c0.5-0.1,0.5-0.9,0-1l-0.9-0.2v1l1.9-0.4l-0.3-1
		c-1,0.3-2,0.6-2.8,1.2c-0.4,0.3-0.3,0.9,0.3,0.9c0.4,0,0.8-0.2,0.9-0.6c0.1-0.3-0.1-0.5-0.4-0.6l-0.6-0.2v1
		c2.5-0.7,5.1-1.1,7.7-1.5s5-1,7.4-1.9l-0.4-0.9c-0.8,0.5-1.3,1.3-1.6,2.1s-0.6,1.8-1.4,2.4c-0.4,0.4,0.1,1.1,0.6,0.8
		c0.7-0.4,1.4-1,1.8-1.7c0.3-0.6,0.3-1.6,1-1.9l-0.7-0.7c-0.6,1.6-1.9,2.7-3.3,3.5c-0.4,0.2-0.3,0.8,0.1,0.9c0.8,0.2,2,0,2.3-0.9
		c0.1-0.3-0.1-0.6-0.5-0.6c-0.8,0-1.6,0.4-1.7,1.2c0,0.3,0.4,0.6,0.6,0.5l0.8-0.2l-0.5-0.8c-1.4,1.6-3.7,2.1-5.7,1.9
		c-2.2-0.2-4.2-1.2-6-2.3c-0.4-0.2-0.8,0.1-0.7,0.6c0.1,0.5,0.4,0.9,0.8,1.3V119c-0.1,0.1-0.3,0.1-0.4,0c-0.6-0.3-1,0.5-0.5,0.9
		c0.2,0.1,0.4,0.3,0.5,0.6l0.6-0.7c-0.7-0.3,0.3-0.9,0.5-1.2c0.4-0.4,0.7-0.8,1-1.2c0.7-1,2.2-1.1,3.4-1c1.4,0,2.8,0.3,4.2,0.1
		c1.3-0.1,2.5-0.6,3.8-1.1l-0.6-0.6c-0.4,2.2-2.5,3.6-4.5,4.4c-0.4,0.2-0.5,0.9,0,1c1.1,0.2,2.7,0,3.2-1.3c0.1-0.3-0.3-0.8-0.6-0.6
		c-1.5,0.6-2.9,1-4.5,1.4c-0.6,0.1-0.4,0.9,0.1,1c1,0.1,2,0,3-0.3c0.4-0.1,0.5-0.9,0-1c-1.9-0.4-3.8,0.4-5.8-0.2
		c-0.5-0.1-1.8-0.6-1.8-1.3c0-0.4,0.5-0.4,0.7-0.4c0.4-0.1,0.6-0.2,0.9-0.4c0.4-0.3,0-1-0.5-0.8c-0.8,0.3-1.7,1-1.6,2
		c0,0.5,0.7,0.7,0.9,0.3c0.4-0.6,1.1-0.8,1.7-1l-0.5-0.8l-1.6,1.8c-0.3,0.4,0,1,0.5,0.8c1.2-0.4,2.4-1,3.3-1.9
		c0.3-0.3,0.1-0.9-0.4-0.9c-1.1,0-2.8,0.6-2.7,1.9c0,0.4,0.4,0.6,0.8,0.4c0.9-0.4,1.8-0.9,2.5-1.6c0.4-0.4-0.1-1.1-0.6-0.8
		c-0.7,0.5-2.3,0.8-2.1,2c0.1,1.3,1.8,1,2.5,0.5c0.6-0.4,2.5-1.8,1.4-2.5c-0.5-0.3-1.1-0.1-1.6,0c-0.6,0.2-1.1,0.5-1.6,0.9
		c-0.4,0.4,0,0.9,0.5,0.8c0.6-0.1,1.5-0.2,1.6-1c0-0.3-0.1-0.5-0.3-0.7c-0.1-0.1-0.2-0.1-0.4-0.2c-0.1,0-0.5,0-0.5-0.1l0.1,0.4v-0.1
		l-0.3,0.4c0,0,0.8,0.1,0.9,0.1c0.4,0,0.7,0,1.1,0c0.7,0,1.4-0.1,2.1-0.2c1.3-0.2,2.6-0.6,3.7-1.3l-0.6-0.8
		c-1.3,1.4-2.8,2.6-4.4,3.6c-0.5,0.3,0,1.2,0.5,0.9c1.2-0.7,2.3-1.5,3.2-2.4c0.4-0.4,0-0.9-0.5-0.8c-1.3,0.3-2.6,0.9-3.4,2
		c-0.3,0.3-0.1,0.8,0.4,0.9c1.1,0,2.3-0.2,3.1-1c0.4-0.4,0-0.9-0.5-0.8c-0.9,0.2-1.8,0.6-2.4,1.3c-0.3,0.4,0,1,0.5,0.8
		c1.2-0.4,2.4-1.1,3-2.3c0.3-0.6-0.5-1-0.9-0.5l-0.6,0.8c-0.3,0.4,0.3,0.9,0.7,0.7c0.6-0.3,1.2-0.8,1.5-1.4c0.3-0.5-0.3-0.9-0.7-0.7
		c-0.8,0.4-1.4,0.9-1.9,1.6c-0.3,0.4,0.2,0.8,0.6,0.7c0.7-0.1,1.1-0.7,0.8-1.4c-0.1-0.2-0.4-0.3-0.6-0.2c-1.6,0.6-3.1,1.7-3.6,3.4
		c-0.1,0.5,0.5,0.9,0.8,0.5c0.7-0.8,1.2-1.7,1.1-2.8c0-0.3-0.3-0.6-0.6-0.5c-1.1,0.2-2.1,0.7-2.7,1.6c-0.3,0.5,0.3,0.9,0.7,0.7
		c0.8-0.4,1.6-0.8,2.2-1.4c0.4-0.4-0.1-1.1-0.6-0.8c-0.6,0.5-1.1,1-1.2,1.8c0,0.3,0.3,0.6,0.6,0.5c1.2-0.3,2.4-1.1,2.6-2.4
		c0-0.3-0.4-0.6-0.6-0.5c-0.9,0.3-1.8,0.6-2.5,1.2c-0.5,0.4,0.1,1,0.6,0.8c0.6-0.3,1.1-0.7,1.5-1.2c0.3-0.4-0.3-0.9-0.7-0.7
		c-0.9,0.5-1.6,1.2-2,2.1c-0.2,0.4,0.4,0.7,0.7,0.6c0.7-0.4,1.3-0.9,1.5-1.6c0.2-0.4-0.4-0.7-0.7-0.6c-0.9,0.4-1.7,0.9-2.3,1.7
		c-0.3,0.4,0,0.9,0.5,0.8c0.8-0.1,1.5-0.5,1.9-1.2c0.2-0.4-0.1-0.8-0.6-0.7c-0.7,0.1-1.4,0.4-1.8,1c-0.3,0.4,0,1,0.5,0.8
		c0.7-0.2,1.3-0.6,1.5-1.3c0.1-0.4-0.3-0.7-0.6-0.6c-0.7,0.1-1.3,0.3-1.8,0.7c-0.5,0.4-0.1,1.2,0.5,0.9l1.5-0.9l-0.6-0.8l-1.3,1.2
		c-0.4,0.4,0.1,1,0.6,0.8c0.6-0.3,1.1-0.8,1-1.6c0-0.3-0.3-0.6-0.6-0.5c-0.6,0.1-1.3,0.4-1.6,1.1c-0.2,0.4,0.2,1,0.7,0.7l1.1-0.8
		c0.4-0.3,0.2-1.1-0.4-0.9c-0.7,0.3-1.3,0.6-1.8,1.2c-0.2,0.3-0.1,0.9,0.4,0.9c0.9-0.1,1.9-0.5,2.1-1.4c0.1-0.3-0.3-0.7-0.6-0.6
		c-0.8,0.3-1.5,0.7-1.9,1.5c-0.2,0.5,0.2,0.9,0.7,0.7c0.7-0.3,1.2-0.8,1.4-1.5c0.1-0.4-0.2-0.7-0.6-0.6c-0.5,0.1-0.9,0.3-1.2,0.7
		c-0.4,0.5,0.2,1.1,0.7,0.7l1-1c0.4-0.4,0-1-0.5-0.8s-0.9,0.3-1.2,0.7c-0.4,0.4,0.1,1,0.6,0.8c0.8-0.4,1.6-0.9,2.4-1.4
		c0.5-0.4,0-1.2-0.5-0.9l-1.3,0.8c-0.5,0.3-0.1,1.2,0.5,0.9c0.4-0.2,0.7-0.4,1-0.7c0.5-0.5-0.2-1.1-0.7-0.7l-0.8,0.6
		c-0.3,0.2-0.1,0.8,0.2,0.8c0.6,0.1,1.5-0.1,1.7-0.8c0.1-0.3-0.2-0.8-0.6-0.6c-1.3,0.5-2.5,1.2-3.4,2.2c-0.3,0.3-0.1,0.9,0.4,0.9
		c1.1-0.1,2.2-0.5,2.6-1.6c0.1-0.3-0.2-0.6-0.5-0.6c-0.8-0.1-1.8,0.2-2.1,1c-0.1,0.3,0.2,0.6,0.5,0.6c1.3,0,2.9-0.4,3.6-1.6
		c0.2-0.3,0-0.6-0.3-0.7c-0.4-0.2-0.9-0.1-1.3,0.1s-0.3,1,0.3,0.9c0.9-0.1,1.7-0.3,2.5-0.7c0.6-0.3,0.1-1.2-0.5-0.9
		c-0.6,0.3-1.3,0.5-2,0.6l0.3,0.9c0.2-0.1,0.3-0.1,0.5,0l-0.3-0.7c-0.5,0.9-1.8,1.1-2.8,1.1l0.5,0.6c0.1-0.4,0.8-0.3,1.1-0.3
		l-0.5-0.6c-0.2,0.6-1.1,0.8-1.6,0.8l0.4,0.9c0.8-0.9,1.8-1.6,3-2l-0.6-0.6c0,0.1-0.4,0.1-0.5,0.1l0.2,0.8l0.8-0.6l-0.7-0.7
		c-0.2,0.2-0.5,0.4-0.8,0.6l0.5,0.9l1.3-0.8l-0.5-0.9c-0.8,0.5-1.6,0.9-2.4,1.4l0.6,0.8c0.2-0.2,0.5-0.3,0.8-0.4l-0.5-0.8l-1,1
		l0.7,0.7c0.2-0.2,0.5-0.4,0.8-0.4l-0.6-0.6c-0.1,0.5-0.5,0.7-0.9,0.9l0.7,0.7c0.2-0.5,0.7-0.9,1.3-1l-0.6-0.6
		c-0.1,0.5-0.8,0.6-1.2,0.7l0.4,0.9c0.4-0.4,0.8-0.7,1.3-0.9l-0.4-0.9l-1.1,0.8l0.7,0.7c0.2-0.4,0.6-0.5,1-0.6l-0.6-0.5
		c0,0.4-0.3,0.6-0.5,0.7l0.6,0.8l1.3-1.2c0.4-0.4-0.1-1.1-0.6-0.8l-1.5,0.9l0.5,0.9c0.5-0.3,1-0.5,1.6-0.6l-0.6-0.6
		c-0.1,0.3-0.5,0.5-0.8,0.6l0.5,0.8c0.4-0.4,0.8-0.6,1.4-0.7l-0.6-0.7c-0.3,0.5-0.8,0.6-1.3,0.7l0.5,0.8c0.6-0.7,1.3-1.2,2.1-1.5
		l-0.7-0.6c-0.2,0.5-0.6,0.8-1.1,1l0.7,0.6c0.3-0.7,0.9-1.2,1.6-1.5l-0.7-0.7c-0.3,0.4-0.7,0.7-1.1,0.9l0.6,0.8
		c0.6-0.5,1.3-0.8,2.1-1l-0.6-0.5c-0.1,0.8-1.2,1.3-1.9,1.4l0.6,0.5c0-0.4,0.3-0.7,0.7-1l-0.6-0.8c-0.6,0.5-1.3,0.9-2,1.2l0.7,0.7
		c0.5-0.7,1.3-1,2.1-1.2l-0.6-0.5c0.1,0.8-0.3,1.5-0.8,2.1l0.8,0.5c0.4-1.3,1.6-2.2,2.9-2.7l-0.6-0.2c0-0.2,0-0.2-0.2-0.1l0.6,0.7
		c0.4-0.5,0.9-0.9,1.5-1.2l-0.7-0.7c-0.3,0.5-0.7,0.8-1.1,1l0.7,0.7l0.6-0.8l-0.9-0.5c-0.5,1-1.4,1.5-2.4,1.8l0.5,0.8
		c0.5-0.6,1.2-0.9,2-1.1l-0.5-0.8c-0.6,0.6-1.6,0.7-2.4,0.7l0.4,0.9c0.7-0.9,1.8-1.4,3-1.7l-0.5-0.8c-0.9,0.9-1.9,1.6-3,2.3l0.5,0.9
		c1.7-1.1,3.2-2.3,4.6-3.8c0.4-0.4-0.1-1.1-0.6-0.8c-1.8,1-3.9,1.4-6,1.4c-0.5,0-2.1-0.5-2,0.5c0,0.3,0.3,0.5,0.6,0.6
		c0.1,0,0.2,0,0.3,0c0.2,0.1,0.3,0,0.1-0.2c-0.2,0-0.6,0.1-0.7,0.1l0.5,0.8c0.3-0.3,0.6-0.4,0.9-0.6c0.3-0.1,0.9-0.3,1.1-0.2
		l-0.2-0.3l0,0.1l0-0.4c-0.2,0.4-0.5,0.7-0.8,0.9c-0.3,0.2-1,0.8-1.4,0.7s0.2-0.4,0.4-0.5c0.4-0.2,0.7-0.3,1.1-0.6l-0.6-0.8
		c-0.7,0.6-1.5,1.1-2.3,1.4l0.8,0.4c0-0.8,1.1-0.9,1.7-1l-0.4-0.9c-0.8,0.8-1.8,1.3-2.9,1.7l0.5,0.8l1.6-1.8c0.3-0.4,0-0.9-0.5-0.8
		c-0.9,0.2-1.8,0.6-2.3,1.4l0.9,0.3c-0.1-0.5,0.4-0.9,0.8-1l-0.5-0.8c-0.3,0.3-0.9,0.2-1.3,0.4c-0.3,0.2-0.6,0.5-0.6,0.8
		c-0.2,0.9,0.5,1.6,1.2,2c0.9,0.6,2,0.8,3.1,0.9c1.3,0.1,2.7-0.4,4-0.1v-1c-0.9,0.3-1.8,0.4-2.7,0.3l0.1,1c1.5-0.4,3-0.9,4.5-1.4
		l-0.6-0.6c-0.2,0.6-1.4,0.7-2,0.6v1c2.3-0.9,4.6-2.5,5.2-5.1c0.1-0.3-0.2-0.8-0.6-0.6c-1.6,0.6-3.2,1.2-5,1.1c-1.7-0.1-3.4-0.4-5,0
		c-0.6,0.2-1.2,0.4-1.7,0.9c-0.2,0.3-0.4,0.6-0.6,0.8c-0.2,0.3-0.5,0.5-0.8,0.8c-0.4,0.4-0.9,0.8-0.9,1.4s0.5,1,1,1.2
		c0.4,0.2,0.7-0.4,0.6-0.7c-0.2-0.4-0.5-0.7-0.9-0.9l-0.5,0.9c0.5,0.3,1.1,0.2,1.6-0.2c0.2-0.2,0.2-0.5,0-0.7
		c-0.3-0.3-0.5-0.5-0.6-0.9l-0.7,0.6c2.1,1.2,4.3,2.3,6.8,2.4c2.2,0.1,4.7-0.5,6.2-2.2c0.3-0.4,0-1-0.5-0.8l-0.8,0.2l0.6,0.5
		c0-0.2,0.5-0.2,0.7-0.2l-0.5-0.6c-0.1,0.3-0.8,0.3-1,0.2l0.1,0.9c1.6-0.9,3-2.1,3.7-3.8c0.2-0.5-0.2-0.9-0.7-0.7
		c-0.7,0.3-0.9,0.9-1,1.6c-0.2,0.9-0.9,1.6-1.7,2l0.6,0.8c0.7-0.6,1-1.3,1.4-2.1c0.3-0.9,0.6-1.7,1.4-2.3c0.4-0.3,0.2-1.1-0.4-0.9
		c-2.5,0.9-5,1.6-7.6,1.9s-5,0.7-7.5,1.4c-0.5,0.1-0.5,0.8,0,1l0.6,0.2l-0.4-0.6l0-0.1l0.3,0.9c0.8-0.6,1.7-0.9,2.6-1.1
		c0.6-0.1,0.4-1.1-0.3-1l-1.9,0.4c-0.5,0.1-0.5,0.9,0,1l0.9,0.2v-1c-1,0.2-2.3,0.4-3,1.3c-0.5,0.7-0.3,1.6,0.5,2l0.4-0.9
		c-0.2-0.1-0.3-0.1,0-0.2l-0.6-0.4c0.3,1.1,1.4,1.7,2.3,2.1c0.9,0.4,2.5,1.2,3.3,0.5c0.3-0.3,0.3-0.8-0.1-0.9
		c-0.9-0.3-1.8-0.4-2.7-0.4c-0.5,0-0.7,0.7-0.3,0.9c0.7,0.3,1.4,0.4,2.1,0.2c0.5-0.1,0.5-0.9,0-1c-1.2-0.3-2.4-0.7-3.5-1.3l-0.4,0.9
		c1.9,0.4,3.5,1.4,5.4,1.8c1.8,0.4,3.6,0.2,5.3-0.4c1.6-0.5,3-1.4,4-2.7c1.1-1.4,1.7-3,2.2-4.7c0.2-0.6-0.8-0.9-1-0.3l0,0L162,113.4
		z"/>
	<path class="st1" d="M151.6,118.6c-0.7,0-1.2-0.2-1.8-0.5s-1.2-0.4-1.9-0.6c-0.8-0.1-2.4-0.5-2.8,0.3l0.7-0.2l-0.1-0.1l0.2,0.3
		c0.1,0.2,1.3-0.2,1.5-0.2l1.8-0.4c0.4-0.1,0.5-0.6,0.2-0.8c-0.3-0.4-0.8-0.5-1.3-0.4l0.1,1c2.5-0.5,5.2-0.4,7.7,0.4v-1
		c-0.5,0.2-1.1,0.2-1.6,0v1c1.9-0.3,3.9-0.3,5.7-1c1.3-0.4,2.7-1.2,2.8-2.6c0.1-0.5-0.6-0.6-0.9-0.4c-1.8,1.4-3.6,2.7-5.5,3.9
		c-1,0.6-1.9,1.2-2.9,1.7c-0.6,0.4-1.6,0.8-1.1,1.7l0.4-0.8c-0.8,0-1.5,0.1-2.2,0.6c-0.3,0.2-0.3,0.5-0.1,0.8
		c0.3,0.3,0.7,0.4,1.1,0.1c0.2-0.1,0.2-0.4,0.1-0.6c-0.1-0.1-0.2-0.2-0.3-0.3c-0.2-0.1-0.4-0.1-0.6,0.1l0,0
		c-0.5,0.4,0.2,1.1,0.7,0.7l0,0l-0.6,0.1l-0.1-0.1l0.1-0.6l0,0l0.4-0.1v0l-0.1,0.8c0.5-0.3,1.1-0.4,1.7-0.4c0.4,0,0.6-0.4,0.4-0.8
		c0,0.2,0.1,0.2,0.2,0c0.1-0.1,0.2-0.1,0.3-0.1c0.2-0.1,0.4-0.2,0.6-0.4c0.4-0.3,0.9-0.5,1.3-0.8c0.8-0.5,1.6-1,2.4-1.5
		c1.6-1,3.1-2.1,4.6-3.3l-0.9-0.4c-0.1,1.2-2.2,1.8-3.1,2c-1.5,0.4-3.1,0.4-4.7,0.7c-0.5,0.1-0.4,0.8,0,1c0.7,0.2,1.4,0.3,2.1,0
		c0.5-0.2,0.5-0.8,0-1c-2.7-0.8-5.5-0.9-8.2-0.4c-0.5,0.1-0.4,1,0.1,1c0.2,0,0.4,0,0.5,0.1l0.2-0.8c-1.1,0.2-2.3,0.4-3.4,0.7
		c-0.7,0.3-1,1-0.3,1.5c0.2,0.2,0.6,0,0.7-0.2c-0.1,0.1-0.1,0.1,0.1,0c0.1,0,0.2,0,0.3,0c0.3,0,0.6,0,0.9,0.1c0.5,0.1,1,0.2,1.5,0.3
		c1,0.3,1.8,0.8,2.8,0.8C152.2,119.5,152.2,118.5,151.6,118.6L151.6,118.6L151.6,118.6z"/>
	<path class="st1" d="M144.4,119.6c0.6,0,0.6-1,0-1S143.8,119.6,144.4,119.6L144.4,119.6z"/>
	<path class="st1" d="M160.6,108c-0.8-2.4,0.6-4.8,2.2-6.6s3.5-3.5,5.9-3.4c0.7,0,0.6-0.9,0-1c-7-0.8-14.2,2-18.7,7.5
		c-1.2,1.5-2.2,3.1-3,4.8c-0.3,0.6,0.6,1.1,0.9,0.5c1.7-3.7,4.5-6.9,8-9c3.8-2.3,8.4-3.3,12.9-2.8v-1c-2.8,0-5,1.9-6.7,3.9
		s-3.2,4.7-2.3,7.4C159.8,108.9,160.8,108.7,160.6,108L160.6,108L160.6,108z"/>
	<path class="st1" d="M157.1,108.3c-0.1-1.1,0-2.2,0.5-3.2s1.3-1.8,1.8-2.8c0.2-0.5-0.2-0.9-0.7-0.7c-1,0.4-2,0.8-2.9,1.3
		c-0.9,0.4-1.6,1-2.3,1.8s-1.3,1.6-1.6,2.5c-0.3,0.9,0,1.8,1,2c1.2,0.3,2.5,0.1,3.6-0.1c0.6-0.1,0.4-1.1-0.3-1
		c-0.6,0.1-1.2,0.2-1.8,0.2c-0.3,0-0.6,0-0.9,0c-0.2,0-0.5,0-0.6-0.1c-0.7-0.4,0.6-1.9,0.9-2.2c0.6-0.8,1.3-1.5,2.2-2
		c1-0.5,2.1-0.9,3.1-1.4l-0.7-0.7c-0.5,1.1-1.4,1.9-1.9,3s-0.7,2.3-0.6,3.4c0,0.3,0.2,0.5,0.5,0.5
		C156.8,108.8,157.1,108.6,157.1,108.3L157.1,108.3L157.1,108.3z"/>
	<path class="st1" d="M157.9,102.5c-1,0.8-2.2,1.5-3.1,2.3c-0.4,0.4-0.8,0.8-1.1,1.3c-0.1,0.3-0.3,0.5-0.4,0.8
		c-0.1,0.1-0.1,0.3-0.2,0.4c0,0.1-0.1,0.1-0.1,0.1l0.3,0.7c0.2-0.4,0.4-0.8,0.6-1.2s0.6-0.7,0.9-1c0.5-0.5,0.9-1.3,1.5-1.6l-0.5-0.9
		c-0.6,0.4-1.3,0.9-1.8,1.5c-0.5,0.5,0.2,1.1,0.7,0.7l2.1-1.7l-0.8-0.2c0.1,0.6,0,1.2-0.3,1.7l0.9,0.4c0.1-0.4,0.2-0.7,0.3-1.1
		c0-0.1,0.1-0.4,0.2-0.5l-0.6-0.2c0.2,0.3,0,0.6-0.2,0.9c-0.2,0.3-0.4,0.7-0.6,1c-0.3,0.7-0.5,1.6-0.2,2.4c0.1,0.2,0.3,0.4,0.5,0.4
		c0.2,0,0.4-0.2,0.4-0.5l0-2.4c0-0.4,0-0.7-0.3-1s-0.7-0.3-1,0c-0.3,0.2-0.3,0.7-0.4,1c-0.1,0.4-0.3,0.7-0.3,1.1s-0.1,0.8,0.1,1.1
		s0.5,0.6,0.8,0.8l0.3-0.9c-0.5,0-0.9-0.1-1.3-0.3s-1,0-1.1,0.5s0.2,0.9,0.7,0.9c0.4,0,0.8-0.1,1.2-0.3c0.6-0.3,1.6-1.3,1-2
		c-0.3-0.4-0.9-0.3-1.1,0.1c-0.1,0.2-0.1,0.4-0.1,0.6c0,0.2,0,0,0.1,0.1l0.1,0.2c-0.1-0.2,0.1-0.5,0.1-0.7c0.1-0.3,0.2-0.5,0.3-0.8
		c0.3-0.6-0.5-1-0.9-0.5c-0.3,0.4-0.6,0.7-0.8,1.1c-0.2,0.3-0.4,0.8-0.2,1.2c0.1,0.3,0.4,0.4,0.7,0.3s0.6-0.4,0.6-0.8
		c0-0.3-0.1-0.5-0.4-0.6c-0.2-0.1-0.6,0.1-0.6,0.4c0,0.1,0,0.1-0.2,0.2l0.7,0.3c-0.1-0.2,0.2-0.5,0.3-0.7l0.7-0.9l-0.9-0.5
		c-0.2,0.4-0.4,0.9-0.5,1.4c-0.1,0.4-0.2,0.9,0.2,1.2c0.3,0.2,0.7,0.2,1,0c0.2-0.1,0.3-0.3,0.4-0.6c0-0.1,0-0.2,0-0.3
		c0-0.1,0-0.1,0-0.2c0-0.1,0-0.1-0.1,0.1l-0.3,0.1l-0.1-0.1l-0.1-0.2c0-0.1,0-0.1,0,0c0,0,0,0.1-0.1,0.1c0,0.1-0.1,0.1-0.1,0.1
		c-0.1,0.1-0.2,0.2-0.4,0.3c-0.1,0.1-0.3,0.1-0.4,0.2c-0.1,0-0.2,0.1-0.2,0.1c0,0-0.1,0-0.1,0c-0.1,0-0.1,0,0,0l0.2,0.2l-0.2,0.4
		c0,0,0.1,0,0.1,0c0,0,0.1,0.1,0.2,0.1c0.2,0.1,0.3,0.1,0.5,0.2c0.3,0.1,0.6,0.1,1,0.1c0.5,0,0.7-0.6,0.3-0.9
		c-0.1-0.1-0.4-0.2-0.4-0.4s0-0.4,0.1-0.6c0.1-0.3,0.2-0.5,0.2-0.8c0-0.1,0.1-0.5,0.2-0.6l-0.2,0.1c-0.1,0-0.2,0-0.2-0.1
		c0,0,0,0.1,0,0.1c0,0.1,0,0.2,0,0.3v0.8l0,1.5l1-0.1c-0.3-0.8,0-1.5,0.4-2.2c0.4-0.7,1.1-1.5,0.5-2.3c-0.1-0.2-0.3-0.3-0.6-0.2
		c-0.4,0.1-0.7,0.5-0.8,0.9c-0.2,0.5-0.3,0.9-0.4,1.4c-0.1,0.5,0.7,0.9,0.9,0.4c0.4-0.8,0.5-1.6,0.4-2.5c0-0.4-0.6-0.4-0.8-0.2
		l-2.1,1.7l0.7,0.7c0.5-0.5,1-0.9,1.6-1.3c0.5-0.4,0.1-1.1-0.5-0.9c-0.8,0.4-1.1,1.2-1.7,1.8c-0.4,0.4-0.7,0.7-1,1.1
		c-0.3,0.4-0.5,0.8-0.6,1.3c-0.1,0.3,0,0.7,0.3,0.7c0.8,0.1,1.2-0.5,1.5-1.1c0.2-0.6,0.5-1.1,1-1.5s0.9-0.8,1.4-1.1
		c0.6-0.4,1.2-0.9,1.9-1.4c0.2-0.2,0.3-0.4,0.2-0.7C158.4,102.4,158.1,102.3,157.9,102.5L157.9,102.5L157.9,102.5z"/>
	<path class="st1" d="M97.6,191c0.6,0,0.6-1,0-1S97,191,97.6,191L97.6,191z"/>
	<path class="st1" d="M155.5,106.8c0.6,0,0.6-1,0-1S154.8,106.8,155.5,106.8L155.5,106.8z"/>
	<path class="st1" d="M156.6,109c0.6,0,0.6-1,0-1S155.9,109,156.6,109L156.6,109z"/>
	<path class="st1" d="M153.2,108.7c0.6,0,0.6-1,0-1S152.6,108.7,153.2,108.7L153.2,108.7z"/>
	<path class="st1" d="M108,180.2c0.6,0,0.6-1,0-1S107.3,180.2,108,180.2L108,180.2z"/>
	<path class="st1" d="M107.8,180.1c0.6,0,0.6-1,0-1S107.2,180.1,107.8,180.1L107.8,180.1z"/>
	<path class="st1" d="M48,130c0.6,0,0.6-1,0-1S47.4,130,48,130L48,130z"/>
	<path class="st1" d="M67.1,143c0.6,0,0.6-1,0-1S66.4,143,67.1,143L67.1,143z"/>
	<path class="st1" d="M67.1,142.8c0.6,0,0.6-1,0-1S66.5,142.8,67.1,142.8L67.1,142.8z"/>
	<path class="st1" d="M66.7,143c0.6,0,0.6-1,0-1S66,143,66.7,143L66.7,143z"/>
	<path class="st1" d="M66.9,143c0.6,0,0.6-1,0-1S66.3,143,66.9,143L66.9,143z"/>
	<path class="st1" d="M67,143c0.6,0,0.6-1,0-1S66.3,143,67,143L67,143z"/>
	<path class="st1" d="M63,146.9c2.8,1.9,5,4.6,6.4,7.7c0.7,1.5,1.2,3.2,1.4,4.8c0.3,1.9,0.2,3.9,0.5,5.9c0.5,3.4,2.1,6.4,5,8.3
		c1.2,0.8,2.7,1.4,4.2,1.3s2.6-1.1,2.8-2.6c0.2-1.8-0.3-3.8-1.5-5.1s-3.1-2-4.8-1.5c-0.6,0.2-0.4,1.1,0.3,1c1.5-0.5,3.2,0.2,4.1,1.5
		c0.8,1.2,1.3,3.1,0.8,4.5s-2.2,1.4-3.4,1c-1.4-0.4-2.6-1.4-3.6-2.4s-1.8-2.4-2.3-3.8c-0.6-1.7-0.7-3.5-0.8-5.3
		c-0.2-3.1-0.7-6.1-2.1-8.9s-3.7-5.5-6.4-7.3C63,145.7,62.5,146.5,63,146.9L63,146.9L63,146.9z"/>
	<path class="st1" d="M126.1,158c0.8-3.3,2.6-6.2,5-8.6c1.2-1.2,2.6-2.2,4.1-3c1.6-0.9,3.4-1.5,5.1-2.4c3.1-1.6,5.5-4.1,6.3-7.6
		c0.4-1.4,0.5-3-0.1-4.4s-1.8-2.2-3.3-1.9c-3.5,0.6-6.8,4.9-4.3,8.2c0.4,0.5,1.3,0,0.9-0.5c-1-1.3-0.9-3.1,0.1-4.4
		c0.8-1.2,2.5-2.3,4-2.3s2,1.7,2,2.9c0,1.5-0.4,3.1-1.1,4.4s-1.7,2.6-3,3.5c-1.3,1-2.9,1.6-4.4,2.3c-2.8,1.2-5.4,2.7-7.5,4.9
		c-2.3,2.4-4,5.4-4.8,8.6C125,158.4,125.9,158.6,126.1,158L126.1,158L126.1,158z"/>
	<path class="st1" d="M57.6,133.9c-0.1-0.4-0.2-0.7-0.1-1.1c0-0.2,0-0.3,0.1-0.4c0,0,0-0.1,0-0.1c0-0.1,0,0.1,0,0c0,0,0-0.1,0.1-0.1
		c0-0.1,0,0,0,0c0.1-0.1,0,0,0,0c0,0,0.1-0.1,0,0c0,0,0.1-0.1,0,0h0c0,0,0,0,0,0c0,0,0.1,0,0.1,0c-0.1,0,0,0,0,0c0,0,0.1,0.1,0.1,0
		c0,0,0.1,0.1,0.1,0.1c0.1,0.1,0,0,0,0c0,0,0,0.1,0.1,0.1s0,0.1,0,0.1c0-0.1,0,0,0,0c0,0,0,0.1,0,0.1c0,0,0-0.1,0,0c0,0,0,0.1,0,0.1
		s0,0,0,0c0,0,0,0.1,0,0.1c0,0,0,0.1,0,0c0,0,0,0.1,0,0.1c0,0.1,0.1-0.1,0,0c0,0,0,0,0,0.1c0.1-0.1,0,0,0,0c0,0-0.1,0.1,0,0
		c0,0,0,0-0.1,0c0,0,0,0-0.1,0c0.1,0,0.1,0,0,0c0,0-0.1,0-0.1,0c-0.1,0,0,0,0,0c0,0-0.1,0-0.1,0c0,0,0,0,0,0c0,0-0.1-0.1,0,0
		s0,0,0,0c0,0,0,0.1,0,0c0-0.1,0,0.1,0,0c0,0.2,0,0,0,0c0,0,0,0.1,0,0v0c0,0.1,0,0.1,0,0c0,0,0-0.1,0-0.1c-0.1,0.1,0,0,0,0
		c0,0,0.1-0.1,0,0c0,0,0,0,0.1,0c-0.1,0.1,0,0,0,0s-0.1,0,0,0c0.1,0-0.1,0,0,0c-0.1,0-0.1,0,0,0c0,0-0.1-0.1,0,0c0,0,0,0.1,0,0
		c0,0,0,0.1,0,0.1c0,0,0,0.1,0,0.1c0,0.1,0-0.1,0,0c0,0.1,0,0.2,0,0.3c0,0,0,0.1,0,0c0,0,0,0.1,0,0.1c0,0.1,0,0.2-0.1,0.3
		c0-0.1,0,0.1-0.1,0.1c0,0,0,0.1-0.1,0.1c0,0.1,0-0.1,0,0c0,0.1-0.1,0.1-0.1,0.2c0,0-0.1,0.1-0.1,0.1c0.1-0.1,0,0,0,0c0,0,0,0-0.1,0
		c0,0-0.2,0.1-0.1,0l0.6,0.2c0,0,0-0.1,0-0.1c0,0.1,0,0,0,0c0-0.1,0-0.1,0-0.2c0-0.1,0,0.1,0,0c0,0,0-0.1,0-0.1
		C57.6,134.1,57.6,134,57.6,133.9C57.6,134,57.6,133.9,57.6,133.9C57.6,133.9,57.6,133.8,57.6,133.9c0.1-0.2,0.1-0.2,0.1-0.3
		c0,0,0-0.1,0-0.1c0,0,0-0.1,0-0.1c0-0.1,0.1-0.1,0.1-0.2c0.1-0.2,0.3-0.4,0.5-0.6s0.5-0.4,0.7-0.6l-0.8-0.5c-0.2,0.9-0.5,1.7-1,2.6
		c-0.1,0.2-0.1,0.6,0.2,0.7s0.5,0.1,0.7-0.2c0.5-0.9,0.9-1.8,1.1-2.8c0-0.2,0-0.5-0.2-0.6c-0.2-0.1-0.4-0.1-0.6,0.1
		c-0.6,0.4-1.1,0.9-1.5,1.6c-0.4,0.7-0.5,1.5-0.1,2.2c0.1,0.2,0.4,0.3,0.6,0.2c0.9-0.4,1.5-1.3,1.4-2.2c0-0.6-0.3-1.2-1-1.2
		c-0.5,0-1,0.4-1.1,0.8c-0.1,0.5,0.2,1.1,0.7,1.2c0.4,0.1,1,0,1.3-0.3c0.4-0.4,0.5-1,0.3-1.4c-0.2-0.5-0.6-1-1.2-1.1
		c-0.7-0.1-1.2,0.5-1.3,1.1s-0.1,1.3,0.1,1.9c0.1,0.3,0.4,0.4,0.6,0.4C57.4,134.4,57.6,134.2,57.6,133.9L57.6,133.9L57.6,133.9z"/>
	<path class="st1" d="M117.6,171.2c-0.1-0.1-0.2-0.1-0.2-0.2c0,0,0,0,0-0.1c0,0-0.1-0.1,0,0c0,0.1,0,0,0,0c0,0,0,0,0-0.1
		c-0.1-0.1-0.1-0.2-0.2-0.3c0-0.1,0-0.1-0.1-0.1c0,0,0-0.1,0-0.1c0-0.1,0,0.1,0,0c-0.1-0.2-0.1-0.4-0.2-0.6c0,0,0-0.1,0-0.1
		s0,0.1,0,0c0-0.1,0-0.1,0-0.1c0-0.1,0-0.2,0-0.4l-0.5,0.5c0.1,0,0,0,0,0s0.1,0,0.1,0c0,0,0.1,0,0.1,0c0,0,0.1,0.1,0,0
		c0,0,0.1,0.1,0.2,0.1c0,0,0.1,0,0.1,0.1c0.1,0.1-0.1-0.1,0,0c0,0.1,0.1,0.1,0.1,0.1c0,0,0.1,0.1,0.1,0.1c0,0,0-0.1,0,0
		c0,0.1,0.1,0.1,0.1,0.2c0,0,0.1,0.1,0,0.1s0,0,0,0.1c0,0.1,0,0.1,0,0.2c0,0.1,0,0,0,0s0,0.1,0,0.1c0,0.2,0,0.3,0,0.5
		c0,0.1,0.1,0.2,0.1,0.3l0,0c0,0,0,0,0,0v0c0,0.1,0,0,0,0c0-0.2,0.2-0.4,0.4-0.4c0,0,0.1,0,0.1,0c0,0,0.1,0.1,0.1,0
		c0.1,0,0.2,0.1,0.2,0.2v0.3l0,0l-0.1,0.2c-0.3,0.1-0.4,0.1-0.3,0.1c0.3,0,0.5-0.3,0.5-0.5c0-0.3-0.2-0.5-0.5-0.5
		c-0.3,0-0.6,0.3-0.5,0.7c0.1,0.2,0.3,0.4,0.5,0.4c0.3,0.1,0.5,0,0.7-0.3s0.1-0.5,0-0.8c0,0,0-0.1,0-0.1c-0.1-0.1,0,0.1,0,0
		c0,0,0-0.1,0,0c0,0.1,0,0,0,0c0,0,0-0.1,0-0.1c0-0.2,0-0.4-0.1-0.6c-0.1-0.4-0.3-0.7-0.6-0.9c-0.3-0.3-0.8-0.5-1.2-0.5
		c-0.3,0-0.5,0.3-0.5,0.5c-0.1,1,0.4,2.1,1.1,2.8c0.2,0.2,0.5,0.2,0.7,0C117.8,171.7,117.8,171.4,117.6,171.2L117.6,171.2
		L117.6,171.2z"/>
	<path class="st0" d="M115.8,169.7c0.6,0,0.6-1,0-1S115.2,169.7,115.8,169.7L115.8,169.7z"/>
	<path class="st1" d="M115.2,169.9c0,0,0,0.1,0.1,0.1c0,0,0,0.1,0,0.1c0-0.1,0,0.1,0,0.1c0,0,0,0.1,0,0.1s0,0.1,0,0.1
		c0,0.1,0-0.1,0,0c0,0.1,0,0.1,0,0.2c0,0.3,0,0.6,0.1,0.9c0.3,0.7,1,1.2,1.7,0.8c0.2-0.1,0.3-0.4,0.2-0.6c-0.2-1-0.6-1.9-1.1-2.8
		l-0.4,0.8c0,0,0.2,0,0.1,0c0,0,0.2,0.1,0.1,0c0,0,0,0,0.1,0c0,0,0.1,0.1,0,0s0,0,0,0c0,0,0.1,0.1,0.1,0.1c0,0,0,0.1,0,0
		c0,0,0,0.1,0,0.1c0,0.1,0,0.1,0,0.1c0,0.1,0,0.1,0.1,0.2c0,0,0,0.1,0,0.1c0,0,0,0.2,0,0.1c0,0.3,0,0.6,0,0.9s0,0.6,0.1,0.9
		c0.1,0.4,0.4,0.6,0.8,0.6c0.4,0,0.7-0.2,0.8-0.6c0.2-0.5,0.1-1.3,0-1.8c-0.2-0.6-0.6-1.2-1.1-1.6c-0.2-0.2-0.5-0.2-0.7,0
		c-0.2,0.2-0.2,0.5,0,0.7c0.1,0.1,0.2,0.1,0.3,0.2c0,0,0.1,0.1,0.1,0.1c0,0,0,0.1,0.1,0.1c0,0,0,0.1,0,0c0.1,0.2,0.3,0.4,0.3,0.6
		c0-0.1,0,0.1,0,0.1c0,0.1,0,0.1,0,0.2c0,0.1,0.1,0.2,0.1,0.4c0,0.1,0,0,0,0c0,0,0,0.1,0,0.1c0,0.1,0,0.1,0,0.1c0,0.1,0,0.1,0,0.2
		c0,0,0,0.1,0,0.1c0,0.1,0,0,0,0c0,0,0,0.1,0,0.1c0-0.1,0,0,0,0c0,0.1,0,0,0,0c0,0.1,0,0,0,0c0,0,0.1,0,0,0c0,0,0.1,0,0.1,0
		c0.1,0,0,0,0.1,0.1c0,0,0,0,0,0c0-0.1,0,0,0,0c0-0.1,0-0.1,0-0.2v-0.4c0-0.6,0-1.2-0.2-1.7c-0.2-0.6-0.8-1.1-1.5-1
		c-0.4,0-0.6,0.4-0.4,0.8c0.5,0.8,0.8,1.6,1,2.5l0.2-0.6c0.1,0,0.1,0,0,0c-0.1,0,0,0,0,0c-0.1,0,0,0,0,0c0,0,0,0-0.1,0
		c0.1,0.1-0.1-0.1,0,0c0,0-0.1-0.1-0.1-0.1c0,0,0,0,0,0c0,0,0-0.1,0-0.1c0,0-0.1-0.2,0-0.1c0,0,0-0.1,0-0.1c0,0,0-0.2,0-0.1
		c-0.1-0.5,0-1.1-0.4-1.6c-0.1-0.2-0.4-0.3-0.7-0.2C115.2,169.3,115,169.7,115.2,169.9L115.2,169.9L115.2,169.9z"/>
	<path class="st1" d="M60.5,132.7c-0.6-0.8-1.5-1.4-2.4-1.6c-0.3-0.1-0.5,0.1-0.6,0.4c-0.1,0.3,0.1,0.6,0.4,0.6
		c0.2,0.1,0.4,0.1,0.6,0.2c0.1,0-0.1-0.1,0,0l0.1,0c0,0,0.1,0,0.1,0.1c0.1,0.1,0.2,0.1,0.3,0.2c0,0,0.1,0.1,0.1,0.1
		c0,0,0.1,0.1,0.1,0.1c0,0-0.1-0.1,0,0c0,0,0,0,0.1,0.1c0,0,0.1,0.1,0.1,0.1c0.1,0.1,0.1,0.1,0.2,0.2c0,0,0.1,0.1,0.1,0.1
		c0,0,0.1,0.2,0,0.1c0.1,0.1,0.2,0.2,0.3,0.2c0.1,0,0.3,0,0.4-0.1C60.5,133.3,60.7,132.9,60.5,132.7L60.5,132.7L60.5,132.7z"/>
	<path class="st1" d="M116.2,169.3c0.6,0,0.6-1,0-1S115.5,169.3,116.2,169.3L116.2,169.3z"/>
	<path class="st1" d="M145,119c0.6,0,0.6-1,0-1S144.4,119,145,119L145,119z"/>
	<path class="st1" d="M162.3,115.7c0,0,0.1,0,0.2,0s0.1,0,0.2-0.1s0.1-0.1,0.1-0.1s0.1-0.1,0.1-0.1c0,0,0,0,0,0c0-0.1,0-0.1,0.1-0.2
		s0-0.1,0-0.2c0,0,0,0,0,0c0-0.1,0-0.1,0-0.2c0-0.1,0-0.1-0.1-0.2c0-0.1-0.1-0.1-0.1-0.1c-0.1,0-0.1-0.1-0.2-0.1c-0.1,0-0.1,0-0.2,0
		l-0.1,0.1c-0.1,0-0.1,0.1-0.2,0.2l0,0.1c0,0.1,0,0.2,0,0.3V115c0,0,0,0,0,0.1l0-0.1c0,0,0,0,0,0.1l0-0.1c0,0,0,0,0,0.1l0.1-0.1
		c0,0,0,0,0,0.1l0.1-0.1c0,0,0,0,0,0l0.1-0.1c0,0,0,0-0.1,0l0.1,0l0,0c-0.1,0-0.1,0-0.2,0c-0.1,0-0.1,0.1-0.2,0.1
		c0,0.1-0.1,0.1-0.1,0.2c0,0.1,0,0.1,0,0.2l0,0.1c0,0.1,0.1,0.2,0.1,0.2l0.1,0.1C162.1,115.7,162.2,115.7,162.3,115.7L162.3,115.7
		L162.3,115.7z"/>
	<path class="st1" d="M51.1,118.6c0-1.3-1.6-2-2.6-2.4c-1.8-0.8-3.8-1.2-5.8-1.3s-3.7,0.2-5.6-0.3c-1.7-0.4-3.6-1.1-4.6-2.6
		c-0.2-0.3-0.7-0.3-0.9,0c-1.2,2.1,0,4.3,1.4,5.9c0.7,0.7,1.4,1.4,2.2,1.9c0.9,0.6,1.7,1.3,2.7,1.6c1.7,0.7,3.6,0.8,5.5,0.6
		s3.5-0.5,5.1-1.2C49.5,120.5,51,119.8,51.1,118.6c0.1-0.6-0.9-0.6-1,0s-1.4,1.2-2,1.4c-1.3,0.6-2.8,0.9-4.2,1.1
		c-1.5,0.2-3.1,0.2-4.6-0.2c-1.7-0.4-3.2-1.5-4.6-2.7c-1.5-1.3-3.5-3.6-2.3-5.7h-0.9c0.8,1.3,2.3,2.1,3.7,2.7
		c1.8,0.7,3.7,0.9,5.6,0.8s3.7,0.1,5.5,0.6c0.9,0.2,1.7,0.5,2.5,1c0.4,0.2,1.1,0.6,1.1,1.1C50.1,119.2,51.1,119.2,51.1,118.6
		L51.1,118.6z"/>
	<path class="st1" d="M31.9,113.7c0.5,1.7,1.1,3.3,2.2,4.7c1,1.3,2.5,2.2,4,2.7c1.7,0.6,3.5,0.7,5.3,0.4c1.9-0.4,3.5-1.4,5.4-1.8
		l-0.4-0.9c-1.1,0.6-2.3,1-3.5,1.3c-0.5,0.1-0.5,0.9,0,1c0.7,0.2,1.5,0.1,2.1-0.2c0.5-0.2,0.2-0.9-0.3-0.9c-0.9,0-1.8,0.1-2.7,0.4
		c-0.3,0.1-0.5,0.6-0.2,0.8c1,0.7,2.4,0,3.4-0.4s2.1-1,2.4-2.1l-0.6,0.4c0.2,0.1,0.1,0.2,0,0.2l0.4,0.9c0.8-0.4,1-1.3,0.5-2
		c-0.7-0.9-2-1-3-1.2v1l0.9-0.2c0.5-0.1,0.5-0.9,0-1l-1.9-0.4c-0.6-0.1-0.9,0.8-0.3,1c0.9,0.2,1.8,0.6,2.6,1.1l0.3-0.9l0,0.1
		l-0.4,0.6l0.6-0.2c0.5-0.2,0.5-0.8,0-1c-2.5-0.7-5-1.1-7.5-1.4s-5.1-1-7.6-1.9c-0.6-0.2-0.8,0.6-0.4,0.9c0.8,0.6,1.1,1.4,1.4,2.3
		c0.3,0.8,0.7,1.6,1.4,2.1l0.6-0.8c-0.8-0.5-1.5-1.1-1.7-2c-0.2-0.7-0.3-1.3-1-1.6c-0.5-0.2-0.9,0.2-0.7,0.7
		c0.7,1.7,2.1,2.9,3.7,3.8l0.1-0.9c-0.2,0.1-0.9,0.1-1-0.2l-0.5,0.6c0.3,0,0.6,0,0.7,0.4l0.6-0.6L36,118c-0.5-0.1-0.8,0.5-0.5,0.8
		c1.5,1.7,4,2.4,6.2,2.2c2.5-0.1,4.7-1.2,6.8-2.4l-0.7-0.6c-0.1,0.4-0.3,0.6-0.6,0.9c-0.2,0.2-0.2,0.5,0,0.7c0.5,0.4,1,0.4,1.6,0.2
		l-0.5-0.9c-0.4,0.2-0.7,0.5-0.9,0.9c-0.2,0.4,0.1,0.9,0.6,0.7c0.5-0.2,1-0.6,1-1.2s-0.4-1-0.8-1.4c-0.3-0.3-0.6-0.5-0.9-0.8
		c-0.2-0.3-0.4-0.6-0.6-0.8c-0.4-0.5-1-0.8-1.7-0.9c-1.6-0.4-3.3-0.1-4.9,0c-1.8,0.1-3.5-0.4-5.1-1.1c-0.4-0.1-0.7,0.3-0.6,0.6
		c0.5,2.6,2.9,4.2,5.2,5.1v-1c-0.5,0.1-1.7,0.1-2-0.6l-0.6,0.6c1.5,0.6,2.9,1,4.5,1.4l0.1-1c-0.9,0.1-1.8,0-2.7-0.3v1
		c1.3-0.2,2.6,0.1,3.9,0.1c1.1,0,2.3-0.3,3.2-0.9c0.6-0.4,1.3-1.1,1.2-1.9c0-0.4-0.3-0.7-0.6-0.9c-0.4-0.2-1-0.1-1.4-0.4l-0.5,0.8
		c0.5,0.2,0.9,0.5,0.8,1l0.9-0.3c-0.5-0.8-1.4-1.3-2.3-1.4c-0.5-0.1-0.8,0.4-0.5,0.8l1.6,1.8l0.5-0.8c-1.1-0.3-2.1-0.9-2.9-1.7
		l-0.4,0.9c0.5,0,1.7,0.2,1.7,0.9l0.8-0.4c-0.8-0.4-1.6-0.8-2.3-1.4l-0.6,0.8c0.3,0.2,0.6,0.4,1,0.5c0.2,0.1,0.9,0.4,0.5,0.6
		c-0.4,0.2-1-0.4-1.3-0.6c-0.4-0.3-0.7-0.6-0.9-1l0,0.4l0-0.1l-0.2,0.3c0.3-0.2,0.9,0.1,1.1,0.2c0.4,0.1,0.7,0.3,0.9,0.6l0.4-0.9
		c-0.1,0-0.8-0.3-0.8,0.1c0,0.1,0.6-0.1,0.7-0.1c0.3-0.1,0.5-0.3,0.5-0.6s-0.3-0.5-0.6-0.6c-0.5-0.1-1.1,0.1-1.6,0.1
		c-2,0-4.1-0.4-5.9-1.4c-0.5-0.3-1,0.4-0.6,0.8c1.4,1.4,2.9,2.7,4.6,3.8l0.5-0.9c-1.1-0.6-2.1-1.4-3-2.3l-0.5,0.8
		c1.1,0.3,2.2,0.7,2.9,1.6l0.4-0.8c-0.8,0-1.8-0.1-2.4-0.7l-0.5,0.8c0.8,0.2,1.5,0.4,2,1.1l0.5-0.8c-1-0.3-1.9-0.9-2.4-1.8l-0.9,0.5
		l0.6,0.8l0.7-0.7c-0.5-0.3-0.9-0.5-1.1-1l-0.7,0.7c0.6,0.3,1.1,0.6,1.5,1.2l0.6-0.7c-0.2-0.1-0.3-0.1-0.2,0.1l-0.6,0.2
		c1.2,0.5,2.5,1.4,2.9,2.7l0.8-0.5c-0.5-0.6-0.9-1.3-0.8-2.1l-0.6,0.5c0.8,0.2,1.7,0.5,2.1,1.2l0.7-0.7c-0.7-0.3-1.4-0.7-2-1.2
		l-0.6,0.8c0.3,0.2,0.6,0.6,0.7,1l0.6-0.5c-0.7-0.2-1.8-0.6-1.9-1.4l-0.6,0.5c0.8,0.2,1.5,0.5,2.1,1l0.6-0.8
		c-0.5-0.2-0.9-0.4-1.1-0.9l-0.7,0.7c0.6,0.4,1.3,0.8,1.6,1.5l0.7-0.6c-0.5-0.2-0.9-0.5-1.1-1l-0.7,0.6c0.8,0.4,1.5,0.8,2.1,1.5
		l0.5-0.8c-0.5-0.1-1-0.2-1.3-0.7l-0.6,0.7c0.5,0.1,1,0.2,1.3,0.6l0.6-0.7c-0.3-0.1-0.7-0.2-0.8-0.6l-0.6,0.6
		c0.6,0.1,1.1,0.3,1.6,0.6l0.5-0.9l-1.5-0.9c-0.5-0.3-1,0.4-0.6,0.8l1.3,1.2l0.6-0.8c-0.3-0.1-0.6-0.3-0.5-0.7l-0.6,0.5
		c0.4,0.1,0.8,0.2,1,0.6l0.7-0.7l-1.1-0.8l-0.4,0.9c0.5,0.2,1,0.5,1.3,0.9l0.4-0.9c-0.4-0.1-1-0.2-1.2-0.7l-0.6,0.6
		c0.5,0.2,1,0.5,1.3,1l0.7-0.7c-0.4-0.2-0.8-0.4-0.9-0.9l-0.6,0.6c0.3,0.1,0.6,0.2,0.8,0.4l0.7-0.7l-1-1l-0.5,0.8
		c0.3,0.1,0.6,0.2,0.8,0.4l0.6-0.8c-0.8-0.4-1.6-0.9-2.4-1.4l-0.5,0.9l1.3,0.8l0.5-0.9c-0.3-0.2-0.5-0.3-0.8-0.6l-0.7,0.7l0.8,0.6
		l0.2-0.8c-0.1,0-0.5,0-0.5-0.1l-0.6,0.6c1.1,0.4,2.2,1,3,2l0.4-0.9c-0.5-0.1-1.4-0.3-1.6-0.8l-0.4,0.6c0.2,0,0.9,0,1,0.3l0.5-0.6
		c-1,0-2.2-0.3-2.8-1.2l-0.3,0.7c0.2-0.1,0.4-0.1,0.5,0l0.3-0.9c-0.7-0.1-1.4-0.3-2-0.6c-0.6-0.3-1.1,0.6-0.5,0.9
		c0.8,0.4,1.6,0.6,2.5,0.7c0.5,0.1,0.6-0.7,0.3-0.9s-0.9-0.3-1.3-0.1c-0.3,0.1-0.5,0.4-0.3,0.7c0.7,1.2,2.3,1.6,3.6,1.6
		c0.3,0,0.6-0.3,0.5-0.6c-0.3-0.9-1.4-1.1-2.2-1c-0.3,0-0.5,0.4-0.4,0.6c0.4,1.1,1.5,1.5,2.6,1.6c0.5,0,0.6-0.6,0.4-0.9
		c-0.9-1.1-2.1-1.8-3.4-2.2c-0.4-0.1-0.7,0.3-0.6,0.6c0.2,0.8,1,0.9,1.7,0.8c0.4-0.1,0.5-0.6,0.2-0.8l-0.8-0.6
		c-0.5-0.4-1.2,0.2-0.7,0.7c0.3,0.3,0.6,0.5,1,0.7c0.6,0.3,1-0.5,0.5-0.9l-1.3-0.8c-0.5-0.4-1,0.5-0.5,0.9c0.8,0.5,1.6,0.9,2.4,1.4
		c0.5,0.3,1-0.4,0.6-0.8c-0.3-0.4-0.8-0.6-1.2-0.7s-0.9,0.5-0.5,0.8l1,1c0.5,0.4,1.1-0.2,0.7-0.7c-0.3-0.4-0.8-0.6-1.2-0.7
		c-0.4-0.1-0.7,0.3-0.6,0.6c0.1,0.7,0.7,1.2,1.4,1.5c0.5,0.2,0.9-0.2,0.7-0.7c-0.3-0.8-1.1-1.2-1.9-1.5c-0.4-0.1-0.7,0.3-0.6,0.6
		c0.3,0.9,1.2,1.3,2.1,1.4c0.5,0.1,0.6-0.6,0.4-0.9c-0.5-0.6-1.1-0.9-1.8-1.2c-0.6-0.2-0.8,0.6-0.4,0.9l1.1,0.8
		c0.5,0.3,0.9-0.3,0.7-0.7c-0.3-0.6-0.9-0.9-1.6-1.1c-0.3-0.1-0.6,0.1-0.6,0.5c-0.1,0.7,0.4,1.3,1,1.6c0.5,0.3,1-0.4,0.6-0.8
		l-1.3-1.2l-0.6,0.8l1.5,0.9c0.6,0.3,1-0.5,0.5-0.9c-0.5-0.4-1.2-0.6-1.8-0.7c-0.4-0.1-0.7,0.2-0.6,0.6c0.2,0.7,0.8,1.1,1.5,1.3
		c0.4,0.1,0.8-0.4,0.6-0.7c-0.5-0.6-1.1-0.9-1.9-1.1c-0.4-0.1-0.8,0.3-0.6,0.7c0.4,0.7,1.1,1.1,1.9,1.2c0.5,0.1,0.8-0.4,0.5-0.8
		c-0.6-0.8-1.4-1.3-2.3-1.7c-0.3-0.1-0.9,0.1-0.7,0.6c0.3,0.8,0.9,1.3,1.6,1.6c0.3,0.2,0.9-0.1,0.7-0.6c-0.4-1-1.1-1.6-2-2.1
		c-0.4-0.2-1,0.3-0.7,0.7c0.4,0.6,0.9,1,1.5,1.2c0.5,0.2,1.1-0.4,0.6-0.8c-0.8-0.6-1.6-1-2.5-1.2c-0.3-0.1-0.7,0.1-0.6,0.5
		c0.2,1.4,1.4,2.1,2.6,2.4c0.3,0.1,0.7-0.1,0.6-0.5c-0.1-0.8-0.5-1.4-1.2-1.9c-0.5-0.3-1,0.4-0.6,0.8c0.7,0.6,1.4,1,2.2,1.4
		c0.4,0.2,1-0.2,0.7-0.7c-0.6-0.9-1.7-1.4-2.7-1.6c-0.3-0.1-0.6,0.1-0.6,0.5c-0.1,1.1,0.4,2,1.1,2.8c0.3,0.4,1,0,0.8-0.5
		c-0.5-1.7-2-2.7-3.6-3.4c-0.2-0.1-0.5,0.1-0.6,0.2c-0.3,0.7,0.1,1.2,0.8,1.4c0.4,0.1,0.8-0.4,0.6-0.7c-0.5-0.7-1.1-1.2-1.9-1.6
		c-0.4-0.2-0.9,0.2-0.7,0.7c0.3,0.6,0.9,1.1,1.5,1.4c0.4,0.2,1-0.3,0.7-0.7l-0.6-0.8c-0.4-0.5-1.1-0.1-0.9,0.5
		c0.6,1.2,1.8,1.9,3,2.3c0.5,0.2,0.8-0.5,0.5-0.8c-0.6-0.7-1.5-1.1-2.4-1.3c-0.5-0.1-0.9,0.5-0.5,0.8c0.8,0.8,2,1,3.1,1
		c0.3,0,0.7-0.4,0.4-0.8c-0.9-1.1-2.1-1.8-3.5-2.1c-0.5-0.1-0.8,0.5-0.5,0.8c1,1,2.1,1.8,3.2,2.4c0.6,0.3,1-0.5,0.5-0.9
		c-1.6-1-3.1-2.2-4.4-3.6l-0.6,0.8c2.4,1.4,5.3,1.7,8,1.4l-0.5-0.1l0.1,0.1l-0.1-0.4v0.1l0.1-0.4c0,0-0.5,0-0.5,0.1
		c-0.1,0-0.3,0.1-0.4,0.2c-0.2,0.2-0.3,0.5-0.3,0.8c0.1,0.8,1.1,0.9,1.7,1c0.4,0.1,0.6-0.6,0.4-0.9c-0.4-0.4-0.9-0.7-1.5-0.8
		c-0.5-0.2-1.2-0.4-1.7-0.1c-1.3,0.6,0.8,2.2,1.4,2.6c0.8,0.5,2.3,0.8,2.5-0.5s-1.4-1.6-2.1-2.1c-0.5-0.3-1,0.4-0.6,0.8
		c0.7,0.7,1.6,1.2,2.5,1.6c0.4,0.1,0.7,0,0.8-0.4c0.1-1.4-1.6-1.9-2.7-2c-0.5,0-0.6,0.5-0.4,0.9c0.9,0.9,2.1,1.6,3.3,1.9
		c0.5,0.2,0.8-0.5,0.5-0.8l-1.6-1.8l-0.5,0.8c0.7,0.1,1.4,0.4,1.7,1c0.3,0.4,0.9,0.2,0.9-0.3c0.1-1-0.7-1.7-1.6-2
		c-0.5-0.2-0.9,0.5-0.5,0.8c0.3,0.2,0.5,0.3,0.9,0.4c0.3,0.1,0.7,0.1,0.7,0.4c0.1,0.7-1.4,1.2-1.8,1.3c-1.9,0.6-3.8-0.2-5.8,0.2
		c-0.5,0.1-0.4,0.8,0,1c1,0.3,2,0.4,3,0.3c0.5,0,0.7-0.8,0.1-1c-1.5-0.4-3-0.9-4.5-1.4c-0.3-0.1-0.7,0.3-0.6,0.6
		c0.4,1.2,2,1.5,3.2,1.3c0.5-0.1,0.4-0.8,0-1c-2-0.8-4-2.2-4.5-4.4l-0.6,0.6c1.2,0.5,2.4,0.9,3.6,1.1c1.5,0.2,2.9-0.1,4.3-0.1
		c1.1,0,2.6,0,3.3,0.9c0.3,0.4,0.6,0.9,1,1.2c0.3,0.2,1.4,1,0.6,1.2l0.6,0.7c0.1-0.3,0.3-0.4,0.5-0.6c0.5-0.4,0.1-1.1-0.5-0.9
		c-0.1,0.1-0.3,0.1-0.4,0v0.7c0.4-0.4,0.7-0.8,0.8-1.3c0.1-0.4-0.4-0.8-0.7-0.6c-1.9,1.1-3.9,2.1-6,2.3c-2,0.2-4.3-0.3-5.7-1.9
		l-0.5,0.8l0.8,0.2c0.4,0.1,0.7-0.2,0.6-0.6c-0.1-0.8-1-1.1-1.6-1.1c-0.3,0-0.6,0.3-0.5,0.6c0.3,0.9,1.5,1.1,2.3,0.9
		c0.4-0.1,0.5-0.7,0.1-0.9c-1.4-0.8-2.7-1.9-3.3-3.5l-0.7,0.7c0.6,0.3,0.6,1.3,0.9,1.9c0.4,0.7,1.1,1.3,1.8,1.7
		c0.5,0.3,1-0.4,0.6-0.8c-0.8-0.6-1-1.5-1.4-2.4s-0.8-1.6-1.6-2.1l-0.4,0.9c2.4,0.9,4.8,1.6,7.4,1.9s5.2,0.7,7.7,1.5v-1l-0.6,0.2
		c-0.3,0.1-0.4,0.3-0.4,0.6c0.1,0.4,0.5,0.6,0.9,0.6c0.5,0,0.7-0.6,0.3-0.9c-0.9-0.6-1.8-1-2.8-1.2l-0.3,1l1.9,0.4v-1l-0.9,0.2
		c-0.5,0.1-0.5,0.9,0,1c0.6,0.1,1.3,0.2,1.9,0.5c0.4,0.2,1.1,0.6,0.4,1c-0.5,0.3-0.1,1.1,0.4,0.9c1.2-0.4,1.2-1.7,0-2.1
		c-0.2-0.1-0.6,0.1-0.6,0.4c-0.2,0.8-1,1.1-1.7,1.4c-0.4,0.2-0.9,0.4-1.3,0.5c-0.2,0.1-0.8,0.3-1,0.2l-0.2,0.8
		c0.8-0.3,1.6-0.4,2.5-0.4l-0.3-0.9c-0.4,0.2-0.9,0.2-1.4,0.1v1c1.3-0.3,2.5-0.8,3.7-1.4c0.5-0.3,0.1-1-0.4-0.9
		c-1.6,0.4-3.1,1.1-4.8,1.6s-3.4,0.4-5-0.1c-1.5-0.4-2.8-1.3-3.8-2.4c-1.1-1.3-1.6-2.8-2-4.4C32.8,112.7,31.8,113,31.9,113.7
		L31.9,113.7L31.9,113.7z"/>
	<path class="st1" d="M43.2,119.6c1,0.1,1.8-0.4,2.7-0.7c0.5-0.2,1-0.3,1.5-0.4c0.1,0,1.4-0.3,1.5-0.1c0.1,0.2,0.5,0.3,0.7,0.2
		c0.7-0.5,0.4-1.2-0.3-1.5c-1-0.4-2.3-0.5-3.4-0.7l0.2,0.8c0.1-0.2,0.3-0.2,0.5-0.1c0.6,0,0.7-0.9,0.1-1c-2.7-0.5-5.5-0.4-8.2,0.4
		c-0.5,0.1-0.5,0.8,0,1c0.7,0.2,1.4,0.2,2.1,0c0.4-0.1,0.5-0.9,0-1c-1.6-0.3-3.1-0.3-4.7-0.7c-1-0.2-3-0.8-3.1-2l-0.9,0.4
		c1.5,1.2,3,2.3,4.6,3.3c0.8,0.5,1.6,1,2.4,1.5c0.4,0.2,0.8,0.5,1.2,0.7c0.2,0.1,0.4,0.2,0.6,0.4c0.1,0.1,0.2,0.1,0.4,0.2
		c0.1,0.2,0.2,0.2,0.2,0c-0.2,0.3,0,0.8,0.4,0.8c0.6,0,1.2,0.1,1.7,0.4l-0.1-0.8l0,0l0.4,0.1l0,0l0.1,0.6l-0.1,0.1l-0.6-0.1l0,0
		c0.5,0.4,1.2-0.3,0.7-0.7l0,0c-0.2-0.2-0.4-0.2-0.6-0.1c-0.1,0.1-0.2,0.1-0.3,0.3c-0.1,0.2-0.1,0.5,0.1,0.6
		c0.4,0.3,0.8,0.2,1.1-0.1c0.2-0.3,0.2-0.6-0.1-0.8c-0.6-0.4-1.4-0.6-2.2-0.6l0.4,0.8c0.5-0.9-0.5-1.3-1.1-1.7c-1-0.6-2-1.1-2.9-1.7
		c-1.9-1.2-3.8-2.5-5.5-3.9c-0.3-0.2-0.9-0.1-0.9,0.4c0.2,1.4,1.6,2.2,2.8,2.6c1.8,0.6,3.8,0.7,5.7,1v-1c-0.5,0.2-1,0.2-1.6,0v1
		c2.5-0.7,5.1-0.8,7.7-0.4l0.1-1c-0.5,0-0.9,0.1-1.3,0.4c-0.2,0.3-0.2,0.8,0.2,0.8l1.8,0.4c0.3,0.1,1.5,0.4,1.5,0.2l0.2-0.3
		l-0.1,0.1l0.7,0.2c-0.5-0.9-2.1-0.5-2.8-0.3c-0.6,0.1-1.2,0.3-1.8,0.5c-0.6,0.3-1.2,0.5-1.9,0.5C42.6,118.6,42.6,119.6,43.2,119.6
		L43.2,119.6L43.2,119.6z"/>
	<path class="st1" d="M39.2,108.2c0.1-1.2-0.1-2.4-0.6-3.5s-1.4-1.9-1.9-3l-0.7,0.7c1,0.4,2.1,0.9,3.1,1.4c0.5,0.2,0.9,0.5,1.3,0.9
		c0.4,0.4,0.7,0.8,1,1.1c0.3,0.4,0.6,0.9,0.9,1.4c0.1,0.2,0.3,0.7,0,0.9c-0.2,0.1-0.5,0.1-0.6,0.1c-0.3,0-0.6,0-0.9,0
		c-0.6,0-1.2-0.1-1.8-0.2c-0.6-0.1-0.9,0.8-0.3,1c1.1,0.2,2.1,0.3,3.2,0.1c0.4-0.1,0.9-0.1,1.2-0.5s0.3-0.8,0.3-1.2
		c-0.1-0.9-0.9-1.7-1.4-2.4c-0.6-0.8-1.3-1.5-2.2-1.9c-1.1-0.5-2.2-1-3.3-1.4c-0.5-0.2-0.9,0.2-0.7,0.7c0.5,1,1.3,1.8,1.8,2.8
		s0.7,2.1,0.5,3.2c0,0.3,0.3,0.5,0.5,0.5C39,108.7,39.1,108.4,39.2,108.2L39.2,108.2L39.2,108.2z"/>
	<path class="st1" d="M36.9,103.2c0.6,0.4,1.2,0.9,1.9,1.4c0.5,0.4,1,0.7,1.4,1.1s0.7,0.9,1,1.5c0.3,0.6,0.7,1.3,1.5,1.1
		c0.4-0.1,0.4-0.5,0.3-0.7c-0.2-0.4-0.4-0.9-0.6-1.3c-0.3-0.4-0.6-0.8-1-1.1c-0.6-0.6-1-1.4-1.7-1.8c-0.6-0.3-1,0.5-0.5,0.9
		c0.6,0.4,1.1,0.8,1.6,1.3l0.7-0.7l-2.1-1.7c-0.4-0.3-0.8-0.1-0.9,0.4c-0.1,0.8,0,1.6,0.4,2.3c0.2,0.5,1,0.1,0.9-0.4
		c-0.1-0.5-0.2-1-0.4-1.4c-0.1-0.4-0.4-0.8-0.8-0.9c-0.2-0.1-0.4,0.1-0.6,0.2c-0.6,0.8,0.1,1.6,0.5,2.3c0.4,0.7,0.7,1.4,0.4,2.2
		l1,0.1v-1.5l0-0.8c0-0.1,0-0.2,0-0.3c0,0,0-0.1,0-0.1c-0.1,0.1-0.1,0.1-0.2,0.1l-0.2-0.1c0.1,0.1,0.1,0.5,0.2,0.6
		c0.1,0.3,0.2,0.5,0.2,0.8c0.1,0.2,0.1,0.4,0.1,0.6s-0.2,0.3-0.4,0.4c-0.4,0.3-0.3,0.9,0.3,0.9c0.3,0,0.7,0,1-0.1
		c0.1,0,0.3-0.1,0.4-0.1c0.1,0,0.1-0.1,0.2-0.1c0,0,0.1,0,0.1,0c0.2,0,0.1-0.2-0.2-0.4l0.2-0.2c0.1,0,0.1,0,0,0c0,0-0.1,0-0.1,0
		c-0.1,0-0.1,0-0.2-0.1c-0.2-0.1-0.3-0.1-0.4-0.2c-0.1-0.1-0.2-0.2-0.3-0.3c0-0.1-0.1-0.1-0.1-0.1c0,0-0.1-0.1-0.1-0.1c0,0,0,0,0,0
		l-0.1,0.2l-0.1,0.1l-0.3-0.1c-0.1-0.1-0.1-0.2-0.1-0.1c0,0.1,0,0.1,0,0.2c0,0.1,0,0.2,0,0.3c0.1,0.2,0.2,0.4,0.4,0.6
		c0.3,0.2,0.7,0.2,1,0c0.4-0.3,0.3-0.8,0.2-1.2c-0.1-0.5-0.3-0.9-0.5-1.4l-0.9,0.5l0.7,0.9c0.1,0.2,0.4,0.4,0.3,0.7l0.7-0.3
		c-0.1-0.1-0.1-0.1-0.2-0.2c0-0.3-0.4-0.4-0.6-0.4c-0.3,0.1-0.4,0.3-0.4,0.6c0.1,0.4,0.3,0.7,0.6,0.8s0.6,0,0.7-0.3
		c0.2-0.4,0-0.9-0.2-1.2c-0.3-0.4-0.6-0.8-0.8-1.1c-0.4-0.5-1.1-0.1-0.9,0.5c0.1,0.3,0.2,0.5,0.3,0.8c0,0.2,0.2,0.5,0.1,0.7l0.1-0.2
		c0.1-0.2,0.2,0.1,0.1-0.1c0-0.2,0-0.4-0.1-0.6c-0.2-0.4-0.8-0.5-1.1-0.1c-0.6,0.7,0.5,1.7,1,2c0.4,0.2,0.8,0.3,1.1,0.3
		c0.5,0,0.8-0.4,0.7-0.9s-0.7-0.6-1.1-0.5s-0.8,0.3-1.3,0.3l0.3,0.9c0.3-0.2,0.6-0.4,0.7-0.7c0.2-0.3,0.2-0.7,0.1-1.1
		s-0.2-0.7-0.3-1.1c-0.1-0.3-0.2-0.8-0.4-1c-0.3-0.3-0.7-0.2-1,0s-0.3,0.6-0.3,0.9l0,2.4c0,0.3,0.2,0.5,0.4,0.5
		c0.3,0,0.5-0.1,0.5-0.4c0.3-0.8,0.2-1.6-0.2-2.4c-0.2-0.4-0.4-0.7-0.6-1c-0.2-0.3-0.4-0.6-0.2-0.9l-0.6,0.2c0.1,0,0.2,0.4,0.2,0.5
		c0.1,0.4,0.2,0.7,0.3,1.1l0.9-0.4c-0.3-0.6-0.3-1.2-0.3-1.8l-0.9,0.4l2.1,1.7c0.5,0.4,1.1-0.2,0.7-0.7c-0.5-0.6-1.1-1.1-1.8-1.5
		l-0.5,0.9c0.3,0.1,0.5,0.4,0.7,0.7c0.3,0.3,0.5,0.7,0.8,0.9c0.3,0.3,0.6,0.6,0.9,1s0.4,0.8,0.6,1.2l0.3-0.7c0,0,0-0.1-0.1-0.1
		c-0.1-0.1-0.1-0.3-0.2-0.4c-0.1-0.3-0.2-0.6-0.4-0.8c-0.3-0.5-0.7-0.9-1.1-1.3c-1-0.9-2.1-1.6-3.1-2.3c-0.2-0.2-0.6,0-0.7,0.2
		C36.5,102.8,36.6,103,36.9,103.2L36.9,103.2L36.9,103.2z"/>
	<path class="st1" d="M39.7,106.7c0.6,0,0.6-1,0-1S39.1,106.7,39.7,106.7L39.7,106.7z"/>
	<path class="st1" d="M38.7,108.9c0.6,0,0.6-1,0-1S38,108.9,38.7,108.9L38.7,108.9z"/>
	<path class="st1" d="M42,108.6c0.6,0,0.6-1,0-1S41.4,108.6,42,108.6L42,108.6z"/>
	<path class="st1" d="M84.1,186.2c-2.7,2.7-6.9,2.8-10.5,3.1c-0.5,0-0.7,0.7-0.3,0.9c3.4,2,7.4,2.9,11.3,2.6c0.6,0,0.6-1,0-1
		c-3.8,0.3-7.5-0.6-10.8-2.5l-0.3,0.9c3.9-0.4,8.2-0.5,11.2-3.4C85.3,186.5,84.5,185.8,84.1,186.2L84.1,186.2L84.1,186.2z"/>
	<path class="st1" d="M88.9,189.5c-1.9,0.6-3.5,1.9-5,3.3c-1.6,1.6-3.1,3.4-4.7,5.1c-0.2,0.2-0.2,0.5,0,0.7c0.9,0.8,2.4,0.1,3.4-0.2
		c1.3-0.3,2.5-0.7,3.7-1.2c2.4-0.9,4.6-2.2,6.3-4.1c0.4-0.5-0.3-1.2-0.7-0.7c-1.5,1.7-3.4,2.9-5.5,3.7c-1,0.4-2.1,0.7-3.1,1
		c-0.5,0.1-1,0.3-1.5,0.4c-0.4,0.1-1.5,0.6-1.9,0.3v0.7c1.5-1.6,2.9-3.2,4.4-4.8c1.4-1.4,2.9-2.8,4.8-3.4
		C89.7,190.3,89.5,189.3,88.9,189.5L88.9,189.5L88.9,189.5z"/>
	<path class="st1" d="M92.4,191.3c-0.9,2.9-2.4,5.6-4.5,7.8c-0.2,0.2-0.2,0.8,0.2,0.8c3.7,0.5,7.5-1.3,9.4-4.5
		c0.3-0.5-0.5-1.1-0.9-0.5c-1.7,2.8-5,4.5-8.3,4l0.2,0.8c2.2-2.4,3.8-5.2,4.7-8.3C93.6,191,92.6,190.7,92.4,191.3L92.4,191.3
		L92.4,191.3z"/>
	<path class="st1" d="M109.6,187.1c2.9,2.9,7.3,3,11.2,3.4l-0.3-0.9c-3.3,1.9-7,2.8-10.8,2.5c-0.6,0-0.6,1,0,1
		c3.9,0.3,7.9-0.7,11.3-2.6c0.5-0.3,0.2-0.9-0.3-0.9c-3.6-0.3-7.8-0.4-10.5-3.1C109.8,185.9,109.1,186.6,109.6,187.1L109.6,187.1
		L109.6,187.1z"/>
	<path class="st1" d="M105.2,190.6c1.9,0.6,3.4,1.9,4.8,3.4c1.5,1.6,3,3.2,4.4,4.8V198c-0.3,0.3-1.4-0.2-1.8-0.3
		c-0.5-0.1-1-0.3-1.5-0.4c-1.1-0.3-2.2-0.6-3.2-1.1c-2.1-0.8-4-2-5.5-3.7c-0.4-0.5-1.1,0.2-0.7,0.7c1.7,1.9,3.9,3.2,6.3,4.1
		c1.2,0.5,2.5,0.8,3.7,1.2c1,0.3,2.5,1,3.4,0.2c0.2-0.2,0.2-0.5,0-0.7c-1.6-1.7-3.1-3.5-4.7-5.1c-1.4-1.4-3-2.7-5-3.3
		C104.9,189.4,104.6,190.4,105.2,190.6L105.2,190.6L105.2,190.6z"/>
	<path class="st1" d="M101,191.7c0.9,3.1,2.5,5.9,4.7,8.3l0.2-0.8c-3.2,0.5-6.6-1.2-8.3-4c-0.3-0.5-1.2,0-0.9,0.5
		c1.9,3.2,5.7,5,9.4,4.5c0.4,0,0.5-0.6,0.2-0.8c-2.1-2.2-3.6-4.9-4.5-7.8C101.8,190.8,100.8,191.1,101,191.7L101,191.7L101,191.7z"
		/>
	<path class="st1" d="M82.5,186.2c-3,3.1-7.7,3.1-11.8,3.5c-0.5,0-0.7,0.7-0.3,0.9c3.8,2.2,8.2,3.3,12.6,2.9c0.6,0,0.6-1,0-1
		c-4.2,0.3-8.5-0.7-12.1-2.8l-0.3,0.9c4.3-0.4,9.2-0.5,12.5-3.8C83.6,186.4,82.9,185.7,82.5,186.2L82.5,186.2L82.5,186.2z"/>
	<path class="st1" d="M87.8,189.9c-2.2,0.7-3.9,2.1-5.5,3.7c-1.8,1.8-3.5,3.8-5.3,5.7c-0.2,0.2-0.2,0.5,0,0.7c1,0.8,2.6,0.1,3.8-0.2
		c1.4-0.4,2.8-0.8,4.2-1.3c2.6-1,5.1-2.4,7-4.6c0.4-0.5-0.3-1.2-0.7-0.7c-1.7,1.9-3.8,3.2-6.2,4.1c-1.1,0.5-2.3,0.8-3.5,1.2
		c-0.6,0.2-1.1,0.3-1.7,0.5c-0.5,0.1-1.7,0.7-2.1,0.3v0.7c1.6-1.8,3.3-3.6,5-5.4c1.5-1.6,3.3-3.1,5.4-3.8
		C88.7,190.6,88.4,189.7,87.8,189.9L87.8,189.9L87.8,189.9z"/>
	<path class="st1" d="M91.8,191.8c-1,3.3-2.7,6.3-5,8.8c-0.2,0.2-0.2,0.8,0.2,0.8c4.1,0.6,8.3-1.4,10.5-5c0.3-0.5-0.5-1.1-0.9-0.5
		c-1.9,3.1-5.7,5-9.3,4.5l0.2,0.8c2.5-2.6,4.3-5.8,5.3-9.2C93,191.5,92,191.2,91.8,191.8L91.8,191.8L91.8,191.8z"/>
	<path class="st1" d="M111.1,187c3.3,3.3,8.2,3.4,12.5,3.8l-0.3-0.9c-3.7,2.1-7.9,3.1-12.1,2.8c-0.6,0-0.6,1,0,1
		c4.4,0.3,8.8-0.7,12.6-2.9c0.5-0.3,0.2-0.9-0.3-0.9c-4-0.4-8.7-0.5-11.8-3.5C111.3,185.8,110.6,186.5,111.1,187L111.1,187
		L111.1,187z"/>
	<path class="st1" d="M106.2,190.9c2.1,0.7,3.9,2.2,5.4,3.8c1.7,1.8,3.3,3.6,5,5.4v-0.7c-0.4,0.3-1.6-0.2-2-0.3
		c-0.6-0.1-1.2-0.3-1.7-0.5c-1.2-0.4-2.4-0.7-3.6-1.2c-2.3-0.9-4.5-2.2-6.2-4.1c-0.4-0.5-1.1,0.2-0.7,0.7c1.9,2.1,4.4,3.5,7,4.6
		c1.4,0.5,2.8,0.9,4.2,1.3c1.1,0.3,2.7,1.1,3.8,0.2c0.2-0.2,0.2-0.5,0-0.7c-1.8-1.9-3.5-3.9-5.3-5.7c-1.6-1.6-3.4-3-5.5-3.7
		C105.8,189.8,105.6,190.7,106.2,190.9L106.2,190.9L106.2,190.9z"/>
	<path class="st1" d="M101.4,192.2c1,3.4,2.8,6.6,5.3,9.2l0.2-0.8c-3.6,0.5-7.5-1.4-9.3-4.5c-0.3-0.5-1.2,0-0.9,0.5
		c2.1,3.6,6.4,5.5,10.5,5c0.4,0,0.5-0.6,0.2-0.8c-2.3-2.5-4.1-5.5-5-8.8C102.2,191.3,101.3,191.6,101.4,192.2L101.4,192.2
		L101.4,192.2z"/>
	<path class="st1" d="M110.9,187.2c0.6,0,0.6-1,0-1S110.2,187.2,110.9,187.2L110.9,187.2z"/>
	<path class="st1" d="M115.9,192.8c2,0.2,3.5-1.3,5.4-1.9l-0.6-0.6l-0.1,0.3c-0.2,0.4,0.3,0.7,0.6,0.6l0.4-0.1
		c0.6-0.1,0.4-1.1-0.3-1l-0.4,0.1l0.6,0.6l0.1-0.3c0.1-0.4-0.3-0.7-0.6-0.6c-1.7,0.5-3.2,2-5.1,1.8c-0.3,0-0.5,0.3-0.5,0.5
		C115.4,192.6,115.6,192.8,115.9,192.8L115.9,192.8L115.9,192.8z"/>
	<path class="st1" d="M115,199.6C115,199.6,115,199.6,115,199.6L115,199.6C114.9,199.6,115,199.6,115,199.6L115,199.6
		C114.9,199.6,115,199.6,115,199.6L115,199.6c0,0,0.1,0,0.1,0L115,199.6c0.1,0,0.1,0,0.2,0.1L115,199.6c0.1,0,0.1,0.1,0.2,0.1
		l-0.1-0.1c0,0,0.1,0.1,0.1,0.1l0-0.1c0,0,0,0.1,0,0.1l0-0.1c0,0,0,0,0,0.1c0,0.1,0.1,0.3,0.1,0.4s0.2,0.1,0.4,0.1s0.3,0,0.4-0.1
		s0.1-0.2,0.1-0.4c0-0.4-0.2-0.7-0.6-0.9s-0.8-0.2-1.1,0c-0.1,0.1-0.2,0.2-0.2,0.3s0,0.3,0,0.4s0.2,0.2,0.3,0.2
		S114.9,199.7,115,199.6L115,199.6L115,199.6z"/>
	<path class="st1" d="M100.4,199.3c0.8,0.4,1.6,0.7,2.4,1.1s1.6,0.6,2.5,0.6c0.3,0,0.5-0.2,0.5-0.5c0-0.3-0.2-0.5-0.5-0.5
		c-0.8,0-1.5-0.2-2.2-0.5c-0.8-0.3-1.5-0.7-2.3-1c-0.3-0.1-0.5-0.1-0.7,0.2C100.1,198.8,100.2,199.2,100.4,199.3L100.4,199.3
		L100.4,199.3z"/>
	<path class="st1" d="M105.8,201.1c0.6,0,0.6-1,0-1S105.1,201.1,105.8,201.1L105.8,201.1z"/>
	<path class="st1" d="M92.9,198.9c-1.2,1-2.9,1.1-4.3,1.1l0.3,0.9l0.5-0.2c0.3-0.1,0.3-0.5,0.2-0.7c-0.1-0.3-0.4-0.3-0.7-0.2
		l-0.5,0.2c-0.5,0.2-0.2,1,0.3,0.9c1.8-0.1,3.6-0.2,5-1.4c0.2-0.2,0.2-0.5,0-0.7C93.4,198.7,93.1,198.7,92.9,198.9L92.9,198.9z"/>
	<path class="st1" d="M79,199.6c0-0.1,0.1-0.1,0.1-0.2l-0.1,0.1c0-0.1,0.1-0.1,0.2-0.2l-0.1,0.1c0.1,0,0.1-0.1,0.2-0.1l-0.1,0
		c0,0,0.1,0,0.1,0c0.1,0,0.2-0.1,0.3-0.2c0-0.1,0.1-0.1,0.1-0.2c0-0.1,0-0.1,0-0.2c0-0.1-0.1-0.2-0.2-0.3s-0.3-0.1-0.4,0
		c-0.1,0-0.2,0.1-0.3,0.1s-0.2,0.1-0.3,0.2c-0.1,0.1-0.1,0.1-0.2,0.2s-0.1,0.2-0.2,0.3c0,0.1-0.1,0.1-0.1,0.2c0,0.1,0,0.1,0,0.2
		c0,0.1,0,0.1,0.1,0.2c0,0,0.1,0.1,0.1,0.1c0.1,0.1,0.3,0.1,0.4,0l0.1,0C78.9,199.7,79,199.7,79,199.6L79,199.6L79,199.6z"/>
	<path class="st1" d="M78.2,191.6c-1.8,0-3.6-0.4-5.1-1.4l-0.1,0.9c0.3-0.1,0.6-0.1,0.8,0.1c0.2,0.2,0.5,0.2,0.7,0
		c0.2-0.2,0.2-0.5,0-0.7c-0.5-0.4-1.1-0.6-1.8-0.4c-0.4,0.1-0.5,0.7-0.1,0.9c1.7,1,3.6,1.6,5.6,1.5
		C78.9,192.6,78.9,191.6,78.2,191.6L78.2,191.6z"/>
	<path class="st1" d="M82.7,187.6c0.2-0.1,0.3-0.2,0.5-0.4s0.3-0.3,0.4-0.4c0-0.1,0.1-0.1,0.1-0.2c0-0.1,0-0.1,0-0.2
		c0-0.1,0-0.1-0.1-0.2s-0.1-0.1-0.1-0.1c-0.1-0.1-0.3-0.1-0.4-0.1l-0.1,0.1c-0.1,0-0.1,0.1-0.2,0.2c0,0,0,0.1-0.1,0.1l0.1-0.1
		c-0.1,0.1-0.2,0.3-0.4,0.4l0.1-0.1c-0.1,0.1-0.1,0.1-0.2,0.1c-0.1,0.1-0.2,0.2-0.2,0.3c0,0.1,0,0.1,0,0.2c0,0.1,0,0.1,0.1,0.2
		c0.1,0.1,0.2,0.2,0.3,0.2S82.6,187.6,82.7,187.6L82.7,187.6L82.7,187.6z"/>
	<path class="st1" d="M51.4,24.8c0.6,0,0.6-1,0-1S50.8,24.8,51.4,24.8L51.4,24.8z"/>
	<path class="st1" d="M143.4,25.1c0.6,0,0.6-1,0-1S142.7,25.1,143.4,25.1L143.4,25.1z"/>
</g>
</svg>
