<svg width="193" height="202" viewBox="0 0 193 202" fill="none" xmlns="http://www.w3.org/2000/svg">
<path fill-rule="evenodd" clip-rule="evenodd" d="M130.24 48.5369C130.24 28.637 144.921 18.3754 156.392 17.9557C162.123 17.7459 166.647 19.9647 168.537 24.1606C170.474 28.4593 170.035 35.6252 163.899 46.1144C159.294 53.9874 157.388 60.9566 157.335 67.3428L161.222 67.0827C161.324 61.4873 163.041 55.2726 167.251 48.0749C173.627 37.1741 174.784 28.5727 172.077 22.5655C169.325 16.4554 162.965 13.8296 156.25 14.0753C142.826 14.5665 126.357 26.4159 126.357 48.5369C126.357 49.6092 127.227 50.4784 128.299 50.4784C129.371 50.4784 130.24 49.6092 130.24 48.5369ZM184.003 113.782L181.113 116.863C182.043 119.094 182.808 121.394 183.354 123.79C185.314 132.39 184.475 142.432 177.706 155.185C174.416 161.383 170.342 164.731 165.786 166.141C161.172 167.568 155.766 167.099 149.683 165.063C146.541 164.011 143.271 162.559 139.907 160.788L137.156 163.72C141.021 165.809 144.802 167.523 148.451 168.745C154.965 170.926 161.259 171.605 166.933 169.85C172.666 168.077 177.47 163.911 181.136 157.005C188.279 143.548 189.334 132.557 187.14 122.927C186.409 119.718 185.321 116.682 184.003 113.782ZM17.9445 158.457C17.5279 161.57 17.2708 164.6 17.1889 167.494C17.0274 173.196 17.5485 178.284 18.8118 182.391C20.0761 186.501 22.0352 189.484 24.6493 191.23C29.763 194.645 38.7374 194.053 53.4261 184.003C59.5961 179.782 65.1232 176.146 70.1157 173.069L75.2395 174.504C69.5714 177.878 63.1023 182.088 55.6188 187.208C40.797 197.349 29.8039 199.342 22.4929 194.459C18.8946 192.056 16.5272 188.171 15.1005 183.532C13.6728 178.891 13.1386 173.35 13.3075 167.384C13.3982 164.181 13.6924 160.831 14.1699 157.4L17.9445 158.457ZM125.001 176.204C126.011 175.408 126.975 174.54 127.883 173.6C127.909 173.628 127.935 173.656 127.962 173.684C130.693 176.598 133.604 179.934 136.814 183.613L136.815 183.614L137.745 184.679C141.335 188.792 145.322 193.334 149.911 198.261C150.642 199.046 150.598 200.274 149.813 201.005C149.029 201.736 147.8 201.692 147.069 200.907C142.436 195.932 138.414 191.35 134.82 187.233L133.899 186.178L133.897 186.176C130.674 182.482 127.81 179.2 125.129 176.34C125.086 176.295 125.044 176.249 125.001 176.204Z" fill="#651AB7"/>
<path fill-rule="evenodd" clip-rule="evenodd" d="M0.00723296 113.382L0.00564575 113.382L1.84365 149.005C1.99829 152.002 4.04887 154.566 6.93868 155.375L99.4795 181.293C109.793 184.182 120.857 181.095 128.185 173.283L191.018 106.305C192.101 105.15 192.524 103.523 192.14 101.987L183.079 65.7439C183.211 67.0251 182.819 68.3727 181.804 69.4314L181.642 69.6005L189.879 102.552C190.071 103.32 189.86 104.133 189.318 104.711L126.486 171.689C119.752 178.867 109.585 181.704 100.108 179.05L7.56702 153.131C5.64048 152.592 4.27343 150.883 4.17033 148.885L2.60487 118.544C1.01379 117.267 0.0967389 115.355 0.00723296 113.382Z" fill="#651AB7"/>
<path fill-rule="evenodd" clip-rule="evenodd" d="M161.461 55.6139C162.485 55.9325 163.057 57.0208 162.738 58.0446C159.319 69.029 162.073 77.7729 166.949 86.2852C168.977 89.8256 171.34 93.2701 173.779 96.8262C174.304 97.5918 174.833 98.3627 175.362 99.1408C178.326 103.494 181.292 108.036 183.614 112.94C184.073 113.909 183.659 115.066 182.69 115.525C181.721 115.984 180.563 115.571 180.104 114.601C177.921 109.991 175.103 105.66 172.153 101.326C171.641 100.574 171.125 99.8217 170.607 99.067C168.165 95.507 165.694 91.9055 163.58 88.2154C158.402 79.1775 155.173 69.2839 159.031 56.8907C159.349 55.8668 160.437 55.2952 161.461 55.6139Z" fill="#651AB7"/>
<path fill-rule="evenodd" clip-rule="evenodd" d="M97.5129 163.797C91.3973 165.161 83.8655 168.642 73.7756 174.732C72.8576 175.286 71.6643 174.991 71.1102 174.073C70.5561 173.155 70.8511 171.961 71.7691 171.407C81.9555 165.259 89.9233 161.511 96.6679 160.007C103.516 158.48 109.107 159.268 114.407 162.107C119.59 164.883 124.393 169.571 129.824 175.568C131.961 177.927 134.181 180.471 136.57 183.21C140.371 187.567 144.6 192.415 149.608 197.792C150.339 198.577 150.295 199.805 149.511 200.536C148.726 201.267 147.498 201.223 146.767 200.438C141.753 195.055 137.393 190.059 133.538 185.642C131.16 182.918 128.975 180.414 126.947 178.175C121.525 172.189 117.11 167.96 112.574 165.53C108.155 163.163 103.525 162.457 97.5129 163.797Z" fill="#651AB7"/>
<path fill-rule="evenodd" clip-rule="evenodd" d="M57.9737 52.5785L2.06715 108.133C-1.76665 111.943 -0.0107079 118.476 5.2164 119.85L91.2744 142.478C101.363 145.131 112.097 142.107 119.318 134.579L181.804 69.4314C184.271 66.8592 183.054 62.5822 179.603 61.6936L102.214 41.7686C101.852 42.4873 101.462 43.1894 101.046 43.8736L179.022 63.9498C180.748 64.3941 181.356 66.5326 180.122 67.8187L117.637 132.966C111.002 139.884 101.138 142.663 91.8669 140.225L5.80884 117.597C2.3241 116.681 1.15347 112.325 3.70934 109.786L59.9535 53.8956C59.2754 53.4823 58.6149 53.0428 57.9737 52.5785Z" fill="#651AB7"/>
<path fill-rule="evenodd" clip-rule="evenodd" d="M62.7625 55.4078L8.50052 109.077C6.36139 111.192 7.3373 114.832 10.248 115.594L89.3739 136.302C99.4311 138.934 110.126 135.928 117.339 128.442L174.06 69.5813C175.299 68.2955 174.69 66.1511 172.961 65.7078L99.0432 46.7654C98.8677 46.9894 98.6891 47.2109 98.5075 47.4298L172.768 66.4601C173.921 66.7556 174.327 68.1852 173.501 69.0424L116.78 127.903C109.761 135.187 99.3559 138.111 89.5705 135.55L10.4446 114.842C8.11605 114.233 7.33532 111.321 9.04662 109.629L63.5194 55.7516C63.2652 55.6404 63.0129 55.5258 62.7625 55.4078Z" fill="#651AB7"/>
<path fill-rule="evenodd" clip-rule="evenodd" d="M77.0792 71.57C69.2134 75.117 64.2538 81.4055 65.1672 87.7673C66.3925 96.3005 77.7203 101.734 90.4686 99.9037C103.217 98.0732 112.558 89.6718 111.333 81.1386C110.326 74.1262 102.497 69.207 92.6631 68.6921L93.2997 71.0681C96.5692 71.3235 99.5391 72.1062 101.996 73.2846C106.121 75.2635 108.559 78.2097 109.027 81.4697C109.495 84.7297 107.985 88.2428 104.583 91.3024C101.195 94.3496 96.1179 96.7388 90.1374 97.5976C84.1569 98.4563 78.613 97.5921 74.5044 95.6213C70.379 93.6424 67.9414 90.6962 67.4734 87.4362C67.0053 84.1762 68.5154 80.6631 71.9173 77.6035C73.5 76.18 75.4512 74.9001 77.6909 73.8528L77.0792 71.57Z" fill="#651AB7"/>
<path fill-rule="evenodd" clip-rule="evenodd" d="M78.2415 75.9075C73.5272 78.5991 70.6973 82.7218 71.2954 86.8873C72.1954 93.155 80.5158 97.1461 89.8795 95.8016C99.2433 94.4571 106.105 88.2862 105.205 82.0185C104.548 77.4427 99.9356 74.0803 93.85 73.1216L94.5179 75.6144C95.8225 75.8945 97.0211 76.3 98.0789 76.8074C100.989 78.2031 102.593 80.2223 102.898 82.3496C103.204 84.4768 102.232 86.8659 99.833 89.024C97.4473 91.1697 93.8366 92.8798 89.5484 93.4955C85.2602 94.1112 81.3142 93.4861 78.4212 92.0984C75.5114 90.7027 73.907 88.6834 73.6016 86.5562C73.2961 84.4289 74.2675 82.0399 76.667 79.8818C77.3141 79.2998 78.0514 78.7498 78.8678 78.2451L78.2415 75.9075Z" fill="#651AB7"/>
<path fill-rule="evenodd" clip-rule="evenodd" d="M88.5896 53.4895C87.8921 53.8537 87.1775 54.1896 86.4473 54.4959L93.3209 80.1482C94.1169 83.1191 92.3538 86.1728 89.3829 86.9689C86.412 87.7649 83.3583 86.0019 82.5622 83.031L75.5045 56.6912C75.4999 56.6912 75.4952 56.6912 75.4905 56.6912C74.6735 56.6912 73.8646 56.6566 73.0652 56.5889L80.3119 83.634C81.4409 87.8477 85.7722 90.3484 89.9859 89.2193C94.1997 88.0902 96.7003 83.759 95.5712 79.5452L88.5896 53.4895Z" fill="#651AB7"/>
<path fill-rule="evenodd" clip-rule="evenodd" d="M75.4904 54.3615C89.8586 54.3615 101.506 42.7138 101.506 28.3456C101.506 13.9775 89.8586 2.32978 75.4904 2.32978C61.1223 2.32978 49.4746 13.9775 49.4746 28.3456C49.4746 42.7138 61.1223 54.3615 75.4904 54.3615ZM75.4904 56.6912C91.1453 56.6912 103.836 44.0005 103.836 28.3456C103.836 12.6908 91.1453 0 75.4904 0C59.8356 0 47.1448 12.6908 47.1448 28.3456C47.1448 44.0005 59.8356 56.6912 75.4904 56.6912Z" fill="#651AB7"/>
<path fill-rule="evenodd" clip-rule="evenodd" d="M48.3092 103.38C46.0945 105.598 42.9269 107.158 39.3544 107.671C35.7818 108.184 32.3032 107.578 29.5539 106.073C27.734 105.077 26.1788 103.646 25.2006 101.856C24.6919 102.994 24.5232 104.128 24.6763 105.194C24.9818 107.322 26.5861 109.341 29.4959 110.737C32.3889 112.124 36.3349 112.749 40.6231 112.134C44.9113 111.518 48.522 109.808 50.9077 107.662C53.3072 105.504 54.2786 103.115 53.9732 100.988C53.763 99.5238 52.9244 98.0996 51.4795 96.9044C51.2821 99.371 50.0656 101.621 48.3092 103.38ZM49.1331 95.4333C49.6734 100.055 45.1911 104.479 39.0232 105.365C33.2469 106.194 28.0158 103.629 26.7327 99.5327C26.6289 99.2013 26.551 98.8598 26.5006 98.5094C26.403 97.829 26.4148 97.152 26.5255 96.4891C25.6701 97.216 24.9259 97.9994 24.3101 98.8239C24.2771 98.8682 24.2444 98.9126 24.212 98.9571C22.7412 100.982 22.0431 103.248 22.3702 105.526C23.2701 111.793 31.5905 115.784 40.9543 114.44C50.318 113.095 57.1793 106.924 56.2793 100.657C55.8775 97.8585 53.9968 95.5141 51.2046 93.8957C50.2498 93.3423 49.1885 92.8738 48.0433 92.501C48.5971 93.3323 48.967 94.2606 49.1109 95.2629C49.1191 95.3197 49.1265 95.3765 49.1331 95.4333Z" fill="#651AB7"/>
<path fill-rule="evenodd" clip-rule="evenodd" d="M48.7353 98.5886C49.1322 97.5223 49.2737 96.3974 49.1109 95.263C49.105 95.222 49.0987 95.1811 49.0921 95.1403L49.1899 95.6503L50.0406 100.085C50.1372 100.365 50.208 100.656 50.2512 100.957C50.832 105.002 46.1918 109.306 40.0032 110.195C34.0452 111.05 28.722 109.045 27.8152 105.284L27.8053 105.286L27.6169 104.304L26.7814 99.9486L26.6373 99.197C26.9128 100.276 27.4577 101.256 28.2133 102.105L28.7426 104.865L28.7873 105.05C29.1381 106.504 30.3741 107.747 32.3823 108.54C34.3808 109.33 37.0208 109.613 39.861 109.205C42.7745 108.787 45.292 107.567 46.9928 106.02C48.7083 104.459 49.4882 102.679 49.2613 101.099C49.2271 100.861 49.1713 100.632 49.0951 100.411L49.0719 100.344L49.0585 100.273L48.7353 98.5886ZM49.0233 94.7816L49.0015 94.6682L48.9973 94.669C49.0063 94.7064 49.0149 94.7439 49.0233 94.7816Z" fill="#651AB7"/>
<path fill-rule="evenodd" clip-rule="evenodd" d="M46.1111 101.185C47.8067 99.487 48.6359 97.4184 48.3422 95.3732C48.0486 93.3281 46.6708 91.5764 44.5659 90.424C42.4608 89.2716 39.6703 88.7493 36.6987 89.176C33.7271 89.6026 31.1963 90.889 29.5005 92.5872C27.8049 94.2852 26.9757 96.3538 27.2694 98.399C27.563 100.444 28.9408 102.196 31.0456 103.348C33.1507 104.501 35.9413 105.023 38.9129 104.596C41.8844 104.17 44.4153 102.883 46.1111 101.185ZM39.0232 105.365C45.2669 104.468 49.7833 99.9456 49.1109 95.2629C48.4386 90.5801 42.832 87.5108 36.5883 88.4073C30.3447 89.3038 25.8283 93.8266 26.5006 98.5094C27.173 103.192 32.7796 106.261 39.0232 105.365Z" fill="#651AB7"/>
<path fill-rule="evenodd" clip-rule="evenodd" d="M105.003 119.106C102.789 121.324 99.6212 122.884 96.0486 123.397C92.476 123.91 88.9974 123.304 86.2482 121.799C84.4283 120.803 82.8731 119.372 81.8949 117.582C81.3862 118.72 81.2174 119.854 81.3706 120.92C81.676 123.048 83.2804 125.067 86.1902 126.463C89.0832 127.85 93.0292 128.476 97.3174 127.86C101.606 127.244 105.216 125.534 107.602 123.388C110.001 121.23 110.973 118.841 110.667 116.714C110.457 115.25 109.619 113.826 108.174 112.63C107.976 115.097 106.76 117.347 105.003 119.106ZM105.827 111.159C106.368 115.781 101.885 120.205 95.7175 121.091C89.9411 121.92 84.7101 119.355 83.427 115.259C83.3232 114.927 83.2452 114.586 83.1949 114.235C83.0972 113.555 83.109 112.878 83.2198 112.215C82.3644 112.942 81.6201 113.725 81.0044 114.55C80.9713 114.594 80.9386 114.639 80.9063 114.683C79.4355 116.708 78.7373 118.974 79.0644 121.252C79.9644 127.519 88.2848 131.51 97.6485 130.166C107.012 128.821 113.874 122.65 112.974 116.383C112.572 113.585 110.691 111.24 107.899 109.622C106.944 109.068 105.883 108.6 104.738 108.227C105.291 109.058 105.661 109.987 105.805 110.989C105.813 111.046 105.821 111.103 105.827 111.159Z" fill="#651AB7"/>
<path fill-rule="evenodd" clip-rule="evenodd" d="M105.43 114.315C105.826 113.249 105.968 112.124 105.805 110.989C105.799 110.948 105.793 110.907 105.786 110.866L105.884 111.376L106.735 115.812C106.832 116.092 106.902 116.383 106.945 116.683C107.526 120.729 102.886 125.033 96.6974 125.921C90.7392 126.777 85.4159 124.771 84.5093 121.011L84.4996 121.012L84.4986 121.008L84.3112 120.03L83.4757 115.675L83.3317 114.924C83.6072 116.003 84.1521 116.982 84.9077 117.832L85.4373 120.593L85.4815 120.776C85.8321 122.231 87.0681 123.474 89.0764 124.267C91.0748 125.056 93.7149 125.339 96.5553 124.931C99.4688 124.513 101.986 123.293 103.687 121.746C105.403 120.186 106.182 118.406 105.956 116.826C105.921 116.588 105.866 116.359 105.79 116.138L105.766 116.071L105.753 116.001L105.43 114.315ZM105.718 110.509L105.696 110.394L105.692 110.395C105.701 110.433 105.709 110.471 105.718 110.509Z" fill="#651AB7"/>
<path fill-rule="evenodd" clip-rule="evenodd" d="M102.805 116.911C104.501 115.213 105.33 113.145 105.037 111.1C104.743 109.054 103.365 107.303 101.26 106.15C99.1551 104.998 96.3646 104.476 93.393 104.902C90.4214 105.329 87.8906 106.615 86.1948 108.314C84.4992 110.012 83.67 112.08 83.9636 114.125C84.2573 116.17 85.6351 117.922 87.7399 119.075C89.845 120.227 92.6355 120.749 95.6071 120.323C98.5787 119.896 101.11 118.61 102.805 116.911ZM95.7175 121.091C101.961 120.195 106.478 115.672 105.805 110.989C105.133 106.306 99.5263 103.237 93.2826 104.134C87.039 105.03 82.5225 109.553 83.1949 114.236C83.8673 118.918 89.4738 121.988 95.7175 121.091Z" fill="#651AB7"/>
</svg>
