<svg id="visual" viewBox="0 0 1440 100" width="1440" height="100" xmlns="http://www.w3.org/2000/svg" xmlns:xlink="http://www.w3.org/1999/xlink" version="1.1"><path d="M0 40L20 40C40 40 80 40 120 39.5C160 39 200 38 240 37.3C280 36.7 320 36.3 360 34.8C400 33.3 440 30.7 480 29.8C520 29 560 30 600 33.3C640 36.7 680 42.3 720 44.3C760 46.3 800 44.7 840 44C880 43.3 920 43.7 960 43.2C1000 42.7 1040 41.3 1080 37.7C1120 34 1160 28 1200 26C1240 24 1280 26 1320 28.7C1360 31.3 1400 34.7 1420 36.3L1440 38L1440 101L1420 101C1400 101 1360 101 1320 101C1280 101 1240 101 1200 101C1160 101 1120 101 1080 101C1040 101 1000 101 960 101C920 101 880 101 840 101C800 101 760 101 720 101C680 101 640 101 600 101C560 101 520 101 480 101C440 101 400 101 360 101C320 101 280 101 240 101C200 101 160 101 120 101C80 101 40 101 20 101L0 101Z" fill="#bc14f1"></path><path d="M0 54L20 54.2C40 54.3 80 54.7 120 52.8C160 51 200 47 240 44.8C280 42.7 320 42.3 360 43C400 43.7 440 45.3 480 47.3C520 49.3 560 51.7 600 51.5C640 51.3 680 48.7 720 48.3C760 48 800 50 840 50.5C880 51 920 50 960 49.3C1000 48.7 1040 48.3 1080 49.5C1120 50.7 1160 53.3 1200 52.5C1240 51.7 1280 47.3 1320 46.2C1360 45 1400 47 1420 48L1440 49L1440 101L1420 101C1400 101 1360 101 1320 101C1280 101 1240 101 1200 101C1160 101 1120 101 1080 101C1040 101 1000 101 960 101C920 101 880 101 840 101C800 101 760 101 720 101C680 101 640 101 600 101C560 101 520 101 480 101C440 101 400 101 360 101C320 101 280 101 240 101C200 101 160 101 120 101C80 101 40 101 20 101L0 101Z" fill="#a916e3"></path><path d="M0 45L20 47C40 49 80 53 120 55C160 57 200 57 240 54.3C280 51.7 320 46.3 360 45.7C400 45 440 49 480 52.2C520 55.3 560 57.7 600 58.7C640 59.7 680 59.3 720 59.5C760 59.7 800 60.3 840 58C880 55.7 920 50.3 960 50.3C1000 50.3 1040 55.7 1080 57.7C1120 59.7 1160 58.3 1200 56C1240 53.7 1280 50.3 1320 48.2C1360 46 1400 45 1420 44.5L1440 44L1440 101L1420 101C1400 101 1360 101 1320 101C1280 101 1240 101 1200 101C1160 101 1120 101 1080 101C1040 101 1000 101 960 101C920 101 880 101 840 101C800 101 760 101 720 101C680 101 640 101 600 101C560 101 520 101 480 101C440 101 400 101 360 101C320 101 280 101 240 101C200 101 160 101 120 101C80 101 40 101 20 101L0 101Z" fill="#9716d5"></path><path d="M0 50L20 50.7C40 51.3 80 52.7 120 52.8C160 53 200 52 240 53.2C280 54.3 320 57.7 360 59.2C400 60.7 440 60.3 480 60.2C520 60 560 60 600 60.7C640 61.3 680 62.7 720 62.8C760 63 800 62 840 62C880 62 920 63 960 61.7C1000 60.3 1040 56.7 1080 56.7C1120 56.7 1160 60.3 1200 60.8C1240 61.3 1280 58.7 1320 56.2C1360 53.7 1400 51.3 1420 50.2L1440 49L1440 101L1420 101C1400 101 1360 101 1320 101C1280 101 1240 101 1200 101C1160 101 1120 101 1080 101C1040 101 1000 101 960 101C920 101 880 101 840 101C800 101 760 101 720 101C680 101 640 101 600 101C560 101 520 101 480 101C440 101 400 101 360 101C320 101 280 101 240 101C200 101 160 101 120 101C80 101 40 101 20 101L0 101Z" fill="#8515c6"></path><path d="M0 62L20 63.5C40 65 80 68 120 67.5C160 67 200 63 240 62.7C280 62.3 320 65.7 360 66.2C400 66.7 440 64.3 480 64.2C520 64 560 66 600 66.2C640 66.3 680 64.7 720 64C760 63.3 800 63.7 840 62.3C880 61 920 58 960 58.8C1000 59.7 1040 64.3 1080 67C1120 69.7 1160 70.3 1200 69.3C1240 68.3 1280 65.7 1320 63.5C1360 61.3 1400 59.7 1420 58.8L1440 58L1440 101L1420 101C1400 101 1360 101 1320 101C1280 101 1240 101 1200 101C1160 101 1120 101 1080 101C1040 101 1000 101 960 101C920 101 880 101 840 101C800 101 760 101 720 101C680 101 640 101 600 101C560 101 520 101 480 101C440 101 400 101 360 101C320 101 280 101 240 101C200 101 160 101 120 101C80 101 40 101 20 101L0 101Z" fill="#7414b8"></path><path d="M0 68L20 67.7C40 67.3 80 66.7 120 66.5C160 66.3 200 66.7 240 68C280 69.3 320 71.7 360 71.3C400 71 440 68 480 67.5C520 67 560 69 600 70.3C640 71.7 680 72.3 720 71.8C760 71.3 800 69.7 840 68.7C880 67.7 920 67.3 960 67.5C1000 67.7 1040 68.3 1080 68.2C1120 68 1160 67 1200 67.8C1240 68.7 1280 71.3 1320 72C1360 72.7 1400 71.3 1420 70.7L1440 70L1440 101L1420 101C1400 101 1360 101 1320 101C1280 101 1240 101 1200 101C1160 101 1120 101 1080 101C1040 101 1000 101 960 101C920 101 880 101 840 101C800 101 760 101 720 101C680 101 640 101 600 101C560 101 520 101 480 101C440 101 400 101 360 101C320 101 280 101 240 101C200 101 160 101 120 101C80 101 40 101 20 101L0 101Z" fill="#6312aa"></path><path d="M0 74L20 74.8C40 75.7 80 77.3 120 76.8C160 76.3 200 73.7 240 72.7C280 71.7 320 72.3 360 72.5C400 72.7 440 72.3 480 72C520 71.7 560 71.3 600 72.5C640 73.7 680 76.3 720 77.5C760 78.7 800 78.3 840 77.2C880 76 920 74 960 73.3C1000 72.7 1040 73.3 1080 75C1120 76.7 1160 79.3 1200 79.5C1240 79.7 1280 77.3 1320 76.2C1360 75 1400 75 1420 75L1440 75L1440 101L1420 101C1400 101 1360 101 1320 101C1280 101 1240 101 1200 101C1160 101 1120 101 1080 101C1040 101 1000 101 960 101C920 101 880 101 840 101C800 101 760 101 720 101C680 101 640 101 600 101C560 101 520 101 480 101C440 101 400 101 360 101C320 101 280 101 240 101C200 101 160 101 120 101C80 101 40 101 20 101L0 101Z" fill="#53109b"></path><path d="M0 81L20 81.7C40 82.3 80 83.7 120 83.3C160 83 200 81 240 81.3C280 81.7 320 84.3 360 84.5C400 84.7 440 82.3 480 81C520 79.7 560 79.3 600 79.7C640 80 680 81 720 81.2C760 81.3 800 80.7 840 81.5C880 82.3 920 84.7 960 85.3C1000 86 1040 85 1080 84.8C1120 84.7 1160 85.3 1200 85.3C1240 85.3 1280 84.7 1320 84.3C1360 84 1400 84 1420 84L1440 84L1440 101L1420 101C1400 101 1360 101 1320 101C1280 101 1240 101 1200 101C1160 101 1120 101 1080 101C1040 101 1000 101 960 101C920 101 880 101 840 101C800 101 760 101 720 101C680 101 640 101 600 101C560 101 520 101 480 101C440 101 400 101 360 101C320 101 280 101 240 101C200 101 160 101 120 101C80 101 40 101 20 101L0 101Z" fill="#430d8d"></path><path d="M0 87L20 87C40 87 80 87 120 87.8C160 88.7 200 90.3 240 90.8C280 91.3 320 90.7 360 90.2C400 89.7 440 89.3 480 89.3C520 89.3 560 89.7 600 89.2C640 88.7 680 87.3 720 87C760 86.7 800 87.3 840 88C880 88.7 920 89.3 960 89C1000 88.7 1040 87.3 1080 87.7C1120 88 1160 90 1200 90.8C1240 91.7 1280 91.3 1320 90.8C1360 90.3 1400 89.7 1420 89.3L1440 89L1440 101L1420 101C1400 101 1360 101 1320 101C1280 101 1240 101 1200 101C1160 101 1120 101 1080 101C1040 101 1000 101 960 101C920 101 880 101 840 101C800 101 760 101 720 101C680 101 640 101 600 101C560 101 520 101 480 101C440 101 400 101 360 101C320 101 280 101 240 101C200 101 160 101 120 101C80 101 40 101 20 101L0 101Z" fill="#340a7e"></path></svg>